<?xml version="1.0" encoding="UTF-8"?>
<svg width="150px" height="150px" viewBox="0 0 150 150" version="1.1" xmlns="http://www.w3.org/2000/svg" xmlns:xlink="http://www.w3.org/1999/xlink">
    <!-- Generator: Sketch 50.2 (55047) - http://www.bohemiancoding.com/sketch -->
    <title>Artboard</title>
    <desc>Created with Sketch.</desc>
    <defs></defs>
    <g id="Artboard" stroke="none" stroke-width="1" fill="none" fill-rule="evenodd">
        <g id="Events/AltStaff" fill="#FFFFFF">
            <g id="Page-1" transform="translate(30.000000, 22.000000)">
                <path d="M54.1843205,24.384259 L35.7175821,24.384259 C34.3547151,24.384259 33.2941666,23.3280577 33.2941666,21.9738541 L33.2941666,2.41028394 C33.2941666,1.05486991 34.3547151,0.000121040724 35.7175821,0.000121040724 L54.0317008,0.000121040724 C55.3945678,0.000121040724 56.4551164,1.05486991 56.4551164,2.41028394 L56.4551164,21.8266686 C56.6033546,23.1806301 55.5471875,24.384259 54.1843205,24.384259" id="Fill-1"></path>
                <path d="M84.1511589,14.1493459 C87.3301271,14.1493459 89.9017809,16.7069364 89.895939,19.7213346 L89.895939,101.149303 C89.895939,104.309434 87.3242852,106.867025 84.146534,106.867025 L5.7506464,106.867025 C2.57167818,106.867025 2.43412574e-05,104.309434 2.43412574e-05,101.149303 L2.43412574e-05,19.7155247 C2.43412574e-05,16.5551514 2.57167818,13.9978029 5.7506464,13.9978029 C5.7506464,13.9978029 21.7939691,13.9978029 26.1819676,14.1493459 C26.789282,14.1493459 27.2425162,14.7492238 27.2425162,15.3529749 L27.2425162,21.8264749 C27.2425162,26.4896898 31.0229569,30.2538143 35.7174118,30.2538143 L54.1843935,30.2538143 C58.8727631,30.2538143 62.6592891,26.4940473 62.6592891,21.8264749 L62.6592891,15.50476 C62.6592891,14.7533391 63.1125233,14.3025835 63.7198377,14.3025835 C68.2604558,14.1493459 84.1511589,14.1493459 84.1511589,14.1493459 Z M67.0457297,94.7811326 C68.1077388,94.7811326 68.8618309,93.8781688 68.7194346,92.8231778 C67.9653424,83.0404244 61.3021666,75.0597253 52.3740368,72.0513792 C51.7667224,71.7521665 50.8585501,72.0513792 50.4053159,72.5023769 L46.3181754,76.5669244 C45.5582413,77.3168928 44.1953743,77.3168928 43.4412822,76.5669244 L39.3541417,72.5023769 C38.9009074,72.0513792 38.1395129,71.7521665 37.3854208,72.0513792 C28.457291,75.0597253 21.7941152,83.187852 21.040023,92.8231778 C21.040023,93.8781688 21.7941152,94.7811326 22.8561242,94.7811326 L67.0457297,94.7811326 Z M44.9508053,45.0534878 C37.9870149,45.0534878 32.2376099,50.772662 32.2376099,57.6971597 C32.2376099,64.62311 37.9870149,70.3408317 44.9508053,70.3408317 C51.9145956,70.3408317 57.6640006,64.62311 57.6640006,57.6971597 C57.6640006,50.772662 51.9145956,45.0534878 44.9508053,45.0534878 Z" id="Combined-Shape"></path>
            </g>
        </g>
    </g>
</svg>