<?xml version="1.0" encoding="UTF-8"?>
<svg width="150px" height="150px" viewBox="0 0 150 150" version="1.1" xmlns="http://www.w3.org/2000/svg" xmlns:xlink="http://www.w3.org/1999/xlink">
    <!-- Generator: Sketch 50 (54983) - http://www.bohemiancoding.com/sketch -->
    <title>Projects/BestNetwork</title>
    <desc>Created with Sketch.</desc>
    <defs></defs>
    <g id="Projects/BestNetwork" stroke="none" stroke-width="1" fill="none" fill-rule="evenodd">
        <g id="Page-1" transform="translate(22.000000, 33.000000)" fill="#FFFFFF">
            <path d="M7.05866253,7.3521518e-05 C3.1767544,7.3521518e-05 2.44853547e-05,3.1796341 2.44853547e-05,7.06500126 L2.44853547e-05,61.4670034 C2.44853547e-05,65.3526157 3.1767544,68.5319312 7.05866253,68.5319312 L99.9394482,68.5319312 C103.821601,68.5319312 106.998086,65.3526157 106.998086,61.4670034 L106.998086,7.06500126 C106.998086,3.1796341 103.821601,7.3521518e-05 99.9394482,7.3521518e-05 L7.05866253,7.3521518e-05 Z M7.05866253,3.42078468 L99.9394482,3.42078468 C101.982751,3.42078468 103.58042,5.0198777 103.58042,7.06500126 L103.58042,61.4670034 C103.58042,63.512127 101.982751,65.11122 99.9394482,65.11122 L7.05866253,65.11122 C5.01535969,65.11122 3.41769029,63.512127 3.41769029,61.4670034 L3.41769029,7.06500126 C3.41769029,5.0198777 5.01535969,3.42078468 7.05866253,3.42078468 Z M74.9732011,13.4238774 C73.7352216,13.4557367 72.7509103,14.4901844 72.7810273,15.7292671 C72.8126134,16.9683497 73.8461402,17.9537831 75.0841198,17.9236393 C76.3220993,17.89178 77.3081245,16.8573322 77.2762936,15.6182496 C77.2449523,14.3791669 76.2111807,13.3922631 74.9732011,13.4238774 Z M41.3504018,19.1879644 C40.1124222,19.2181082 39.1645942,20.2542714 39.1961803,21.4933541 C39.2262973,22.7324367 40.2598241,23.7176251 41.4995176,23.6874813 C42.7374971,23.655867 43.7218084,22.6214193 43.6899774,21.3823366 C43.6598604,20.1415385 42.5883813,19.1563501 41.3504018,19.1879644 Z M77.721927,20.1542822 C76.4839475,20.1858964 75.5358746,21.2203442 75.5677055,22.4596719 C75.5978225,23.700225 76.6328185,24.6474272 77.870798,24.6172834 C79.1090224,24.5854241 80.0568505,23.5512214 80.0250195,22.3118937 C79.9949025,21.0713406 78.9599066,20.1241384 77.721927,20.1542822 Z M72.2974416,20.6745695 C71.059462,20.7064288 70.0749059,21.7408765 70.1067369,22.9799592 C70.1368539,24.2207573 71.1703807,25.2059457 72.4098293,25.1740864 C73.6480537,25.1439425 74.6326098,24.1080243 74.6007789,22.8689417 C74.5706619,21.629859 73.5371351,20.6444256 72.2974416,20.6745695 Z M17.647599,22.0136414 C12.2911828,22.0136414 8.6200936,26.5004145 8.6200936,31.5329624 C8.6200936,36.5958993 12.6322638,47.00238 25.2642583,53.7322947 C25.4243925,53.8197853 25.622479,53.8197853 25.7843272,53.7322947 C32.9174008,49.934173 37.2939131,44.9381408 39.7524875,40.4212238 L39.7524875,40.3829926 L40.9794487,37.8540975 L40.9794487,37.8175818 C41.9750232,35.3695603 42.3902948,33.1751881 42.3902948,31.5329624 C42.3902948,26.5004145 38.7192056,22.0136414 33.3627894,22.0136414 C29.1892607,22.0136414 26.5259886,24.9076934 25.5242928,26.214906 C24.5206381,24.9076934 21.8213726,22.0136414 17.647599,22.0136414 Z M45.2878917,25.0250827 C44.0499121,25.056697 43.0656009,26.0911448 43.0974318,27.3319429 C43.1275488,28.5710256 44.1608308,29.5562139 45.4005243,29.5245996 C46.6385038,29.4944558 47.6228151,28.4600081 47.591229,27.2192099 C47.561112,25.9801273 46.5275852,24.9949389 45.2878917,25.0250827 Z M37.1528774,25.992871 C38.390857,25.9610117 39.4246286,26.9464451 39.4559699,28.1869982 C39.4863317,29.4260808 38.5020205,30.4605286 37.2637961,30.4923879 C36.0260614,30.5225317 34.9908206,29.5370983 34.9607036,28.2980157 C34.9288727,27.058933 35.9134288,26.0230148 37.1528774,25.992871 Z M79.764985,27.4049743 C78.5272504,27.4365885 77.5426942,28.4345206 77.5745252,29.6736033 C77.6046422,30.9126859 78.638169,31.8995898 79.8776177,31.8679755 C81.1155972,31.8361162 82.1001533,30.8016684 82.0685672,29.5625858 C82.0384502,28.3235031 81.0046785,27.3748305 79.764985,27.4049743 Z M69.8452333,27.4794761 C68.6072538,27.5110903 67.6229425,28.5457832 67.6547735,29.7848658 C67.6848904,31.0254189 68.7196415,32.0106072 69.9578659,31.978993 C71.1956006,31.9488492 72.1801567,30.9126859 72.1500397,29.6736033 C72.1184536,28.4345206 71.0846819,27.4493323 69.8452333,27.4794761 Z M49.1888984,31.421945 C47.9511637,31.4520888 46.9666076,32.5247677 46.9967246,33.7638504 C47.0283107,35.0044035 48.0620823,35.9518508 49.301531,35.9217069 C50.5395105,35.8898476 51.5240666,34.8553998 51.4922357,33.6163172 C51.4623636,32.375519 50.4271228,31.3903307 49.1888984,31.421945 Z M96.0749247,33.4673136 C94.8367003,33.4974574 93.8526339,34.5333756 93.88422,35.7724582 C93.914337,37.0115409 94.9476189,37.9967292 96.1875573,37.9665854 C97.425292,37.9349712 98.4098481,36.9005234 98.3780171,35.6614408 C98.3479001,34.4206426 97.3143733,33.4354543 96.0749247,33.4673136 Z M19.4308674,33.5035842 C20.6688469,33.4734404 21.7023738,34.4586287 21.7342047,35.6979564 C21.7643217,36.9370391 20.7797656,37.9729573 19.5417861,38.0031011 C18.3038065,38.0349604 17.2702797,37.049527 17.2384487,35.8089739 C17.2068626,34.5698913 18.1928879,33.5354435 19.4308674,33.5035842 Z M26.5639409,33.5035842 C27.8021653,33.4734404 28.8354473,34.4586287 28.8672782,35.6979564 C28.8973952,36.9370391 27.913084,37.9729573 26.6751044,38.0031011 C25.4371249,38.0349604 24.4035981,37.049527 24.3717671,35.8089739 C24.340181,34.5698913 25.3259614,33.5354435 26.5639409,33.5035842 Z M33.5119052,33.5035842 C34.7498847,33.4734404 35.7831667,34.4586287 35.8149976,35.6979564 C35.8451146,36.9370391 34.8608034,37.9729573 33.6228238,38.0031011 C32.3848443,38.0349604 31.3496035,37.049527 31.3194865,35.8089739 C31.2879004,34.5698913 32.2722117,33.5354435 33.5119052,33.5035842 Z M82.2174382,33.5783311 C80.9792138,33.6099453 79.9949025,34.6443931 80.0250195,35.8834757 C80.0568505,37.1242739 81.0903773,38.1094622 82.3298259,38.077848 C83.5680503,38.0474591 84.5523616,37.0115409 84.5205306,35.7724582 C84.4904136,34.5333756 83.4554177,33.5481873 82.2174382,33.5783311 Z M89.0162866,33.6893486 C87.7780622,33.7209628 86.8302341,34.7554106 86.8618202,35.9962087 C86.8919372,37.2352914 87.9269332,38.2204797 89.1651576,38.1888655 C90.4031371,38.1587217 91.35121,37.1242739 91.3193791,35.8834757 C91.2892621,34.6443931 90.2557353,33.6592048 89.0162866,33.6893486 Z M66.7620374,35.4011746 C65.5240579,35.4313184 64.5397466,36.4657662 64.5698636,37.7063192 C64.6016946,38.945647 65.6349766,39.8943196 66.8746701,39.8627054 C68.1126496,39.8325615 69.0969609,38.7963983 69.0653747,37.5573156 C69.0352578,36.318233 68.0002618,35.3695603 66.7620374,35.4011746 Z M53.0154696,37.9665854 C51.7777349,37.9967292 50.7931788,38.9946613 50.8232958,40.233744 C50.8548819,41.4745421 51.8886536,42.4597305 53.1281022,42.4281162 C54.3660818,42.3979724 55.3506379,41.3618091 55.3190518,40.1227265 C55.2889348,38.8836438 54.2551631,37.9349712 53.0154696,37.9665854 Z M63.7897602,43.172154 C62.5520255,43.2040133 61.5674694,44.238216 61.5975864,45.4775437 C61.6294174,46.7166263 62.6629442,47.7018147 63.9006789,47.6716709 C65.1406172,47.6400566 66.1246836,46.6053638 66.0933424,45.3665262 C66.0632254,44.1271985 65.0279846,43.1405397 63.7897602,43.172154 Z M56.6566867,44.1384718 C55.4187072,44.170086 54.4341511,45.2047789 54.464268,46.4436164 C54.496099,47.6844146 55.5296258,48.6696029 56.7678502,48.6377436 C58.0072989,48.6075998 58.991855,47.5719267 58.960024,46.332599 C58.929907,45.0935163 57.8946662,44.108328 56.6566867,44.1384718 Z M60.4832579,50.6465966 C59.2452784,50.6767404 58.2607223,51.7126586 58.2908393,52.9517412 C58.3226702,54.1910689 59.3561971,55.1762573 60.5956457,55.1461135 C61.8338701,55.1142541 62.8184262,54.0798064 62.7865952,52.8407237 C62.7564783,51.5999256 61.7229514,50.6149823 60.4832579,50.6465966 Z M37.8583005,69.8347325 L37.8583005,78.0514973 L37.8583005,78.2387321 L31.3559697,78.2387321 C29.4617827,78.2387321 27.9383039,79.5204573 27.9383039,81.1006797 C27.9383039,82.6811473 29.4617827,83.9645879 31.3559697,83.9645879 L75.642141,83.9645879 C77.5363281,83.9645879 79.0598068,82.6811473 79.0598068,81.1006797 C79.0598068,79.5204573 77.5363281,78.2387321 75.642141,78.2387321 L69.1398102,78.2387321 L69.1398102,78.0514973 L69.1398102,69.8710031 C58.7063557,69.8901187 48.291755,69.8582594 37.8583005,69.8347325 Z" id="Fill-1"></path>
        </g>
    </g>
</svg>