<?xml version="1.0" encoding="UTF-8"?>
<svg width="150px" height="150px" viewBox="0 0 150 150" version="1.1" xmlns="http://www.w3.org/2000/svg" xmlns:xlink="http://www.w3.org/1999/xlink">
    <!-- Generator: Sketch 50 (54983) - http://www.bohemiancoding.com/sketch -->
    <title>Projects/Destination2020</title>
    <desc>Created with Sketch.</desc>
    <defs></defs>
    <g id="Projects/Destination2020" stroke="none" stroke-width="1" fill="none" fill-rule="evenodd">
        <g id="Page-1" transform="translate(21.000000, 35.000000)" fill="#FFFFFF">
            <path d="M8.72452684,0 L0,0.102729094 L0.759367946,7.81830456 L1.73729376,7.78341803 L10.5315937,80.1591672 L32.3200897,74.3281535 L19.8432621,36.2589576 L76.8755593,28.7622158 L90.0288822,39.1658462 L101.621412,37.0408019 L87.4707209,27.3695127 L107.140378,24.7840489 L99.9111452,20.8912367 L81.0265041,22.9652613 L62.7143882,10.4499619 L73.2472228,9.87895365 L69.3672346,7.6202925 L59.2341471,8.07147317 L52.5764745,3.52133271 L35.7364871,3.97016922 L33.6299202,1.8874575 L27.164606,2.01211133 L28.944784,4.15122063 L10.3498528,4.64707811 L8.72452684,0 Z M1.70351037,7.50611842 L1.41476578,5.1299738 L0.82569371,0.281574241 L8.02265961,0.192634287 L9.56759487,4.90645184 L46.1505973,3.90342978 L52.2180947,3.73699486 L54.9851615,5.65092751 L99.6290194,36.5319826 L90.1729787,38.2285984 L48.6737341,5.87072641 L10.3213093,7.20606673 L1.70351037,7.50611842 Z M40.7182276,8.89578796 L38.2745162,6.47965483 L48.2537169,6.12361923 L51.1701201,8.43054238 L40.7182276,8.89578796 Z M17.763584,29.9133332 L10.4091461,7.47398973 L31.0953383,6.73585706 L33.1722586,9.23169142 L35.4174064,11.9299504 L43.3518155,11.4997292 L54.3002549,10.9062446 L70.946229,24.0723914 L17.763584,29.9133332 Z" id="Fill-1"></path>
        </g>
    </g>
</svg>