<?xml version="1.0" encoding="UTF-8"?>
<svg width="150px" height="150px" viewBox="0 0 150 150" version="1.1" xmlns="http://www.w3.org/2000/svg" xmlns:xlink="http://www.w3.org/1999/xlink">
    <!-- Generator: Sketch 50 (54983) - http://www.bohemiancoding.com/sketch -->
    <title>Projects/ChildProtection</title>
    <desc>Created with Sketch.</desc>
    <defs></defs>
    <g id="Projects/ChildProtection" stroke="none" stroke-width="1" fill="none" fill-rule="evenodd">
        <g id="Page-1" transform="translate(18.000000, 19.000000)" fill="#FFFFFF">
            <path d="M57.0001398,35 C44.8484169,35 35,44.6252369 35,56.4991795 C35,68.3750366 44.8484169,78 57.0001398,78 C69.1515831,78 79,68.3750366 79,56.4991795 C79,44.6252369 69.1515831,35 57.0001398,35 M57.0001398,36.0939945 C68.5141533,36.0939945 77.8812113,45.2477198 77.8812113,56.4991795 C77.8812113,67.7514597 68.5141533,76.9060055 57.0001398,76.9060055 C45.4861264,76.9060055 36.1187887,67.7514597 36.1187887,56.4991795 C36.1187887,45.2477198 45.4861264,36.0939945 57.0001398,36.0939945" id="Fill-1"></path>
            <path d="M114,56.9998603 C114,61.9722175 109.968578,66 105.000279,66 C100.031701,66 96,61.9722175 96,56.9998603 C96,52.0277825 100.031701,48 105.000279,48 C109.968578,48 114,52.0277825 114,56.9998603" id="Fill-3"></path>
            <path d="M18,56.9998603 C18,61.9722175 13.9685784,66 9.00027916,66 C4.03170074,66 0,61.9722175 0,56.9998603 C0,52.0277825 4.03170074,48 9.00027916,48 C13.9685784,48 18,52.0277825 18,56.9998603" id="Fill-5"></path>
            <path d="M93,56.0007711 C93,57.1014008 92.1076271,58 91.0008996,58 C89.8941721,58 89,57.1078268 89,56.0007711 C89,54.9001414 89.8941721,54 91.0008996,54 C92.1076271,54 93,54.8939725 93,56.0007711" id="Fill-8"></path>
            <path d="M86,56.0007711 C86,57.1014008 85.1060275,58 83.9992289,58 C82.8988562,58 82,57.1078268 82,56.0007711 C82,54.9001414 82.8924303,54 83.9992289,54 C85.1060275,54 86,54.8939725 86,56.0007711" id="Fill-10"></path>
            <path d="M32,56.0007711 C32,57.1014008 31.1072255,58 30.0002571,58 C28.8989457,58 28,57.1078268 28,56.0007711 C28,54.9001414 28.8927745,54 30.0002571,54 C31.1010543,54 32,54.8939725 32,56.0007711" id="Fill-12"></path>
            <path d="M25,56.0007711 C25,57.1014008 24.1076271,58 23.0008996,58 C21.8941721,58 21,57.1078268 21,56.0007711 C21,54.9001414 21.8941721,54 23.0008996,54 C24.1076271,54 25,54.8939725 25,56.0007711" id="Fill-14"></path>
            <path d="M57.0001396,0 C61.9685159,0 66,4.02945878 66,8.99986031 C66,13.9722175 61.9685159,18 57.0001396,18 C52.0314841,18 48,13.9722175 48,8.99986031 C48.0067001,4.03448758 52.0314841,0 57.0001396,0" id="Fill-16"></path>
            <path d="M57.0001396,95 C61.9685159,95 66,99.0277825 66,104.00014 C66,108.972217 61.9685159,113 57.0001396,113 C52.0314841,113 48,108.972217 48,104.00014 C48.0067001,99.0277825 52.0314841,95 57.0001396,95" id="Fill-18"></path>
            <path d="M57.0001286,20 C58.1009965,20 59,20.8939725 59,22.0007711 C59,23.1014008 58.1074253,24 57.0001286,24 C55.8990035,24 55,23.1075697 55,22.0007711 C55,20.8939725 55.8990035,20 57.0001286,20" id="Fill-21"></path>
            <path d="M57.0001286,28 C58.1009965,28 59,28.8927745 59,30 C59,31.1010543 58.1074253,32 57.0001286,32 C55.8990035,32 55,31.1072255 55,30 C55,28.8927745 55.8990035,28 57.0001286,28" id="Fill-23"></path>
            <path d="M57.0001286,81 C58.1009965,81 59,81.8927745 59,82.9997429 C59,84.1010543 58.1074253,85 57.0001286,85 C55.8990035,85 55,84.1072255 55,82.9997429 C55,81.8989457 55.8990035,81 57.0001286,81" id="Fill-25"></path>
            <path d="M57.0001286,88 C58.1009965,88 59,88.8923729 59,89.9991004 C59,91.0996594 58.1074253,92 57.0001286,92 C55.8990035,92 55,91.1058279 55,89.9991004 C55,88.8985414 55.8990035,88 57.0001286,88" id="Fill-27"></path>
            <path d="M97.3649292,16.6360931 C100.878357,20.1528393 100.878357,25.8472306 97.3649292,29.3636974 C93.8495468,32.8787675 88.1506626,32.8787675 84.6352802,29.3636974 C81.1215733,25.8472306 81.1215733,20.1528393 84.6352802,16.6360931 C88.1506626,13.1213023 93.8495468,13.1213023 97.3649292,16.6360931" id="Fill-29"></path>
            <path d="M29.3634019,83.6363026 C32.878866,87.1527694 32.878866,92.8474401 29.3634019,96.3639069 C25.8498924,99.8786977 20.1489209,99.8786977 16.6351321,96.3639069 C13.1216226,92.8474401 13.1216226,87.1527694 16.6351321,83.6363026 C20.1489209,80.1212325 25.8498924,80.1212325 29.3634019,83.6363026" id="Fill-31"></path>
            <path d="M82.4128098,30.5870257 C83.1957301,31.3697266 83.1957301,32.6300164 82.4128098,33.4129743 C81.6301467,34.1956752 80.3634918,34.1956752 79.5869974,33.4129743 C78.8043342,32.6300164 78.8043342,31.3697266 79.5869974,30.5870257 C80.3634918,29.8043248 81.6301467,29.8043248 82.4128098,30.5870257" id="Fill-33"></path>
            <path d="M77.4127479,36.5830733 C78.1957507,37.3666806 78.1957507,38.6348634 77.4127479,39.4122945 C76.629488,40.1959018 75.3640834,40.1959018 74.5872521,39.4122945 C73.8042493,38.6348634 73.8042493,37.3666806 74.5872521,36.5830733 C75.370512,35.8056422 76.6359166,35.8056422 77.4127479,36.5830733" id="Fill-35"></path>
            <path d="M39.4127762,73.5841229 C40.1957413,74.368101 40.1957413,75.6346658 39.4127762,76.4122094 C38.629554,77.1959302 37.3642105,77.1959302 36.5874166,76.4122094 C35.8041945,75.6282313 35.8041945,74.368101 36.5874166,73.5841229 C37.3642105,72.8052924 38.629554,72.8052924 39.4127762,73.5841229" id="Fill-37"></path>
            <path d="M34.4128004,78.5871996 C35.1957332,79.3698753 35.1957332,80.6365506 34.4128004,81.4128004 C33.6301247,82.1957332 32.3634494,82.1957332 31.5871996,81.4128004 C30.8042668,80.6301247 30.8042668,79.3637065 31.5871996,78.5871996 C32.3634494,77.8042668 33.6362935,77.8042668 34.4128004,78.5871996" id="Fill-39"></path>
            <path d="M16.6351321,16.6375801 C20.1489209,13.1208066 25.8498924,13.1208066 29.3634019,16.6375801 C32.878866,20.1523982 32.878866,25.848789 29.3634019,29.3638864 C25.8498924,32.8787045 20.1489209,32.8787045 16.6351321,29.3638864 C13.1216226,25.848789 13.1216226,20.1523982 16.6351321,16.6375801" id="Fill-41"></path>
            <path d="M84.6352802,83.6363026 C88.1506626,80.1212325 93.8495468,80.1212325 97.3649292,83.6363026 C100.878357,87.1527694 100.878357,92.8474401 97.3649292,96.3639069 C93.8495468,99.8786977 88.1506626,99.8786977 84.6352802,96.3639069 C81.1215733,92.8474401 81.1215733,87.1457862 84.6352802,83.6363026" id="Fill-43"></path>
            <path d="M31.5870257,30.5870257 C32.3699836,29.8043248 33.6349002,29.8043248 34.4129743,30.5870257 C35.1956752,31.3697266 35.1956752,32.6300164 34.4129743,33.4129743 C33.6300164,34.1956752 32.3635575,34.1956752 31.5870257,33.4129743 C30.8043248,32.6300164 30.8043248,31.3697266 31.5870257,30.5870257" id="Fill-45"></path>
            <path d="M36.5869974,36.5870257 C37.3699176,35.8043248 38.6363154,35.8043248 39.4128098,36.5870257 C40.1957301,37.3697266 40.1957301,38.6364425 39.4128098,39.4129743 C38.6301467,40.1956752 37.3634918,40.1956752 36.5869974,39.4129743 C35.8043342,38.6364425 35.8043342,37.3697266 36.5869974,36.5870257" id="Fill-47"></path>
            <path d="M74.5833079,73.5872521 C75.3672304,72.8042493 76.6343787,72.8042493 77.411865,73.5872521 C78.196045,74.3640834 78.196045,75.629488 77.411865,76.4127479 C76.6279425,77.1957507 75.3610517,77.1957507 74.5833079,76.4127479 C73.805564,75.6359166 73.805564,74.370512 74.5833079,73.5872521" id="Fill-49"></path>
            <path d="M79.5871902,78.5871996 C80.3698533,77.8042668 81.6365082,77.8042668 82.4130026,78.5871996 C83.1956658,79.3698753 83.1956658,80.6365506 82.4130026,81.4128004 C81.6300824,82.1957332 80.3636846,82.1957332 79.5871902,81.4128004 C78.8042699,80.6301247 78.8042699,79.3637065 79.5871902,78.5871996" id="Fill-51"></path>
            <path d="M68,46.8670027 L64.5944936,43.0027498 C64.5944936,43.0027498 60.6600592,46.5142071 56.499451,43 C52.3385684,46.515582 48.4041339,43.0027498 48.4041339,43.0027498 L45,46.8670027 C45,46.8670027 47.7091439,48.6868011 46.1371817,52.9882676 C44.3571616,57.8594867 43.8628183,64.89945 56.499451,70 C69.1371817,64.89945 68.641466,57.8594867 66.8617204,52.9899175 C65.2908561,48.688176 68,46.8670027 68,46.8670027 Z M55.5939327,61.2769019 C55.3018832,61.5694775 54.9189799,61.7154904 54.5355276,61.7154904 C54.1523498,61.7154904 53.7688975,61.5694775 53.4771225,61.2769019 L49.5479032,57.3408799 L51.6649879,55.2199817 L54.5355276,58.095967 L61.3352865,51.2839597 L63.4520968,53.404583 L55.5939327,61.2769019 Z" id="Fill-53"></path>
        </g>
    </g>
</svg>