<?xml version="1.0" encoding="UTF-8"?>
<svg width="150px" height="150px" viewBox="0 0 150 150" version="1.1" xmlns="http://www.w3.org/2000/svg" xmlns:xlink="http://www.w3.org/1999/xlink">
    <!-- Generator: Sketch 50 (54983) - http://www.bohemiancoding.com/sketch -->
    <title>Projects/WorkReady</title>
    <desc>Created with Sketch.</desc>
    <defs></defs>
    <g id="Projects/WorkReady" stroke="none" stroke-width="1" fill="none" fill-rule="evenodd">
        <g id="Group" transform="translate(22.000000, 43.000000)" fill="#FFFFFF">
            <path d="M103.163381,2.55626847 C103.924246,2.55626847 104.434438,3.19540068 104.434438,3.83453288 L104.434438,60.0736108 C104.434438,60.8387905 103.924246,61.3518753 103.163381,61.3518753 L4.02852843,61.3518753 C3.26787923,61.3518753 2.75747198,60.7127431 2.75747198,60.0736108 L2.75747198,3.83453288 C2.75747198,3.06913627 3.39321593,2.55626847 4.02852843,2.55626847 L103.163381,2.55626847 M103.163381,-4.33898306e-05 L4.02852843,-4.33898306e-05 C1.87127036,-4.33898306e-05 0.215574798,1.66504136 0.215574798,3.83453288 L0.215574798,60.0736108 C0.215574798,62.2431024 1.87127036,63.9081871 4.02852843,63.9081871 L103.163381,63.9081871 C105.320639,63.9081871 106.976335,62.2431024 106.976335,60.0736108 L106.976335,3.83453288 C106.976335,1.66504136 105.320639,-4.33898306e-05 103.163381,-4.33898306e-05" id="Fill-1"></path>
            <polygon id="Fill-4" points="52.2019778 28.3886644 96.8084657 28.3886644 96.8084657 25.8323525 52.2019778 25.8323525"></polygon>
            <polygon id="Fill-6" points="52.2019778 20.7197288 96.8084657 20.7197288 96.8084657 18.1634169 52.2019778 18.1634169"></polygon>
            <polygon id="Fill-7" points="52.2019778 13.0507932 96.8084657 13.0507932 96.8084657 10.4944814 52.2019778 10.4944814"></polygon>
            <path d="M79.776525,42.931699 L79.7478335,42.9653261 C79.743519,42.9705329 79.7394202,42.9757397 79.7344585,42.9798617 L78.4459282,44.5288786 L78.4459282,48.9342481 C78.4459282,49.348621 78.1122004,49.6842414 77.7001641,49.6842414 L69.228396,49.6842414 C68.8174383,49.6842414 68.4837105,49.348621 68.4837105,48.9342481 L68.4837105,40.414438 C68.4837105,40.0009329 68.8174383,39.6653125 69.228396,39.6653125 L76.2472508,39.6653125 L77.4945774,38.1661939 L69.228396,38.1661939 C67.9957387,38.1661939 66.9930452,39.1747905 66.9930452,40.414438 L66.9930452,48.9342481 C66.9930452,50.1741125 67.9957387,51.1822753 69.228396,51.1822753 L77.7001641,51.1822753 C78.9330371,51.1822753 79.9357306,50.1741125 79.9357306,48.9342481 L79.9357306,42.7390481 L79.776525,42.931699 Z" id="Fill-8"></path>
            <path d="M81.6915014,36.8842414 C81.3081567,36.5620719 80.7375619,36.6139227 80.4174248,37.0000922 L73.4175538,45.4060041 L71.2693563,42.948621 C70.9401587,42.5706956 70.3680538,42.5333803 69.9920438,42.8653125 C69.6162494,43.1968108 69.5797917,43.7723769 69.9096365,44.1492176 L72.2437897,46.8207295 L73.45207,48.2037803 L78.6133099,41.9816786 C78.6195659,41.9749532 78.6253905,41.9688786 78.6309994,41.9619363 L81.8077776,38.1661939 C82.127699,37.7800244 82.0754933,37.2059769 81.6915014,36.8842414" id="Fill-9"></path>
            <path d="M45.3360294,48.5276637 L10.1645254,48.5276637 C10.1645254,48.5276637 9.61097298,38.951962 19.2172431,32.3380502 C21.3207855,30.8940366 19.858596,35.1829044 27.7500617,35.1829044 C35.5030315,35.1829044 34.3005758,30.8534671 36.374348,32.4118129 C45.9916202,39.6368705 45.3360294,48.5276637 45.3360294,48.5276637 M27.7500617,32.5155146 C22.6686403,32.5155146 18.550219,28.1823892 18.550219,22.8324231 C18.550219,17.4861451 22.6686403,13.1491146 27.7500617,13.1491146 C32.8316988,13.1491146 36.9501202,17.4861451 36.9501202,22.8324231 C36.9501202,28.1823892 32.8316988,32.5155146 27.7500617,32.5155146" id="Fill-10"></path>
        </g>
    </g>
</svg>