<?xml version="1.0" encoding="UTF-8"?>
<svg width="444px" height="164px" viewBox="0 0 444 164" version="1.1" xmlns="http://www.w3.org/2000/svg" xmlns:xlink="http://www.w3.org/1999/xlink">
    <!-- Generator: Sketch 50.2 (55047) - http://www.bohemiancoding.com/sketch -->
    <title>Logo/CSU/+Tagline Blk</title>
    <desc>Created with Sketch.</desc>
    <defs></defs>
    <g id="Logo/CSU/+Tagline-Blk" stroke="none" stroke-width="1" fill="none" fill-rule="evenodd">
        <rect id="Rectangle" x="0" y="30" width="444" height="134"></rect>
        <path d="M190.142661,88 C190.23853,85.0484591 190.23853,83.0193668 190.189835,80.2534944 L190.189835,73.796354 C190.189835,71.8144156 189.095716,68.6801533 185.951837,68.6801533 C183.048391,68.6801533 180.284943,71.3988717 179.76147,72.2756399 C179.712775,74.0748569 179.76147,76.4723392 179.76147,78.5471118 C179.76147,81.9127231 179.855817,85.3269619 179.90299,88 C178.191052,87.8614853 176.570418,87.9086393 175,88 C175,88 175.190215,74.2590519 175.190215,69.0942236 C175.190215,64.9446783 175.143042,55.4903166 175,53 C176.714981,53.0456804 177.904968,53.0456804 179.855817,53 C179.712775,57.28806 179.712775,67.2493264 179.712775,70.2008673 C181.904055,68.0789407 184.475767,65.9128073 188.094423,65.9128073 C191.09526,65.9128073 193.333714,67.572036 194.333486,69.739643 C194.905653,71.0304816 194.952827,72.6911839 194.905653,74.4432469 C194.85848,75.6884052 194.85848,77.5789828 194.85848,79.7937437 C194.85848,82.2369064 194.905653,85.0484591 195,88 C193.333714,87.9086393 191.570037,87.9086393 190.142661,88" id="Fill-1" fill="#FFFFFF"></path>
        <path d="M212.041596,74.3006222 C209.070788,75.1932849 203.965685,76.8445683 203.965685,81.6201711 C203.965685,83.2258232 204.661296,85.9038113 207.725544,85.9038113 C209.769366,85.9038113 211.902178,83.9402385 212.041596,83.0033705 L212.041596,74.3006222 Z M216.359132,87.9557947 C214.039439,87.9557947 212.599272,86.2146746 212.274456,84.6090226 C211.439426,85.7683433 208.839412,88 205.312412,88 C201.134295,88 199,85.2778066 199,82.1991185 C199,79.6565984 200.067889,78.4502204 202.481022,76.8445683 C205.404369,74.923775 209.582485,74.0339642 212.041596,73.2739176 C212.041596,68.4997407 207.95692,67.9635727 206.61316,67.9635727 C204.290501,67.9635727 202.295625,69.1685248 200.625565,70.4176821 L200.625565,69.0801141 C202.667903,67.607078 205.35839,66 208.839412,66 C211.670802,66 216.916807,67.473036 216.916807,73.5862069 C216.916807,75.1932849 216.823367,79.076225 216.916807,83.8960332 C216.916807,84.8771066 217.427021,85.8139746 218.07517,86.0364273 C219.005124,86.392922 219.794175,86.0820586 220.537248,85.5915219 L221,86.392922 C219.515337,87.5536687 217.843794,87.9557947 216.359132,87.9557947 Z" id="Fill-3" fill="#FFFFFF"></path>
        <path d="M235.622313,69.698148 C234.392562,69.2408216 230.089948,67.4965316 227.725625,73.0474778 C227.678791,74.8372072 227.725625,76.3044628 227.725625,78.3682949 C227.725625,81.7161589 227.820802,85.3410572 227.867635,88 C226.16502,87.8636815 224.559094,87.909121 223,88 C223,88 223.188844,83.0940014 223.188844,77.9549422 C223.188844,73.8258122 223.1405,69.286261 223,66.8076104 C224.701104,66.8559815 225.88251,66.8559815 227.820802,66.8076104 C227.820802,68.0462028 227.820802,69.607269 227.678791,70.6611719 C228.529343,68.5519003 231.035677,65.1102258 236,66.2124997 L235.622313,69.698148 Z" id="Fill-5" fill="#FFFFFF"></path>
        <path d="M238,88 C238,88 238.145782,74.0473868 238.145782,70.0401127 C238.145782,66.0328386 238,53 238,53 C239.842432,53.0912416 241.394851,53.0912416 243,53 C243,53 242.852667,65.9415969 242.852667,70.0401127 C242.852667,74.0930076 243,88 243,88 C241.152916,87.9087584 239.600496,87.9087584 238,88" id="Fill-7" fill="#FFFFFF"></path>
        <path d="M257.56208,67.1607467 C254.956747,67.1607467 252.034007,69.7032668 252.034007,75.1932849 L263.225158,75.1932849 C263.225158,70.1510241 260.888402,67.1607467 257.56208,67.1607467 Z M251.989484,76.5764843 C252.079967,79.7008037 253.562162,85.7683433 259.989318,85.7683433 C262.192504,85.7683433 264.530697,84.9655172 266.552917,82.8693285 L267.180552,83.7163599 C266.055979,84.7858439 263.496607,88 257.56208,88 C251.989484,88 247,83.8061965 247,76.800363 C247,69.8829401 252.842608,66 257.56208,66 C262.731093,66 268.259165,69.3909774 267.990589,76.5764843 L251.989484,76.5764843 Z" id="Fill-9" fill="#FFFFFF"></path>
        <path d="M282.284555,86.9203424 C280.96845,87.6391557 279.321815,88 276.877404,88 C274.856671,88 272.787861,87.5040188 271.048077,86.5609358 L271.048077,85.3001372 C272.081731,85.7055479 273.539062,86.6055022 276.784255,86.6055022 C279.134014,86.6055022 281.721154,85.2110044 281.721154,82.9165523 C281.721154,80.261256 278.944712,79.6330131 277.159856,78.9573286 C275.797175,78.4613474 274.009315,77.6965301 272.927584,76.753447 C271.377103,75.4480821 271,74.0981507 271,72.6576488 C271,68.3835849 274.620793,66 279.08744,66 C280.96845,66 282.941106,66.4039731 284.682392,67.2593609 L284.494591,68.3390185 C283.03726,67.7984709 281.533353,67.4390642 279.697416,67.4390642 C277.253005,67.4390642 275.278846,69.1038358 275.278846,70.9943148 C275.278846,73.1981964 276.736178,73.7833105 278.899639,74.6832647 C279.840144,75.0886754 281.108173,75.583219 282.753305,76.3926028 C284.58774,77.292557 286,79.137032 286,81.1612102 C286,83.7719401 284.775541,85.5718487 282.284555,86.9203424" id="Fill-11" fill="#FFFFFF"></path>
        <path d="M158.168022,89 C148.5444,89 141,81.7393854 141,71.4531429 C141,60.9824472 148.981903,54 158.257544,54 C164.629494,54 168.606007,56.8396872 170.682341,58.9802372 L169.733696,60.28331 C167.836406,58.6068681 164.538528,56.686472 160.879675,56.6076331 C153.473889,56.4454928 146.3771,61.4480428 146.3771,71.3133155 C146.3771,80.0183178 152.746162,85.9297463 160.292006,85.9297463 C165.578139,85.9297463 168.876017,83.4158273 170.049911,82.4370351 L171,83.8338221 C165.758627,88.6281185 160.381528,89 158.168022,89" id="Fill-13" fill="#FFFFFF"></path>
        <path d="M334.742403,89 C332.856009,89 328.761223,88.2516404 328.852382,81.707602 C328.852382,79.83745 328.945011,76.9396106 328.945011,74.5556148 C328.945011,71.609976 328.852382,69.2737797 328.852382,68.1967991 L326,68.1967991 C328.577436,65.9069085 331.060772,63.6170179 333.407371,61 L333.407371,66.9360896 L339.617918,66.9360896 L339.617918,68.2445986 L333.407371,68.2445986 C333.361792,71.3306482 333.407371,76.0508402 333.407371,81.4730862 C333.407371,84.6532409 334.742403,86.756415 337.685944,86.756415 C338.607822,86.756415 339.573809,86.3814884 340.538326,85.5405175 L341,86.4770872 C338.929818,88.4846626 336.812586,89 334.742403,89" id="Fill-15" fill="#FFFFFF"></path>
        <path d="M356.374619,88.5338163 C356.419539,87.6029382 356.374619,86.3905626 356.419539,85.0381829 C354.787904,87.0890935 352.428844,89 348.982993,89 C346.126907,89 343.724375,87.3691016 342.769448,85.178187 C342.224603,83.8734683 342,81.8687293 342.044921,80.0978268 C342.09129,78.8392797 342.09129,77.5330716 342.09129,75.2959854 C342.09129,72.826552 342.09129,69.9847674 342,67 C343.586714,67.0938325 345.264719,67.0938325 346.623932,67 C346.534091,69.9847674 346.48917,72.0341886 346.534091,74.831291 L346.534091,81.0301943 C346.534091,83.6858033 348.030964,86.204387 351.023261,86.204387 C353.789506,86.204387 356.012355,83.7334642 356.46446,82.8487577 C356.512279,81.0301943 356.46446,78.6531041 356.46446,76.5560219 C356.46446,73.1527317 356.46446,69.7032699 356.419539,67 C358.052624,67.1414935 359.503127,67.0938325 361,67 C361,67 360.865238,71.7541805 360.865238,76.9745447 C360.865238,81.1701984 360.865238,86.0182114 361,88.5338163 C359.366916,88.4876447 358.233755,88.4876447 356.374619,88.5338163" id="Fill-17" fill="#FFFFFF"></path>
        <path d="M379.623823,69.698148 C378.394073,69.2408216 374.092969,67.4965316 371.727135,73.0474778 C371.680302,74.8372072 371.727135,76.3044628 371.727135,78.3682949 C371.727135,81.7161589 371.822313,85.3410572 371.869146,88 C370.166531,87.8636815 368.560604,87.909121 367,88 C367,88 367.190354,83.0940014 367.190354,77.9549422 C367.190354,73.8258122 367.1405,69.286261 367,66.8076104 C368.702615,66.8559815 369.884021,66.8559815 371.822313,66.8076104 C371.822313,68.0462028 371.822313,69.607269 371.680302,70.6611719 C372.532365,68.5519003 375.037188,65.1102258 380,66.2124997 L379.623823,69.698148 Z" id="Fill-19" fill="#FFFFFF"></path>
        <path d="M389.742403,89 C387.856009,89 383.759753,88.2516404 383.852382,81.707602 C383.852382,79.83745 383.945011,76.9396106 383.945011,74.5556148 C383.945011,71.609976 383.852382,69.2737797 383.852382,68.1967991 L381,68.1967991 C383.575965,65.9069085 386.060772,63.6170179 388.408841,61 L388.408841,66.9360896 L394.619388,66.9360896 L394.619388,68.2445986 L388.408841,68.2445986 C388.361792,71.3306482 388.408841,76.0508402 388.408841,81.4730862 C388.408841,84.6532409 389.742403,86.756415 392.685944,86.756415 C393.606352,86.756415 394.573809,86.3814884 395.538326,85.5405175 L396,86.4770872 C393.929818,88.4846626 391.812586,89 389.742403,89" id="Fill-21" fill="#FFFFFF"></path>
        <path d="M190.142661,131 C190.23853,128.060307 190.23853,126.03936 190.189835,123.283122 L190.189835,116.853369 C190.189835,114.879386 189.097238,111.756237 185.951837,111.756237 C183.048391,111.756237 180.284943,114.46551 179.76147,115.337292 C179.714297,117.129286 179.76147,119.28966 179.76147,121.354636 C179.76147,124.706738 179.857339,128.336224 179.904512,131 C178.191052,130.862041 176.571939,130.909006 175,131 C175,131 175.190215,126.084857 175.190215,120.940761 C175.190215,116.807872 175.143042,112.25964 175,109.780787 C176.714981,109.826284 177.904968,109.826284 179.857339,109.780787 C179.857339,111.020947 179.857339,112.21561 179.714297,113.270847 C181.905577,111.157438 184.475767,109 188.094423,109 C191.096782,109 193.335235,110.652568 194.333486,112.811474 C194.905653,114.097131 194.952827,115.751167 194.905653,117.497665 C194.85848,118.737825 194.85848,120.620814 194.85848,122.825217 C194.85848,125.26004 194.905653,128.060307 195,131 C193.335235,130.909006 191.571559,130.909006 190.142661,131" id="Fill-23" fill="#FFFFFF"></path>
        <path d="M200.402685,131 C200.402685,131 200.554094,122.577051 200.554094,120.336391 C200.554094,118.047467 200.402685,109.854142 200.402685,109.854142 C202.316242,109.944821 203.931812,109.944821 205.595705,109.854142 C205.595705,109.854142 205.444295,118.002127 205.444295,120.336391 C205.444295,122.622391 205.595705,131 205.595705,131 C203.678926,130.95466 202.066577,130.95466 200.402685,131 M202.975034,103.399814 C201.30953,103.399814 200,102.209281 200,100.699907 C200,99.1890706 201.30953,98 202.975034,98 C204.637315,98 206,99.1890706 206,100.699907 C206,102.209281 204.637315,103.399814 202.975034,103.399814" id="Fill-25" fill="#FFFFFF"></path>
        <path d="M222.263699,120.9096 C220.60952,124.864712 218.12825,131 218.12825,131 C217.160129,130.909946 215.736595,130.909946 214.724401,131 C214.724401,131 212.15058,123.727417 211.045835,120.72804 C209.206552,115.772168 207,110 207,110 C208.470545,110.091506 210.541942,110.091506 211.919935,110 C211.919935,110 213.621125,114.999447 214.769943,118.226864 C215.920229,121.410707 217.988688,126.818301 217.988688,126.818301 C217.988688,126.818301 220.286323,121.499308 221.48362,118.589985 C222.77053,115.409047 224.884531,110 224.884531,110 C226.033348,110.046479 225.987807,110.046479 227,110 C227,110 223.919348,117.000968 222.263699,120.9096" id="Fill-27" fill="#FFFFFF"></path>
        <path d="M238.562752,110.159396 C235.957254,110.159396 233.034328,112.703507 233.034328,118.192455 L244.226191,118.192455 C244.226191,113.151293 241.889287,110.159396 238.562752,110.159396 Z M232.988365,119.57717 C233.078854,122.700266 234.564016,128.769625 240.988709,128.769625 C243.192036,128.769625 245.530377,127.965321 247.552726,125.868996 L248.181837,126.716082 C247.058629,127.788488 244.496221,131 238.562752,131 C232.988365,131 228,126.805925 228,119.801063 C228,112.881766 233.844416,109 238.562752,109 C243.732095,109 249.260519,112.389771 248.990489,119.57717 L232.988365,119.57717 Z" id="Fill-29" fill="#FFFFFF"></path>
        <path d="M266.622313,112.697478 C265.394073,112.240171 261.091458,110.495957 258.727135,116.046662 C258.680302,117.834848 258.727135,119.304971 258.727135,121.367248 C258.727135,124.714966 258.822313,128.339707 258.869146,131 C257.166531,130.863687 255.560604,130.909125 254,131 C254,131 254.190354,126.092749 254.190354,120.955379 C254.190354,116.826428 254.1405,112.285609 254,109.808532 C255.701104,109.855435 256.884021,109.855435 258.822313,109.808532 C258.822313,111.04707 258.822313,112.606603 258.680302,113.661926 C259.532365,111.552746 262.037188,108.111221 267,109.211981 L266.622313,112.697478 Z" id="Fill-31" fill="#FFFFFF"></path>
        <path d="M279.284555,129.92178 C277.966947,130.640593 276.321815,131 273.877404,131 C271.856671,131 269.789363,130.505456 268.048077,129.560936 L268.048077,128.301575 C269.081731,128.705548 270.540565,129.605502 273.784255,129.605502 C276.135517,129.605502 278.721154,128.212442 278.721154,125.916552 C278.721154,123.262694 275.946214,122.633013 274.159856,121.957329 C272.797175,121.462785 271.010817,120.697968 269.929087,119.753447 C268.377103,118.44952 268,117.098151 268,115.659086 C268,111.385023 271.620793,109 276.08744,109 C277.966947,109 279.942608,109.405411 281.683894,110.260799 L281.494591,111.339018 C280.03726,110.799909 278.531851,110.439064 276.698918,110.439064 C274.254507,110.439064 272.280349,112.103836 272.280349,113.994315 C272.280349,116.198196 273.73768,116.78331 275.899639,117.681827 C276.841647,118.088675 278.109675,118.583219 279.754808,119.39404 C281.58774,120.293995 283,122.13847 283,124.162648 C283,126.77194 281.777043,128.571849 279.284555,129.92178" id="Fill-33" fill="#FFFFFF"></path>
        <path d="M285.402793,131 C285.402793,131 285.554243,122.577051 285.554243,120.336391 C285.554243,118.047467 285.402793,109.854142 285.402793,109.854142 C287.318475,109.944821 288.931257,109.944821 290.595596,109.854142 C290.595596,109.854142 290.444146,118.002127 290.444146,120.336391 C290.444146,122.622391 290.595596,131 290.595596,131 C288.679914,130.95466 287.067132,130.95466 285.402793,131 M287.975832,103.399814 C286.309882,103.399814 285,102.209281 285,100.699907 C285,99.1890706 286.309882,98 287.975832,98 C289.638561,98 291,99.1890706 291,100.699907 C291,102.209281 289.638561,103.399814 287.975832,103.399814" id="Fill-35" fill="#FFFFFF"></path>
        <path d="M301.741547,133 C299.855337,133 295.760953,132.253134 295.853572,125.707602 C295.853572,123.838944 295.946192,120.941104 295.946192,118.555615 C295.946192,115.61147 295.853572,113.27378 295.853572,112.198293 L293,112.198293 C295.577183,109.908402 298.061747,107.618512 300.408115,105 L300.408115,110.93609 L306.618054,110.93609 L306.618054,112.244599 L300.408115,112.244599 C300.36254,115.330648 300.408115,120.052334 300.408115,125.473086 C300.408115,128.653241 301.741547,130.756415 304.686269,130.756415 C305.606586,130.756415 306.572479,130.382982 307.538371,129.542011 L308,130.477087 C305.92855,132.486156 303.811526,133 301.741547,133" id="Fill-37" fill="#FFFFFF"></path>
        <path d="M323.164685,122.333069 C321.318695,127.191958 318.521693,134.852731 318.521693,134.852731 C316.957371,139.056305 314.825168,142 311.791929,142 C310.607708,142 310.229121,141.953725 309.470432,141.813407 L309.470432,139.242898 C310.229121,139.430984 310.4169,139.525027 311.222534,139.525027 C313.734838,139.525027 315.583857,137.935252 316.863481,134.151141 C316.863481,134.151141 314.352692,126.863554 312.692966,122.379344 C310.93935,117.568223 308,110 308,110 C309.043386,110.094043 311.64958,110.094043 313.071553,110 C313.071553,110 314.68282,114.905164 315.820095,118.03396 C317.146665,121.679246 319.327326,127.332276 319.327326,127.332276 L325.5831,110 C326.341788,110.047768 327.145907,110.047768 328,110 C328,110 325.015219,117.520455 323.164685,122.333069" id="Fill-39" fill="#FFFFFF"></path>
        <path d="M156.500729,132 C148.125992,132 143.093279,128.213884 143.093279,118.100407 C143.093279,116.165412 143.137004,114.25396 143.137004,110.80187 C143.137004,107.023111 143.137004,102.373236 143,98 C144.552227,98.0456159 146.377004,98.0456159 148.155142,98 C148.10996,102.282005 147.972955,105.781182 148.019595,110.110274 L148.019595,119.40708 C148.019595,125.312127 150.799028,129.036441 156.500729,129.036441 C162.313198,129.036441 165.148016,125.312127 165.148016,119.40708 L165.148016,110.110274 C165.194656,105.781182 165.054737,102.282005 165.008097,98 C166.822672,98.0456159 168.447773,98.0456159 170,98 C169.862996,102.373236 169.862996,107.023111 169.862996,110.80187 C169.862996,114.25396 169.908178,116.165412 169.908178,118.100407 C169.908178,128.213884 164.874008,132 156.500729,132" id="Fill-41" fill="#FFFFFF"></path>
        <path d="M318.960164,80.412988 C318.960164,75.9043974 312.821825,74.8609764 307.486239,72.7369227 C303.24161,71.0475036 299.547743,68.6599898 299.547743,63.4294888 C299.547743,57.9176661 304.122827,54 311.293276,54 C315.556012,54 319.209138,55.0806328 322.746077,57.2359445 L321.890512,58.8062856 C318.681012,57.1079357 316.204853,56.1895467 312.47628,56.1895467 C307.109005,56.1895467 304.589087,58.9417368 304.589087,62.173216 C304.589087,66.3424343 308.63001,67.8621672 313.051183,69.4057157 C318.269073,71.2261206 324,73.045037 324,78.7965042 C324,84.6759803 319.375121,89 310.747042,89 C306.082931,89 302.622948,87.9803947 299,85.7759633 L299.810297,84.1565025 C302.838725,85.75959 305.366188,86.8327805 309.644013,86.8327805 C314.704973,86.8327805 318.960164,84.7161691 318.960164,80.412988" id="Fill-43" fill="#FFFFFF"></path>
        <path d="M65.9844985,66.2602933 C61.2130384,62.0857755 55.5378347,60 48.9527602,60 C48.6326206,60 48.3155444,60.0089009 48,60.0207687 L48,61.1318966 C50.7939464,62.0872589 53.0257337,63.5010171 54.66779,65.388006 C58.0254274,69.2331909 59.7027143,75.0662415 59.7027143,82.8871577 L59.7027143,111.777966 C59.7027143,115.421398 60.8469457,117.286134 62.541082,119.311087 C64.2551314,121.364226 72.1161694,128.817239 72.2172661,128.892896 C72.3735065,129.011575 72.5465964,129.018992 72.6706697,128.975971 C72.7886159,128.937401 73,128.839491 73,128.579881 L73,81.4674656 C73,75.5869436 70.6594571,70.5208531 65.9844985,66.2602933" id="Fill-45" fill="#FFFFFF"></path>
        <path d="M80.9874279,59.3010118 C76.2180341,55.0998395 70.543757,53 63.9615343,53 C63.638471,53 63.31847,53.0074674 63,53.0194153 L63,54.1335549 C65.7973298,55.0968525 68.0312128,56.5201434 69.6771513,58.4228428 C73.0318035,62.2939551 74.706833,68.1633499 74.706833,76.0384946 L74.706833,121.697308 C74.706833,125.5042 75.6408073,128.341821 77.5041628,130.207184 C79.364456,132.069559 81.8570958,133 84.9774889,133 C85.9313677,133 86.7811313,132.9313 87.401229,132.732666 C88.0228578,132.531046 87.9998913,132.008326 87.9998913,131.735018 L87.9998913,74.6092297 C87.9998913,68.69055 85.6588309,63.5902998 80.9874279,59.3010118" id="Fill-47" fill="#FFFFFF"></path>
        <path d="M130,60.0207687 C129.684456,60.0089009 129.367379,60 129.04724,60 C122.462165,60 116.786962,62.0857755 112.01397,66.2602933 C107.340543,70.5208531 105,75.5869436 105,81.4674656 L105,128.579881 C105,128.839491 105.208321,128.937401 105.32933,128.975971 C105.453404,129.018992 105.626493,129.011575 105.781202,128.892896 C105.883831,128.817239 113.743337,121.364226 115.46045,119.311087 C117.151523,117.286134 118.295754,115.421398 118.295754,111.777966 L118.295754,82.8871577 C118.295754,75.0662415 119.974573,69.2331909 123.330678,65.388006 C124.974266,63.5010171 127.206054,62.0887424 130,61.1318966 L130,60.0207687 Z" id="Fill-49" fill="#FFFFFF"></path>
        <path d="M115,53.0194153 C114.683003,53.0074674 114.364474,53 114.042883,53 C107.459451,53 101.784131,55.0998395 97.0138611,59.3010118 C92.3400684,63.5902998 90.0001093,68.69055 90.0001093,74.6092297 L90.0001093,131.735018 C90.0001093,132.008326 89.9771385,132.531046 90.5973501,132.732666 C91.2190932,132.9313 92.0690129,133 93.0215356,133 C96.1440334,133 98.6355998,132.069559 100.497766,130.207184 C102.361464,128.341821 103.294079,125.5042 103.294079,121.697308 L103.294079,76.0384946 C103.294079,68.1633499 104.970947,62.2939551 108.326216,58.4228428 C109.972457,56.5216369 112.203688,55.0998395 115,54.1350484 L115,53.0194153 Z" id="Fill-51" fill="#FFFFFF"></path>
        <path d="M139.300409,29 L139.10705,28.4506836 C138.978143,28.0844708 138.830195,27.6626 138.663202,27.1850586 C138.496209,26.7075171 138.348262,26.2856464 138.219355,25.9194336 L138.025995,25.3701172 L132.981073,25.3701172 L131.706659,29 L130.045527,29 L134.721308,16.3173828 L136.285761,16.3173828 L140.961542,29 L139.300409,29 Z M135.433222,18.3652344 L135.231073,18.9365234 C135.096307,19.3173847 134.930781,19.7890597 134.734491,20.3515625 L134.145624,22.0390625 C133.949334,22.6015653 133.783808,23.0732403 133.649042,23.4541016 L133.446894,24.0253906 L137.560175,24.0253906 L135.573847,18.3652344 L135.433222,18.3652344 Z M146.958964,29 L145.394511,29 L145.394511,16.3173828 L146.932597,16.3173828 L153.814433,26.1875 L153.955058,26.1875 L153.955058,16.3173828 L155.519511,16.3173828 L155.519511,29 L153.981425,29 L147.099589,19.1650391 L146.958964,19.1650391 L146.958964,29 Z M169.834667,29 L168.252636,29 L168.252636,16.3173828 L169.834667,16.3173828 L169.834667,29 Z M176.842832,29 L175.278378,29 L175.278378,16.3173828 L176.816464,16.3173828 L183.6983,26.1875 L183.838925,26.1875 L183.838925,16.3173828 L185.403378,16.3173828 L185.403378,29 L183.865293,29 L176.983457,19.1650391 L176.842832,19.1650391 L176.842832,29 Z M192.429121,29 L190.84709,29 L190.84709,16.3173828 L192.429121,16.3173828 L192.429121,29 Z M202.750762,29 L201.16873,29 L201.16873,17.7412109 L197.081816,17.7412109 L197.081816,16.3173828 L206.837676,16.3173828 L206.837676,17.7412109 L202.750762,17.7412109 L202.750762,29 Z M213.072402,29 L211.490371,29 L211.490371,16.3173828 L213.072402,16.3173828 L213.072402,29 Z M226.760254,29 L226.566895,28.4506836 C226.437988,28.0844708 226.29004,27.6626 226.123047,27.1850586 C225.956054,26.7075171 225.808106,26.2856464 225.679199,25.9194336 L225.48584,25.3701172 L220.440918,25.3701172 L219.166504,29 L217.505371,29 L222.181152,16.3173828 L223.745605,16.3173828 L228.421387,29 L226.760254,29 Z M222.893066,18.3652344 L222.690918,18.9365234 C222.556152,19.3173847 222.390626,19.7890597 222.194336,20.3515625 L221.605469,22.0390625 C221.409179,22.6015653 221.243653,23.0732403 221.108887,23.4541016 L220.906738,24.0253906 L225.02002,24.0253906 L223.033691,18.3652344 L222.893066,18.3652344 Z M236.238145,29 L234.656113,29 L234.656113,17.7412109 L230.569199,17.7412109 L230.569199,16.3173828 L240.325059,16.3173828 L240.325059,17.7412109 L236.238145,17.7412109 L236.238145,29 Z M246.559785,29 L244.977754,29 L244.977754,16.3173828 L246.559785,16.3173828 L246.559785,29 Z M257.232989,29 L255.668535,29 L250.992754,16.3173828 L252.653887,16.3173828 L256.38045,26.9521484 L256.521075,26.9521484 L260.247637,16.3173828 L261.90877,16.3173828 L257.232989,29 Z M274.199161,27.5761719 L274.199161,29 L266.341739,29 L266.341739,16.3173828 L274.199161,16.3173828 L274.199161,17.7412109 L267.92377,17.7412109 L267.92377,21.8105469 L273.873965,21.8105469 L273.873965,23.2167969 L267.92377,23.2167969 L267.92377,27.5761719 L274.199161,27.5761719 Z M291.898106,16.0185547 C293.702803,16.0185547 295.120757,16.616205 296.152012,17.8115234 C297.183268,19.0068419 297.698887,20.6210836 297.698887,22.6542969 C297.698887,24.6816508 297.184732,26.2958924 296.156407,27.4970703 C295.128081,28.6982482 293.708662,29.2988281 291.898106,29.2988281 C290.081691,29.2988281 288.656412,28.6982482 287.622227,27.4970703 C286.588042,26.2958924 286.070958,24.6816508 286.070958,22.6542969 C286.070958,20.6152242 286.593902,18.9995177 287.639805,17.8071289 C288.685709,16.6147401 290.105128,16.0185547 291.898106,16.0185547 Z M291.898106,17.4775391 C290.609037,17.4775391 289.586586,17.9433547 288.830723,18.875 C288.07486,19.8066453 287.696934,21.0663983 287.696934,22.6542969 C287.696934,24.2246172 288.067536,25.4814406 288.808751,26.4248047 C289.549965,27.3681688 290.57974,27.8398438 291.898106,27.8398438 C293.198894,27.8398438 294.21988,27.3681688 294.961094,26.4248047 C295.702309,25.4814406 296.072911,24.2246172 296.072911,22.6542969 C296.072911,21.0663983 295.700844,19.8066453 294.9567,18.875 C294.212556,17.9433547 293.193034,17.4775391 291.898106,17.4775391 Z M304.232442,29 C304.232442,29 304.153341,29 303.995137,29 C303.836934,29 303.652365,29 303.441427,29 C303.230488,29 303.045919,29 302.887716,29 C302.729512,29 302.650411,29 302.650411,29 L302.650411,16.3173828 L310.34963,16.3173828 L310.34963,17.7412109 L304.232442,17.7412109 L304.232442,22.1005859 L309.848653,22.1005859 L309.848653,23.5068359 L304.232442,23.5068359 L304.232442,29 Z" id="Innovate-incubate-ed" fill="#FFFFFF"></path>
    </g>
</svg>