<?xml version="1.0" encoding="UTF-8"?>
<svg width="150px" height="150px" viewBox="0 0 150 150" version="1.1" xmlns="http://www.w3.org/2000/svg" xmlns:xlink="http://www.w3.org/1999/xlink">
    <!-- Generator: Sketch 50.2 (55047) - http://www.bohemiancoding.com/sketch -->
    <title>Logo/Program/Innovate</title>
    <desc>Created with Sketch.</desc>
    <defs></defs>
    <g id="Logo/Program/Innovate" stroke="none" stroke-width="1" fill="none" fill-rule="evenodd">
        <path d="M67.6174132,102 C67.297291,101.703501 67.0132884,101.36768 66.7728069,101 L82.3374755,101 C82.0966975,101.367673 81.812392,101.703496 81.4919228,102 L67.6174132,102 Z M65.9792574,99 C65.9238519,98.6896607 65.8946989,98.3699509 65.8942079,98.0433 L65.8942079,98 L83.2185381,98 L83.2184653,98.0493 C83.2173247,98.3738581 83.1879163,98.6915539 83.1325944,99 L65.9792574,99 Z M65.8942079,96 L65.8942079,95 L83.2229681,95 L83.2214915,96 L65.8942079,96 Z M65.8942079,93 L65.8942079,92 L83.2273981,92 L83.2259214,93 L65.8942079,93 Z M65.8942079,89 L65.8942079,87.9858 C65.8897525,87.0528 65.6966832,86.4228 65.3432178,85.7778 C64.9912376,85.1373 64.4343069,84.4923 63.7184653,83.7723 C62.3001485,82.3413 59.7961881,80.6778 58.3303465,77.8908 C57.3590594,76.0338 56.7308416,73.7103 56.7367822,70.8243 C56.7412376,66.3228 58.725396,62.0583 61.9258911,58.9053 C65.124901,55.7508 69.5877723,53.6883 74.6001485,53.6883 C79.6125248,53.6883 84.075396,55.7553 87.2758911,58.9053 C90.4689604,62.0583 92.4590594,66.3228 92.465,70.8243 C92.4798515,74.6178 91.3422277,77.4513 89.8362871,79.5063 C88.3392574,81.5688 86.2719307,82.9128 85.0986634,84.1398 C84.3041089,84.9588 83.7739109,85.6728 83.4932178,86.4423 C83.3268812,86.8893 83.2333168,87.3723 83.2333168,87.9918 L83.2318281,89 L65.8942079,89 Z" id="Combined-Shape" stroke="#FFFFFF" stroke-width="0.9" fill="#FFFFFF"></path>
        <path d="M27.155,87.94155 C26.565396,84.90555 26.2564851,81.76605 26.2564851,78.55305 C26.2564851,51.78555 47.7391584,30.08805 74.2416337,30.08805 C76.3876733,30.08805 78.1802475,30.23205 80.2520297,30.50955" id="Stroke-25" stroke="#FFFFFF" stroke-width="0.9"></path>
        <path d="M103.614752,116.8824 C95.4969307,123.2364 85.3073267,127.0209 74.2414851,127.0209 C54.29,127.0209 37.1172277,114.7479 29.880099,97.2474" id="Stroke-27" stroke="#FFFFFF" stroke-width="0.9"></path>
        <path d="M89.8743069,32.7183 C108.701535,39.2658 122.228267,57.3138 122.228267,78.5538 C122.228267,90.3708 118.418861,100.7538 111.462426,109.1643" id="Stroke-29" stroke="#FFFFFF" stroke-width="0.9"></path>
        <polyline id="Stroke-33" stroke="#FFFFFF" stroke-width="0.9" points="70.0814356 22.98015 80.2517327 30.51015 71.554703 39.73065"></polyline>
        <polyline id="Stroke-35" stroke="#FFFFFF" stroke-width="0.9" points="123.593267 105.68955 111.462574 109.16355 109.606139 96.56805"></polyline>
        <polyline id="Stroke-37" stroke="#FFFFFF" stroke-width="0.9" points="28.2165842 109.8717 29.8799505 97.2477 42.0626238 100.5312"></polyline>
    </g>
</svg>