<?xml version="1.0" encoding="UTF-8"?>
<svg width="467px" height="193px" viewBox="0 0 467 193" version="1.1" xmlns="http://www.w3.org/2000/svg" xmlns:xlink="http://www.w3.org/1999/xlink">
    <!-- Generator: Sketch 48.2 (47327) - http://www.bohemiancoding.com/sketch -->
    <title>Artboard 2</title>
    <desc>Created with Sketch.</desc>
    <defs>
        <path d="M183.69921,32.4342675 C183.173024,31.892967 182.492806,31.6577719 181.614392,31.7121726 C179.324647,31.8558879 177.543315,33.5739757 176.069509,35.9307982 C174.884108,37.826162 173.897442,40.1345381 173.006372,42.3730865 C172.856918,42.748749 172.706117,43.1149388 172.554778,43.4759863 C169.611474,50.5088334 166.356066,54.7818598 162.656874,56.4569142 C162.146306,56.6880496 161.62766,56.8718211 161.099858,57.0044397 C159.911496,57.3032376 158.152784,57.2109459 155.926321,57.0934837 C153.953795,56.9900953 151.717638,56.872633 149.435164,57.0179722 C137.368963,57.7887842 135.157849,56.0574344 132.598279,54.0538105 C131.568526,53.2478141 130.503766,52.4142112 128.636801,51.7107912 C122.147529,49.2649248 108.594596,48.4933009 107.530644,48.4933009 C107.225542,48.4933009 106.175593,48.4223905 104.43627,48.3049283 C98.5962482,47.9105909 84.9202511,46.9865909 77.1270924,47.4098879 C70.504254,47.7698527 63.5547707,45.7581093 58.8891084,44.0072728 C55.9791958,42.9157402 53.9555058,41.9254309 53.4597489,41.6764327 C51.1288028,40.5047877 43.6989119,33.2202359 40.131401,29.3526436 C39.3911317,28.5498949 38.8132424,27.8908615 38.486059,27.4681058 C38.2076164,27.1084116 37.9579876,26.8334309 37.7167067,26.5673817 C36.8159425,25.5746366 36.253941,24.951329 36.0274709,22.2323764 C35.9827693,21.694865 35.9509934,21.0745346 35.932682,20.353793 C35.8984825,19.0316664 35.9081769,17.3736629 35.9620342,15.2528475 C35.9655349,15.1215821 35.9668814,14.9957297 35.9690357,14.8666295 C36.1626528,4.90859438 33.8982205,0.934907206 33.8747926,0.895662917 C33.8505568,0.859666432 33.0028421,-0.402646397 31.939698,0.131617223 C31.0849818,0.561139192 29.295302,3.60811986 27.5643268,6.55468928 C27.5360517,6.60340633 27.507238,6.65212337 27.4786936,6.70084042 C27.0664156,7.40290721 26.6519833,8.10768049 26.2383588,8.79919192 C25.7156732,9.67258032 25.1946033,10.524858 24.6810735,11.3221937 C24.4247125,11.7205909 24.1707751,12.1041023 23.918992,12.4708334 C23.6997926,12.7904714 23.4824782,13.0963062 23.2678566,13.3861726 C22.5157387,14.4024643 21.7956659,15.2195575 21.1291812,15.7199898 C21.0168886,15.8044327 20.9059425,15.8812974 20.7966121,15.9467947 C19.9900983,16.4336946 19.1027984,16.1227174 17.8748508,15.6929248 C17.8492686,15.6837227 17.8218013,15.6742499 17.7959498,15.6653185 C17.5993705,15.5963026 17.3920197,15.5243097 17.1687809,15.4493395 C16.9067649,15.3616489 16.4042758,15.0049318 15.7420997,14.4655258 C15.0947344,13.9382991 14.2936063,13.235691 13.4025364,12.4240109 C10.007369,9.33210228 5.34413028,4.70641863 3.21245633,2.5745065 C3.14836608,4.70695993 3.10824236,9.38406714 3.88755822,11.1460004 C3.89563683,11.1644046 3.90344614,11.1863272 3.91152475,11.2055434 C4.8944214,13.5393606 5.20733261,21.0236524 5.26469068,22.6594626 C6.18834425,23.0952095 6.2036936,23.4776383 6.20934862,23.6110689 C6.21419578,23.7306963 6.1872671,24.0257051 5.8355786,24.2111005 C5.67858443,24.3618527 5.54824964,24.895575 5.48200509,25.4219898 C5.420877,25.9075364 5.41468341,26.3871286 5.49385371,26.5533079 C5.66215793,26.8916207 5.67885371,27.2223554 5.65246361,27.5225065 C5.63980713,27.6659511 5.61853348,27.8031708 5.59752911,27.9292938 C5.57006186,28.0946612 5.54421033,28.2508264 5.54421033,28.3915645 C5.54421033,28.6291954 5.60533843,29.3139406 5.67185226,29.9865065 C5.72328603,30.5085909 5.77822052,31.0228264 5.81053493,31.3156699 L5.83907933,31.5719757 L4.02597162,33.0903237 L-0.000134643377,36.1262077 C0.0300254731,36.1949529 0.0650327511,36.2742534 0.10246361,36.3595083 C0.578831878,37.4404854 1.61747089,39.7331638 2.20128457,40.5321234 C2.42721616,40.7061515 3.57464702,41.1278246 4.56858443,41.4350127 C4.76166303,41.4095715 4.9431623,41.3876489 5.1138901,41.3687033 L5.11415939,41.3687033 C5.98449418,41.2718105 6.5777329,41.2558422 6.98570233,41.2864257 C7.78467613,41.3467807 7.87434862,41.5865768 7.937631,41.7562745 L8.04884643,42.0556137 L7.81672125,42.2740285 C7.77686681,42.3119195 7.72812591,42.3592833 7.67426856,42.4131427 C7.49061499,42.5966436 7.23910116,42.8651286 6.99997453,43.1582429 C6.70537482,43.518749 6.43097162,43.915793 6.32945051,44.2354309 L6.25162664,44.4798281 L6.13556405,44.8449353 L5.71924672,44.5623764 L5.60776201,44.4865944 C5.4981623,44.4121656 5.38290757,44.3385487 5.27115357,44.2708861 L6.39596434,47.6629459 L6.40135007,47.6786436 L6.27343886,47.8713466 C6.26536026,47.8846084 6.20477074,47.9817719 6.14391194,48.1428088 C6.04158297,48.4115645 5.93709971,48.8578668 6.06851164,49.3861761 C6.25835881,50.1496805 7.5738246,50.9234696 8.68355531,51.20251 C9.37643013,51.3770794 11.8735262,50.7995118 13.2837809,50.3943483 L13.5307169,50.3237086 L13.7254112,50.4917824 C13.7703821,50.5302148 14.3980895,51.0742218 15.181714,51.8902323 C15.7711827,52.5037965 16.4487082,53.27109 17.0346761,54.09522 C17.4176019,54.6340847 17.6971215,55.15238 17.9028566,55.625206 C18.3749163,56.7083483 18.4543559,57.5457402 18.4672817,57.8085417 C18.6921361,58.4949107 20.7591812,64.6660074 23.4843632,68.1517121 C26.2954476,71.7473009 25.4313064,73.8240004 25.0160662,74.8218879 C24.9772889,74.9152622 24.9422817,74.9980812 24.9164301,75.0714274 C24.8453384,76.0722921 27.7455568,84.7604362 28.9379585,87.7565346 C29.3661245,88.8323694 30.2017213,90.0056383 31.0865975,91.2481937 C31.1792322,91.3781058 31.2721361,91.5088299 31.36504,91.639554 C32.4147198,93.1200109 33.4312773,94.6329459 33.7388028,96.0719933 C33.7730022,96.231677 33.8012773,96.3905487 33.8168959,96.5480671 C34.0398654,98.7887807 35.2963574,104.137642 36.4349017,108.69458 C36.9258115,110.660043 37.3943705,112.476918 37.7490211,113.83477 C38.123599,115.269217 38.3705349,116.190781 38.3804985,116.22813 L38.3971943,116.289297 L38.3971943,117.924566 L38.3971943,119.414767 L38.3971943,120.447297 L38.3971943,123.707821 L38.3971943,127.945392 C38.5816557,128.909178 39.2521798,132.433315 39.5715539,134.349789 C39.6763064,134.977157 39.7436281,135.433202 39.7436281,135.569069 C39.7436281,135.935259 39.2193268,138.340798 38.6850619,140.425347 C37.5158188,144.986615 37.0583006,145.293533 36.8382933,145.440767 C36.7133443,145.524668 36.6974563,145.559311 36.6823763,145.592872 C36.5940502,145.786387 36.539385,145.899519 36.3274563,145.966369 C36.2964884,145.976383 36.2617504,145.985315 36.2235116,145.992893 C35.8874418,146.061909 35.2457314,146.062721 33.8807169,146.062721 C32.2854622,146.062721 32.1869032,146.237561 32.0509134,146.480064 C31.8212118,146.887663 31.5336135,147.284707 30.5477547,147.65631 C29.9351274,147.887174 29.4867649,148.48071 29.1630822,149.174928 C28.7868886,149.980925 28.5795378,150.92387 28.4863646,151.599413 L40.1467504,151.599413 L40.2937809,151.599413 C41.0364738,151.438376 42.1262773,151.043227 42.3161245,150.692735 C42.3333588,150.660528 42.3314738,150.651867 42.322318,150.62832 C42.2189119,150.360106 42.2905422,149.572243 42.4626164,148.522661 C42.7604476,146.705245 43.3614956,144.10213 43.8887591,142.022724 C44.2444869,140.618591 44.5668231,139.453171 44.7383588,138.935958 C45.0558479,137.977856 45.8564374,137.6049 46.4407897,137.332626 C47.1716339,136.991877 47.2513428,136.898503 47.1517067,136.497399 C47.1016194,136.296577 47.0660735,135.709536 47.0429148,134.846433 C46.9755932,132.315853 47.0162555,127.400573 47.1177766,122.789775 C47.1894068,119.534935 47.2914665,116.432471 47.4075291,114.430742 C47.5012409,112.813607 47.5715247,111.272253 47.6181114,109.835101 C47.6606587,108.527048 47.6830095,107.307768 47.6851638,106.195937 C47.6862409,105.73096 47.6838173,105.283034 47.6776237,104.858113 L47.676008,104.312753 L48.0715902,104.238324 C48.2240066,104.211529 48.3336063,104.234805 48.4238173,104.305986 C48.568155,104.41993 48.6634825,104.658373 48.8035116,105.016443 C48.8053967,105.021315 48.8072817,105.025916 48.8091667,105.031058 C48.9335771,105.349884 49.1064592,105.806471 49.3113865,106.354267 C49.5946761,107.111276 49.9396325,108.04502 50.3020924,109.031811 C50.4625873,109.468099 50.6257751,109.913589 50.7892322,110.360433 C51.8553384,113.273983 52.9101346,116.189157 52.9101346,116.189157 L52.938679,116.268457 L52.938679,116.3529 C52.938679,116.400264 52.9448726,119.011227 53.2117358,122.451463 C53.4309352,125.282735 53.8265175,128.674795 54.5412045,131.668187 C54.9669469,133.451231 55.0620051,135.236981 54.966139,136.922591 C54.7458624,140.801009 53.511452,144.14787 52.9378712,145.701132 C52.7989192,146.076795 52.6893195,146.373427 52.6551201,146.511459 C52.4434607,147.361842 51.6256368,147.53993 50.7598799,147.728303 C50.0220342,147.889069 49.1037664,148.088809 48.1364884,148.696148 C47.2715393,149.239884 46.7957096,150.206376 46.5323472,151.101958 C46.351925,151.715252 46.2700619,152.295526 46.234516,152.682826 C46.6169032,152.683909 47.190484,152.686074 47.8736645,152.690946 C48.1208697,152.69284 48.3807314,152.695006 48.6532496,152.697441 C49.1438901,152.701772 49.6700764,152.708267 50.2099964,152.715846 C52.5692176,152.749948 55.1928785,152.818422 56.2907606,152.956454 C57.6310007,153.123174 58.3343777,152.025417 58.9960153,150.785297 C59.1204258,150.552538 59.2276019,150.351445 59.3353166,150.189055 C59.4739993,149.933832 59.7341303,148.43064 59.984567,146.918788 C60.0214592,146.697396 60.057813,146.475192 60.0936281,146.257318 C60.2064592,145.572844 60.3165975,144.914622 60.4256587,144.280489 C60.5430677,143.595473 60.6591303,142.939958 60.7751929,142.326394 C61.0606368,140.812918 61.3458115,139.543027 61.6501055,138.605224 C61.8639192,137.945649 62.0874272,137.447111 62.3279003,137.156974 C62.9187154,136.444352 63.0517431,135.122767 62.9391812,133.702665 C62.8697052,132.827923 62.7075946,131.915561 62.5010517,131.084394 C62.2269178,129.982577 61.6789192,125.600478 61.6789192,124.743058 C61.6789192,124.57742 61.7521652,123.580615 61.8701128,122.087709 C62.3373253,116.164798 63.5038755,102.421719 63.5655422,101.697188 L63.5924709,101.37728 L67.3942613,100.173969 L69.0764956,99.641329 L71.9290502,99.146851 L76.7029658,98.3200144 C76.8758479,98.1210865 77.2162263,97.8057789 77.8450109,97.4460847 C79.4136063,96.5486084 82.7834607,95.3731743 89.8697416,95.0340496 C91.1119614,94.9745065 92.286321,94.9220004 93.3998217,94.8749072 C93.5390429,94.8689529 93.6814956,94.8627279 93.8191012,94.8573149 C94.3910662,94.8332271 94.9431041,94.8113044 95.4797926,94.7904643 C96.6835044,94.7436418 97.7999672,94.7038562 98.8224491,94.6708369 C104.235651,94.4951849 107.086052,94.4922077 107.126714,94.4922077 L107.187034,94.4922077 L107.391961,94.4922077 L107.531721,94.7184714 C107.546801,94.7425592 107.582886,94.800749 107.63432,94.8846506 C108.12119,95.6733255 110.154305,98.9776946 112.117405,102.302633 C113.524698,104.686791 114.895368,107.079881 115.631867,108.560338 C117.044007,111.398106 120.918235,115.475993 123.482114,118.174376 C124.305055,119.040457 125.015702,119.788535 125.525731,120.36502 C125.972209,120.869782 126.401991,121.457905 126.812384,122.103677 C128.556285,124.846988 129.94742,128.644482 130.746394,131.656549 C131.857202,135.843508 128.693082,142.278218 128.557631,142.54968 C128.481692,142.714236 126.525862,146.851125 123.327274,147.143427 C122.037391,147.261431 120.703614,147.755638 119.581226,148.303705 C118.707391,148.730521 117.962544,149.189002 117.471903,149.530021 C117.222005,149.70405 117.035659,149.847765 116.933599,149.940057 C116.968606,150.218556 117.48833,150.95689 118.099072,151.599413 L126.077231,151.599413 L130.704116,151.599413 C130.938126,150.435888 131.160287,149.190085 131.161903,148.919434 C131.12905,148.768953 131.141976,148.581392 131.198526,148.35134 C131.316205,147.874454 131.630731,147.205948 132.159072,146.261108 C132.570811,145.52548 133.110193,144.624485 133.789065,143.513466 C133.921015,143.297217 134.058352,143.073118 134.201074,142.8409 C135.38405,140.9136 136.60742,138.920531 136.827966,138.144036 L136.901212,137.886376 C137.685644,135.121955 138.136699,133.733789 138.578599,133.322942 C139.045273,132.800858 140.388745,128.557333 140.672034,126.659533 C140.723468,126.314454 140.740433,126.045969 140.710004,125.892781 C139.731685,125.094904 135.760513,119.918447 133.617529,115.839206 C133.61726,115.839206 133.61726,115.838935 133.61726,115.838935 C132.827172,114.335202 132.283483,112.979515 132.232587,112.048749 C132.050549,108.710278 133.294116,105.734749 133.347434,105.609709 L133.408563,105.465452 L133.631532,104.939308 L134.131598,105.467076 C136.422689,107.884795 139.034501,110.566398 139.584385,111.007287 C140.555702,111.081445 142.213432,111.874721 144.187573,113.080197 C145.565513,113.921378 147.097485,114.964735 148.658002,116.104714 C149.173686,116.481188 149.692063,116.868218 150.209363,117.262556 C150.232253,117.279877 150.255142,117.29747 150.277762,117.314791 C153.932522,120.104113 157.506226,123.227417 159.398504,125.364742 C160.72905,126.867663 160.939094,127.547536 160.926437,127.954865 C161.061619,128.283976 161.85063,129.515434 162.684341,130.81618 C166.446277,136.685231 170.055528,142.596232 170.168628,145.735775 C170.185324,146.203188 170.12635,146.610246 169.976896,146.945582 C169.72996,147.499874 169.253322,147.847659 168.598686,147.951318 C167.330076,148.152953 166.360375,148.706703 165.71651,149.598496 C165.582136,149.784703 165.46742,149.980113 165.366976,150.179853 C165.031445,150.84863 164.873373,151.570995 164.806052,152.209188 C164.744654,152.788921 164.757041,153.299097 164.7802,153.630644 C165.777908,153.636327 168.254807,153.663934 169.768737,153.797635 C170.120426,153.82876 170.420411,153.865568 170.637456,153.909143 C170.666001,153.915097 170.697507,153.919157 170.728475,153.923487 C171.832551,154.07884 174.660331,153.424949 175.962871,152.874988 C176.296248,152.73425 176.531066,152.600549 176.609967,152.489041 C176.867944,152.010802 176.636088,148.806573 176.270397,146.096823 C175.727515,144.421227 175.131044,142.588383 174.513839,140.703846 C173.915484,138.876415 173.298279,137.000538 172.692114,135.170942 C170.851539,129.61368 169.117602,124.488106 168.34448,122.46716 C168.293046,122.332376 168.245651,122.210854 168.203104,122.104489 C168.103199,121.856032 168.027798,121.685522 167.980404,121.606763 C167.420287,120.668419 163.230724,117.122359 160.551321,114.968253 L160.518468,114.939023 C159.962391,114.400159 156.385993,110.867902 154.597929,107.538633 C153.840156,106.128275 153.401219,104.754183 153.652464,103.659944 C154.42774,100.283311 153.124123,93.6437192 153.110928,93.5771392 C153.059225,93.316503 153.111736,93.0298844 153.199254,92.5551638 C153.423839,91.3350724 153.891321,88.7961023 153.239647,83.1181304 C153.117122,82.0501445 152.861299,80.9826998 152.517689,79.940967 C151.244501,76.0817649 148.76087,72.5846928 147.324494,70.765923 C146.678475,69.9482886 146.242769,69.4673431 146.226612,69.4494801 L145.784174,68.9671814 L146.375528,68.6900355 C146.436386,68.6616172 152.487798,65.8268264 155.435411,64.7493677 C157.337114,64.0546084 160.534894,64.1014309 162.72635,64.2413571 C163.956991,64.3198457 164.871488,64.4275645 165.056758,64.4502991 C165.284844,64.4546295 167.43429,64.4443448 170.074916,63.418039 C171.817471,62.7408721 173.371794,61.7911603 174.734924,60.5837895 C176.274436,59.2202534 177.568897,57.5270654 178.601881,55.5082851 C178.730331,55.2576629 178.855011,55.0078527 178.978344,54.7580425 C179.178963,54.3523378 179.372311,53.9479863 179.560811,53.544988 C179.590972,53.4803026 179.620593,53.4156172 179.650753,53.3509318 C179.723191,53.194496 179.796437,53.0377895 179.86726,52.8816243 C183.536023,44.7932411 184.807595,37.5571357 184.880571,37.1295083 C184.898883,36.8723905 185.08119,33.8551814 183.69921,32.4342675" id="path-1"></path>
    </defs>
    <g id="StyleGuide" stroke="none" stroke-width="1" fill="none" fill-rule="evenodd">
        <g id="Artboard-2">
            <g id="Logo/Icon+Text/Small">
                <g id="Logo/Full/Silloutte" transform="translate(259.518571, 19.965517)">
                    <mask id="mask-2" fill="white">
                        <use xlink:href="#path-1"></use>
                    </mask>
                    <use id="Fill-1" fill="#FFFFFF" fill-rule="evenodd" xlink:href="#path-1"></use>
                    <g id="Colour/UI/White" mask="url(#mask-2)" fill="#FFFFFF" fill-rule="evenodd" opacity="0.3">
                        <rect id="Rectangle-2" x="0" y="0" width="185" height="154"></rect>
                    </g>
                </g>
                <g id="Logo/Word/Kelpie/Rev" transform="translate(4.002857, 45.920690)">
                    <path d="M16.4457831,89.5895301 L16.4457831,17.7265076 C16.4457831,16.8024483 16.9107848,16.3404255 17.8408022,16.3404255 L22.6697142,16.3404255 C23.5997315,16.3404255 24.0647332,16.8024483 24.0647332,17.7265076 L24.0647332,53.3381537 C24.0647332,53.5513982 24.1362719,53.693559 24.2793515,53.7646405 C24.4224311,53.835722 24.5655086,53.7646416 24.7085882,53.5513971 L58.4036632,17.0867774 C58.832902,16.589207 59.4052117,16.3404255 60.1206097,16.3404255 L65.4860675,16.3404255 C66.2730052,16.3404255 66.6664682,16.6247472 66.6664682,17.1933991 C66.6664682,17.477725 66.5233908,17.7620467 66.2372316,18.0463727 L40.3757249,47.1540954 C40.1611056,47.4384214 40.1253362,47.6872028 40.2684158,47.9004473 L68.4907239,89.269665 C68.7053432,89.5539909 68.8126513,89.8383126 68.8126513,90.1226385 C68.8126513,90.6912904 68.4191884,90.9756121 67.6322506,90.9756121 L62.0521745,90.9756121 C61.3367765,90.9756121 60.7644668,90.6912904 60.335228,90.1226385 L35.1175763,53.3381537 C34.8314171,52.9116648 34.5810316,52.8761246 34.3664122,53.231532 L24.2793515,63.7870798 C24.1362719,64.0714058 24.0647332,64.3201873 24.0647332,64.5334317 L24.0647332,89.5895301 C24.0647332,90.5135894 23.5997315,90.9756121 22.6697142,90.9756121 L17.8408022,90.9756121 C16.9107848,90.9756121 16.4457831,90.5135894 16.4457831,89.5895301 Z M101.940854,83.1389175 C104.265897,81.7528285 106.07225,79.8158871 107.359966,77.3280351 C107.503046,76.9726277 107.753432,76.7238462 108.111131,76.5816833 C108.46883,76.4395203 108.826523,76.4750605 109.184222,76.688305 L112.296188,78.3942521 C113.154665,78.8918225 113.369281,79.496006 112.940043,80.2068209 C111.223087,83.7608952 108.647693,86.5863418 105.213783,88.6832456 C101.779873,90.7801495 97.702166,91.8285857 92.9805395,91.8285857 C87.9727539,91.8285857 83.7519693,90.6557587 80.3180591,88.3100697 C76.8841489,85.9643807 74.416063,82.6946814 72.9137273,78.5008738 C71.5544712,74.9467995 70.8748534,70.0422506 70.8748534,63.7870798 C70.8748534,60.730576 70.9285074,58.2960716 71.0358171,56.4834937 C71.1431268,54.6709159 71.411397,52.9827559 71.8406358,51.4189632 C73.0568123,46.7986667 75.5070135,43.1024849 79.191313,40.3303069 C82.8756124,37.558129 87.3288979,36.1720608 92.5513029,36.1720608 C98.7752651,36.1720608 103.657783,37.7713703 107.199003,40.9700371 C110.740223,44.1687039 113.011577,48.6823106 114.013134,54.5109924 C114.442373,56.7855999 114.656989,60.3396209 114.656989,65.1731619 C114.656989,66.0972212 114.191987,66.5592439 113.26197,66.5592439 L78.9230401,66.5592439 C78.5653411,66.5592439 78.3864943,66.736945 78.3864943,67.0923524 C78.3864943,70.6464267 78.6011105,73.240862 79.0303492,74.8757361 C79.817287,78.074403 81.4805623,80.615528 84.020225,82.4991873 C86.5598877,84.3828467 89.7612455,85.3246623 93.6243945,85.3246623 C96.8436852,85.2535808 99.6158107,84.5250065 101.940854,83.1389175 Z M83.7519521,45.5014591 C81.4626787,47.314037 79.9603655,49.7485414 79.2449675,52.8050453 C78.8157288,54.226675 78.5295739,56.6434092 78.3864943,60.0553205 C78.3864943,60.4107279 78.5653411,60.588429 78.9230401,60.588429 L106.501493,60.588429 C106.859192,60.588429 107.038039,60.4107279 107.038039,60.0553205 C106.894959,56.9277352 106.680343,54.6531617 106.394184,53.231532 C105.607246,50.0328652 104.01551,47.4917402 101.618927,45.6080808 C99.2223435,43.7244215 96.1998325,42.7826059 92.5513029,42.7826059 C88.9743132,42.7826059 86.0412255,43.6888813 83.7519521,45.5014591 Z M123.372359,89.5895301 L123.372359,17.7265076 C123.372359,16.8024483 123.83736,16.3404255 124.767378,16.3404255 L129.59629,16.3404255 C130.526307,16.3404255 130.991309,16.8024483 130.991309,17.7265076 L130.991309,89.5895301 C130.991309,90.5135894 130.526307,90.9756121 129.59629,90.9756121 L124.767378,90.9756121 C123.83736,90.9756121 123.372359,90.5135894 123.372359,89.5895301 Z M185.527688,64.0003232 C185.527688,69.9000865 185.098456,74.3070725 184.239978,77.2214134 C182.952262,81.7706285 180.591484,85.3424196 177.157574,87.9368938 C173.723664,90.531368 169.46711,91.8285857 164.387785,91.8285857 C161.597733,91.8285857 159.022339,91.2777124 156.661525,90.1759494 C154.300712,89.0741864 152.333397,87.492647 150.759522,85.4312839 C150.616442,85.2180395 150.473365,85.1469591 150.330285,85.2180406 C150.187205,85.289122 150.115667,85.4312829 150.115667,85.6445273 L150.115667,110.274139 C150.115667,111.198198 149.650665,111.660221 148.720648,111.660221 L143.891736,111.660221 C142.961718,111.660221 142.496717,111.198198 142.496717,110.274139 L142.496717,38.4111164 C142.496717,37.4870571 142.961718,37.0250344 143.891736,37.0250344 L148.720648,37.0250344 C149.650665,37.0250344 150.115667,37.4870571 150.115667,38.4111164 L150.115667,42.4627408 C150.115667,42.6759853 150.187205,42.800376 150.330285,42.8359168 C150.473365,42.8714575 150.616442,42.8181472 150.759522,42.6759842 C152.333397,40.6146211 154.282827,39.0153117 156.607871,37.8780079 C158.932914,36.7407042 161.526193,36.1720608 164.387785,36.1720608 C169.39557,36.1720608 173.59847,37.4515084 176.99661,40.0104418 C180.394751,42.5693753 182.737644,46.0523159 184.02536,50.459368 C185.026917,53.6580348 185.527688,58.1716414 185.527688,64.0003232 Z M177.318538,72.1568829 C177.712007,70.2021421 177.908738,67.483316 177.908738,64.0003232 C177.908738,60.6594934 177.765661,58.047288 177.479502,56.1636286 C177.193342,54.2799693 176.692571,52.5918093 175.977173,51.0990981 C175.118696,48.5401647 173.598498,46.5143727 171.416534,45.0216615 C169.23457,43.5289503 166.641292,42.7826059 163.63662,42.7826059 C160.775029,42.7826059 158.378481,43.5289503 156.446907,45.0216615 C154.515332,46.5143727 153.084558,48.5046244 152.154541,50.9924764 C151.510683,52.4141061 151.045681,54.084496 150.759522,56.0036961 C150.473363,57.9228962 150.330285,60.5884119 150.330285,64.0003232 C150.330285,67.4122345 150.473363,70.0955204 150.759522,72.0502612 C151.045681,74.0050021 151.546452,75.7287022 152.26185,77.2214134 C153.120327,79.6381839 154.533217,81.5751254 156.500562,83.0322958 C158.467906,84.4894663 160.810799,85.2180406 163.529311,85.2180406 C166.390903,85.2180406 168.858989,84.5072364 170.933643,83.0856067 C173.008297,81.6639769 174.51061,79.7803458 175.440628,77.4346568 C176.299105,75.8708641 176.925069,74.1116238 177.318538,72.1568829 Z M196.00442,25.2498553 C195.074564,24.3567521 194.609642,23.2018945 194.609642,21.7852481 C194.609642,20.3686016 195.074564,19.2291422 196.00442,18.3668356 C196.934277,17.504529 198.143073,17.0733822 199.630844,17.0733822 C201.118615,17.0733822 202.327411,17.504529 203.257268,18.3668356 C204.187125,19.2291422 204.652046,20.3686016 204.652046,21.7852481 C204.652046,23.2018945 204.187125,24.3567521 203.257268,25.2498553 C202.327411,26.1429585 201.118615,26.5895034 199.630844,26.5895034 C198.143073,26.5895034 196.934277,26.1429585 196.00442,25.2498553 Z M195.101531,89.5895301 L195.101531,38.4111164 C195.101531,37.4870571 195.566533,37.0250344 196.49655,37.0250344 L201.325462,37.0250344 C202.25548,37.0250344 202.720481,37.4870571 202.720481,38.4111164 L202.720481,89.5895301 C202.720481,90.5135894 202.25548,90.9756121 201.325462,90.9756121 L196.49655,90.9756121 C195.566533,90.9756121 195.101531,90.5135894 195.101531,89.5895301 Z M243.574943,83.1389175 C245.899987,81.7528285 247.706339,79.8158871 248.994056,77.3280351 C249.137135,76.9726277 249.387521,76.7238462 249.74522,76.5816833 C250.102919,76.4395203 250.460612,76.4750605 250.818311,76.688305 L253.930277,78.3942521 C254.788754,78.8918225 255.003371,79.496006 254.574132,80.2068209 C252.857177,83.7608952 250.281783,86.5863418 246.847873,88.6832456 C243.413962,90.7801495 239.336255,91.8285857 234.614629,91.8285857 C229.606843,91.8285857 225.386059,90.6557587 221.952148,88.3100697 C218.518238,85.9643807 216.050152,82.6946814 214.547817,78.5008738 C213.18856,74.9467995 212.508943,70.0422506 212.508943,63.7870798 C212.508943,60.730576 212.562597,58.2960716 212.669906,56.4834937 C212.777216,54.6709159 213.045486,52.9827559 213.474725,51.4189632 C214.690902,46.7986667 217.141103,43.1024849 220.825402,40.3303069 C224.509702,37.558129 228.962987,36.1720608 234.185392,36.1720608 C240.409354,36.1720608 245.291872,37.7713703 248.833092,40.9700371 C252.374312,44.1687039 254.645666,48.6823106 255.647223,54.5109924 C256.076462,56.7855999 256.291078,60.3396209 256.291078,65.1731619 C256.291078,66.0972212 255.826077,66.5592439 254.896059,66.5592439 L220.557129,66.5592439 C220.19943,66.5592439 220.020584,66.736945 220.020584,67.0923524 C220.020584,70.6464267 220.2352,73.240862 220.664438,74.8757361 C221.451376,78.074403 223.114652,80.615528 225.654314,82.4991873 C228.193977,84.3828467 231.395335,85.3246623 235.258484,85.3246623 C238.477774,85.2535808 241.2499,84.5250065 243.574943,83.1389175 Z M225.386041,45.5014591 C223.096768,47.314037 221.594455,49.7485414 220.879057,52.8050453 C220.449818,54.226675 220.163663,56.6434092 220.020584,60.0553205 C220.020584,60.4107279 220.19943,60.588429 220.557129,60.588429 L248.135582,60.588429 C248.493281,60.588429 248.672128,60.4107279 248.672128,60.0553205 C248.529049,56.9277352 248.314432,54.6531617 248.028273,53.231532 C247.241336,50.0328652 245.649599,47.4917402 243.253016,45.6080808 C240.856433,43.7244215 237.833922,42.7826059 234.185392,42.7826059 C230.608402,42.7826059 227.675315,43.6888813 225.386041,45.5014591 Z" id="Kelpie" fill="#FFFFFF" fill-rule="evenodd"></path>
                    <rect id="Rectangle-4" x="0" y="111.659574" width="16.6705421" height="16.5637446"></rect>
                    <rect id="Rectangle-4-Copy" x="0" y="0" width="16.6705421" height="16.5637446"></rect>
                    <rect id="Rectangle-4-Copy-2" x="256.554217" y="111.659574" width="16.6705421" height="16.5637446"></rect>
                    <rect id="Rectangle-4-Copy-3" x="256.554217" y="0" width="16.6705421" height="16.5637446"></rect>
                </g>
                <rect id="Rectangle-4-Copy-6" x="0" y="65.2206897" width="20.2878142" height="20.2383792"></rect>
                <rect id="Rectangle-4-Copy-7" x="0" y="0" width="20.2878142" height="20.2383792"></rect>
                <rect id="Rectangle-4-Copy-5" x="444.984286" y="172.368966" width="20.2878142" height="20.2383792"></rect>
            </g>
        </g>
    </g>
</svg>