<svg width="444px" height="134px" viewBox="0 0 444 134" version="1.1" xmlns="http://www.w3.org/2000/svg" xmlns:xlink="http://www.w3.org/1999/xlink">
    <!-- Generator: Sketch 49.3 (51167) - http://www.bohemiancoding.com/sketch -->
    <title>Logo/uImagine/Rev</title>
    <desc>Created with Sketch.</desc>
    <defs></defs>
    <g id="Logo/uImagine/Rev" stroke="none" stroke-width="1" fill="none" fill-rule="evenodd">
        <rect id="Rectangle" x="0" y="0" width="444" height="134"></rect>
        <g id="Group" transform="translate(52.000000, 30.000000)" fill="#FFFFFF">
            <path d="M33.971,57.4691 L29.315,57.4691 L29.315,50.0031 L29.155,50.0031 C26.505,55.5421 21.047,58.6741 14.866,58.6741 C4.429,58.6741 0.335,52.5731 0.335,42.9401 L0.335,16.0471 L5.393,16.0471 L5.393,43.0211 C5.634,50.4861 8.444,54.4191 16.471,54.4191 C25.141,54.4191 28.914,46.2321 28.914,37.8021 L28.914,16.0471 L33.971,16.0471 L33.971,57.4691 Z" id="Fill-1"></path>
            <path d="M43.384,41.6867 L54.761,41.6867 L54.761,0.2617 L43.384,0.2617 L43.384,41.6867 Z M43.384,57.4717 L54.761,57.4717 L54.761,48.0977 L43.384,48.0977 L43.384,57.4717 Z" id="Fill-3"></path>
            <path d="M64.1609,16.0467 L74.8979,16.0467 L74.8979,21.6557 L75.0579,21.6557 C78.0229,17.4087 82.3489,14.9247 87.7179,14.9247 C92.9259,14.9247 97.5739,16.8477 99.8169,21.8167 C102.2209,18.2097 106.5469,14.9247 112.3169,14.9247 C121.1299,14.9247 127.4609,19.0107 127.4609,29.7487 L127.4609,57.4717 L116.0829,57.4717 L116.0829,33.9947 C116.0829,28.4657 115.6009,23.8997 109.1109,23.8997 C102.7019,23.8997 101.4999,29.1877 101.4999,34.3967 L101.4999,57.4717 L90.1209,57.4717 L90.1209,34.2347 C90.1209,29.4277 90.4419,23.8997 83.2309,23.8997 C80.9879,23.8997 75.5379,25.3407 75.5379,33.4337 L75.5379,57.4717 L64.1609,57.4717 L64.1609,16.0467 Z" id="Fill-5"></path>
            <path d="M162.2395,37.1995 C160.3165,38.8835 156.3105,38.9635 152.7845,39.6025 C149.2595,40.3245 146.0545,41.5275 146.0545,45.6935 C146.0545,49.9405 149.3395,50.9825 153.0255,50.9825 C161.9195,50.9825 162.2395,43.9305 162.2395,41.4475 L162.2395,37.1995 Z M135.9585,28.7875 C136.5995,18.1295 146.1345,14.9255 155.4285,14.9255 C163.6815,14.9255 173.6175,16.7685 173.6175,26.7035 L173.6175,48.2575 C173.6175,52.0225 174.0165,55.7895 175.0605,57.4715 L163.5215,57.4715 C163.1205,56.1905 162.8005,54.8285 162.7205,53.4665 C159.1145,57.2325 153.8265,58.5945 148.7785,58.5945 C140.9265,58.5945 134.6765,54.6675 134.6765,46.1755 C134.6765,36.8005 141.7275,34.5555 148.7785,33.5955 C155.7495,32.5535 162.2395,32.7935 162.2395,28.1465 C162.2395,23.2595 158.8745,22.5375 154.8675,22.5375 C150.5405,22.5375 147.7365,24.3005 147.3365,28.7875 L135.9585,28.7875 Z" id="Fill-6"></path>
            <path d="M211.4397,36.2386 C211.4397,29.5086 209.1167,23.4986 201.7457,23.4986 C195.3347,23.4986 192.5307,29.1076 192.5307,35.2776 C192.5307,41.2066 194.7747,47.6966 201.7457,47.6966 C208.2357,47.6966 211.4397,42.1676 211.4397,36.2386 Z M222.2577,54.8286 C222.2577,61.6376 219.8537,73.1766 200.7837,73.1766 C192.6107,73.1766 183.0757,69.3306 182.5137,59.8756 L193.8137,59.8756 C194.8537,64.1226 198.2977,65.5636 202.3057,65.5636 C208.6357,65.5636 211.5197,61.2386 211.4397,55.3076 L211.4397,49.8586 L211.2807,49.8586 C208.7967,54.1866 203.8277,56.2696 198.8607,56.2696 C186.4397,56.2696 181.1527,46.8156 181.1527,35.4376 C181.1527,24.7006 187.3227,14.9256 198.9397,14.9256 C204.3887,14.9256 208.5547,16.7686 211.2807,21.5756 L211.4397,21.5756 L211.4397,16.0466 L222.2577,16.0466 L222.2577,54.8286 Z" id="Fill-7"></path>
            <path d="M231.715,57.4717 L243.092,57.4717 L243.092,16.0467 L231.715,16.0467 L231.715,57.4717 Z M231.715,9.6357 L243.092,9.6357 L243.092,0.2617 L231.715,0.2617 L231.715,9.6357 Z" id="Fill-8"></path>
            <path d="M252.5042,16.0467 L263.3222,16.0467 L263.3222,21.8167 L263.5622,21.8167 C266.4472,17.1687 271.4142,14.9247 276.2222,14.9247 C288.3222,14.9247 291.3662,21.7367 291.3662,31.9927 L291.3662,57.4717 L279.9882,57.4717 L279.9882,34.0747 C279.9882,27.2657 277.9852,23.8997 272.6972,23.8997 C266.5272,23.8997 263.8842,27.3447 263.8842,35.7577 L263.8842,57.4717 L252.5042,57.4717 L252.5042,16.0467 Z" id="Fill-9"></path>
            <path d="M327.9075,32.3123 C326.8645,26.5433 324.3805,23.4993 318.8505,23.4993 C311.6395,23.4993 309.5575,29.1073 309.3965,32.3123 L327.9075,32.3123 Z M309.3965,39.5223 C309.7185,46.7353 313.2425,50.0203 319.5725,50.0203 C324.1395,50.0203 327.8275,47.2163 328.5485,44.6523 L338.5625,44.6523 C335.3575,54.4273 328.5485,58.5943 319.1735,58.5943 C306.1115,58.5943 298.0195,49.6193 298.0195,36.8003 C298.0195,24.3793 306.5935,14.9253 319.1735,14.9253 C333.2755,14.9253 340.0855,26.7833 339.2835,39.5223 L309.3965,39.5223 Z" id="Fill-10"></path>
        </g>
    </g>
</svg>
