<?xml version="1.0" standalone="no"?>
<!DOCTYPE svg PUBLIC "-//W3C//DTD SVG 20010904//EN"
 "http://www.w3.org/TR/2001/REC-SVG-20010904/DTD/svg10.dtd">
<svg version="1.0" xmlns="http://www.w3.org/2000/svg"
 width="600.000000pt" height="600.000000pt" viewBox="0 0 600.000000 600.000000"
 preserveAspectRatio="xMidYMid meet">
<metadata>
Created by potrace 1.11, written by Peter Selinger 2001-2013
</metadata>
<g transform="translate(0.000000,600.000000) scale(0.100000,-0.100000)"
fill="#000000" stroke="none">
<path d="M1014 5453 c-14 -15 -48 -66 -76 -113 -28 -47 -61 -101 -73 -120 -12
-19 -42 -66 -66 -105 -69 -109 -115 -155 -156 -155 -74 0 -130 40 -337 240
-60 58 -127 124 -149 147 -22 23 -43 40 -47 38 -10 -6 -3 -220 8 -242 22 -42
38 -143 48 -303 5 -70 11 -98 22 -106 14 -10 14 -16 4 -35 -14 -27 -15 -42
-10 -158 l3 -85 -50 -40 c-54 -43 -111 -87 -127 -97 -6 -4 6 -38 28 -82 36
-73 39 -76 83 -86 25 -6 60 -9 77 -7 18 3 39 -1 49 -7 15 -12 14 -16 -14 -51
-17 -21 -31 -42 -31 -47 0 -5 -7 -6 -15 -3 -13 5 -13 2 0 -30 17 -39 20 -69
12 -103 -4 -16 2 -29 24 -48 17 -14 38 -26 47 -26 37 -3 68 -1 92 4 91 21 82
23 139 -40 57 -63 87 -114 96 -160 5 -31 63 -180 91 -236 9 -17 39 -65 66
-105 60 -89 79 -139 70 -184 -4 -18 -6 -51 -5 -73 1 -38 59 -236 89 -302 8
-17 14 -37 14 -45 1 -17 53 -109 105 -185 44 -64 65 -105 71 -143 4 -22 11
-62 30 -160 3 -14 30 -126 61 -250 l56 -225 2 -195 c1 -157 6 -218 24 -315
l23 -120 -32 -129 c-49 -200 -53 -206 -162 -210 -31 -2 -55 -8 -62 -17 -6 -9
-25 -24 -43 -34 -31 -18 -48 -44 -63 -97 -10 -33 -30 -30 225 -30 175 0 215 8
216 44 0 13 2 31 4 41 18 93 39 186 58 257 20 74 28 88 57 108 l34 23 2 242
c1 132 5 320 9 417 4 96 9 223 10 283 3 171 12 164 100 -78 72 -197 71 -192
80 -355 6 -114 8 -135 25 -240 9 -52 12 -70 25 -132 8 -35 9 -179 2 -204 -4
-10 -9 -33 -12 -50 -7 -44 -45 -164 -61 -195 -8 -17 -25 -29 -44 -33 -94 -18
-142 -60 -155 -133 l-5 -30 123 -2 c67 -1 145 -4 172 -6 34 -3 57 1 73 11 30
19 68 104 76 164 16 140 52 291 79 337 19 33 24 99 12 153 -3 14 -12 70 -21
125 -16 103 -15 126 11 440 3 33 8 89 10 125 3 36 8 85 10 110 2 25 7 79 11
120 3 41 11 78 17 82 22 14 171 57 237 68 59 10 81 14 145 25 11 1 40 15 65
29 40 23 91 42 143 52 10 2 26 5 35 8 47 14 177 23 427 31 351 12 347 12 361
-2 7 -8 50 -75 96 -151 81 -133 96 -160 167 -290 38 -69 126 -178 240 -297 97
-101 124 -137 163 -216 78 -162 105 -285 85 -391 -32 -171 -134 -328 -223
-343 -66 -11 -129 -34 -178 -65 l-47 -30 18 -25 c20 -27 12 -27 266 -27 87 -1
160 2 163 4 5 6 12 37 19 86 3 27 51 120 118 227 47 76 62 106 78 163 10 36
30 87 44 114 14 27 36 89 49 138 l24 89 -62 78 c-76 96 -160 226 -193 301 -22
51 -25 66 -20 137 6 75 20 140 37 158 4 5 49 -34 99 -86 65 -67 102 -97 129
-105 78 -24 274 -156 450 -305 99 -83 212 -203 212 -225 0 -8 23 -51 52 -96
143 -223 209 -344 231 -426 26 -91 14 -123 -48 -139 -68 -17 -100 -60 -110
-147 -1 -13 1 -26 4 -29 13 -8 237 -8 281 -1 25 5 58 15 74 23 l29 15 -6 97
c-5 90 -14 123 -132 475 -69 208 -132 390 -140 404 -21 41 -51 71 -155 157
-52 43 -119 103 -148 134 -55 59 -153 198 -160 228 -2 10 -4 72 -3 138 1 66
-4 156 -12 200 -7 46 -10 95 -5 115 13 62 2 299 -17 365 -32 111 -123 270
-203 357 l-25 28 79 36 c224 102 290 122 399 118 33 -1 92 -3 130 -5 123 -4
243 43 342 135 68 63 116 140 174 280 23 56 45 110 50 121 16 37 69 216 86
290 2 11 5 43 7 70 6 131 -63 190 -167 140 -73 -34 -127 -118 -222 -338 -103
-243 -202 -376 -321 -437 l-49 -25 -350 0 c-192 1 -370 4 -395 9 -63 11 -125
40 -188 87 -75 57 -144 86 -269 114 -119 26 -184 36 -308 49 -74 7 -308 23
-465 32 -58 3 -123 7 -145 10 -22 3 -204 7 -405 9 -201 3 -396 9 -435 15 -221
34 -503 136 -605 218 -96 78 -312 289 -412 403 -88 101 -90 106 -93 384 -2
132 -6 254 -9 270 -30 175 -59 244 -104 245 -7 0 -24 -12 -38 -27z"/>
</g>
</svg>
