<?xml version="1.0" standalone="no"?>
<!DOCTYPE svg PUBLIC "-//W3C//DTD SVG 20010904//EN"
 "http://www.w3.org/TR/2001/REC-SVG-20010904/DTD/svg10.dtd">
<svg version="1.0" xmlns="http://www.w3.org/2000/svg"
 width="700.000000pt" height="700.000000pt" viewBox="0 0 700.000000 700.000000"
 preserveAspectRatio="xMidYMid meet">
<metadata>
Created by potrace 1.11, written by Peter Selinger 2001-2013
</metadata>
<g transform="translate(0.000000,700.000000) scale(0.100000,-0.100000)"
fill="#000000" stroke="none">
<path d="M5282 6676 c-6 -8 -9 -4488 -3 -4553 1 -10 133 -13 626 -13 l625 0 0
2288 0 2288 -620 0 c-429 0 -623 -3 -628 -10z"/>
<path d="M525 4960 c-6 -10 3 -3197 9 -3255 9 -85 30 -223 42 -275 3 -14 8
-36 10 -48 47 -252 193 -538 362 -711 167 -171 425 -307 677 -357 11 -2 40 -8
65 -13 194 -43 576 -48 768 -11 222 43 422 115 577 209 37 23 69 41 72 41 17
0 176 132 264 220 133 132 228 260 299 401 17 33 34 57 39 55 5 -3 9 -171 9
-373 0 -203 1 -386 1 -409 l1 -40 255 0 255 0 -2 2285 -3 2285 -270 -1 c-148
-1 -273 -2 -276 -2 -3 -1 -5 -560 -6 -1243 0 -1103 -3 -1398 -17 -1488 -2 -14
-7 -46 -10 -71 -9 -61 -15 -98 -23 -134 -4 -16 -7 -32 -8 -35 -9 -47 -18 -89
-21 -105 -2 -11 -22 -76 -44 -144 -189 -581 -568 -936 -1068 -999 -110 -14
-427 -5 -517 15 -11 2 -42 8 -70 13 -72 12 -199 56 -280 97 -206 103 -356 282
-438 523 -22 65 -29 88 -43 145 -7 32 -30 159 -40 230 -4 28 -9 756 -11 1620
-2 863 -6 1571 -8 1574 -7 6 -546 7 -550 1z"/>
<path d="M5281 1395 c-9 -12 -8 -1006 1 -1020 4 -7 220 -10 620 -9 337 1 616
2 621 3 4 0 7 233 7 516 l0 515 -27 0 c-355 7 -1216 3 -1222 -5z"/>
</g>
</svg>
