<?xml version="1.0" encoding="UTF-8"?>
<svg width="150px" height="150px" viewBox="0 0 150 150" version="1.1" xmlns="http://www.w3.org/2000/svg" xmlns:xlink="http://www.w3.org/1999/xlink">
    <!-- Generator: Sketch 50.2 (55047) - http://www.bohemiancoding.com/sketch -->
    <title>Events/CampusCloud</title>
    <desc>Created with Sketch.</desc>
    <defs></defs>
    <g id="Events/CampusCloud" stroke="none" stroke-width="1" fill="none" fill-rule="evenodd">
        <g id="Page-1" transform="translate(24.000000, 22.000000)" fill="#FFFFFF">
            <path d="M23.6502115,31.60295 L27.2960359,31.60295 L27.2960359,33.15095 L26.9206417,33.15095 C27.106453,35.11345 27.6382405,37.49245 28.9623033,38.90645 C29.7844996,39.78695 30.8342456,40.2117 32.171886,40.2117 C34.1039215,40.2117 35.2575106,39.4437 36.5954024,38.55495 C37.8809956,37.6967 39.3388225,36.72645 41.4269998,36.72645 C48.7395178,36.72645 48.7395178,45.68395 48.7395178,48.62745 L45.8369387,48.62745 C45.8369387,40.6807 43.6064485,39.61245 41.4269998,39.61245 C40.2236263,39.61245 39.3332909,40.20345 38.2093712,40.95045 C36.7729164,41.90995 34.9894797,43.09795 32.171886,43.09795 C30.0120493,43.09795 28.2165437,42.34845 26.8328904,40.8662 C24.8347272,38.72645 24.1933136,35.4922 24.0012163,33.15095 L23.6502115,33.15095 L23.6502115,31.60295 Z" id="Fill-1"></path>
            <path d="M39.1496419,10.3223 C37.2973116,4.2808 31.576636,5e-05 25.152442,5e-05 C20.3447311,5e-05 15.9292605,2.3023 13.1833262,6.19655 C5.84616743,6.7253 2.51436166e-05,12.88405 2.51436166e-05,20.27755 C2.51436166e-05,27.8783 6.2220645,34.20855 13.8687412,34.38855 L13.8875989,34.38855 L22.5732098,34.3718 L22.5732098,31.4858 L13.920537,31.50255 C7.84156484,31.35255 2.89983844,26.31905 2.89983844,20.27755 C2.89983844,14.1893 7.88280037,9.1508 14.0113055,9.0443 L14.7975464,9.0308 L15.2144275,8.36905 C17.3797958,4.93505 21.0932565,2.88555 25.152442,2.88555 C30.6015666,2.88555 35.4140548,6.72255 36.5978162,12.0093 L36.8474923,13.11555 L37.9905212,13.13805 C42.989575,13.22805 47.0570579,17.34255 47.0570579,22.30755 C47.0570579,27.2078 43.1980156,31.22955 38.3382574,31.4613 L28.6192438,31.47805 L28.6192438,34.3613 L38.4101681,34.34455 C44.886158,34.03705 49.9568712,28.7503 49.9568712,22.30755 C49.9541054,16.15155 45.2012075,10.99055 39.1496419,10.3223" id="Fill-3"></path>
            <path d="M37.7380541,64.491 L45.249961,64.491 L45.249961,57.01825 L37.7380541,57.01825 L37.7380541,64.491 Z M49.0046572,64.491 L56.5215929,64.491 L56.5215929,57.01825 L49.0046572,57.01825 L49.0046572,64.491 Z M37.7380541,75.913 L45.249961,75.913 L45.249961,68.445 L37.7380541,68.445 L37.7380541,75.913 Z M49.0046572,75.913 L56.5215929,75.913 L56.5215929,68.445 L49.0046572,68.445 L49.0046572,75.913 Z M37.7380541,87.341 L45.249961,87.341 L45.249961,79.86825 L37.7380541,79.86825 L37.7380541,87.341 Z M49.0046572,87.341 L56.5215929,87.341 L56.5215929,79.86825 L49.0046572,79.86825 L49.0046572,87.341 Z M37.7380541,98.76775 L45.249961,98.76775 L45.249961,91.295 L37.7380541,91.295 L37.7380541,98.76775 Z M49.0046572,98.76775 L56.5215929,98.76775 L56.5215929,91.295 L49.0046572,91.295 L49.0046572,98.76775 Z M64.4989081,103.83775 L64.4989081,48.62725 L29.7559616,48.62725 L29.7559616,103.83775 L32.7558465,103.83775 L32.7558465,51.609 L61.4990232,51.609 L61.4990232,103.83775 L64.4989081,103.83775 Z" id="Fill-5"></path>
            <path d="M82.1226472,103.837675 L64.4989835,103.837675 L82.1226472,103.837675 Z M24.0534648,106.819675 L101.944617,106.819675 L101.944617,103.837675 L24.0534648,103.837675 L24.0534648,106.819675 Z M61.4990986,103.837675 L32.7559219,103.837675 L61.4990986,103.837675 Z" id="Fill-7"></path>
            <path d="M84.7708232,103.837675 L84.7708232,97.282175 C90.5478206,96.368675 95.0279102,90.281675 95.0279102,82.927675 C95.0279102,75.859175 90.4510176,62.339425 83.267235,62.339425 C76.0882296,62.339425 71.5065597,75.859175 71.5065597,82.927675 C71.5065597,90.281675 75.9914266,96.368675 81.7671668,97.282175 L81.7671668,103.837675 L84.7708232,103.837675 Z M83.267235,65.321425 C85.339069,65.321425 87.5300837,67.944925 89.2001227,71.458425 C87.4838195,71.087425 85.8374154,71.248425 84.3881374,71.954175 C84.0514644,72.119925 83.7326433,72.285425 83.4339371,72.440425 C81.9383948,73.216675 80.8587279,73.770925 79.068251,73.601925 C78.274467,73.527925 77.4490021,73.349425 76.6232857,73.082675 C78.3539208,68.789425 80.8861345,65.321425 83.267235,65.321425 Z M76.10231,74.482675 C77.0472071,74.793925 78.0076932,75.000425 78.9254352,75.087425 C79.1982435,75.115675 79.4557141,75.124925 79.7051388,75.124925 C81.4956157,75.124925 82.7226242,74.487425 84.1261409,73.766425 C84.4165497,73.614675 84.724559,73.455175 85.053186,73.294175 C86.7916157,72.440425 88.6047219,72.738675 89.9715289,73.234425 C90.6717786,75.009925 91.235247,76.913675 91.5955551,78.776175 C89.094771,78.106675 86.8331027,78.174925 84.7436681,78.992175 C84.3609823,79.142675 83.995897,79.289425 83.6451435,79.436425 C81.7588694,80.207675 80.2683558,80.812425 78.1361771,80.634175 C76.9918911,80.537925 75.8531367,80.326425 74.7360059,80.010425 C74.9944822,78.193675 75.473971,76.294675 76.10231,74.482675 Z M74.5102162,82.927675 C74.5102162,82.468425 74.5280681,81.996425 74.5657836,81.510175 C75.7010179,81.817925 76.8536012,82.024675 78.0122191,82.120925 C78.3121824,82.147925 78.6076199,82.157175 78.8887256,82.157175 C80.9238499,82.157175 82.4638964,81.529175 84.2131378,80.812425 C84.5593654,80.675425 84.9184163,80.528425 85.2928047,80.381675 C87.2761332,79.606425 89.3902085,79.611175 91.8530257,80.405175 C91.963909,81.276425 92.0287796,82.124425 92.0287796,82.927675 C92.0287796,83.941175 91.9274508,84.922925 91.7383708,85.858925 C89.2697705,85.165925 87.1614783,85.134425 85.3435948,85.758175 C84.6006009,86.015175 83.9358037,86.290175 83.2989159,86.556675 C81.6939989,87.230675 80.3095913,87.808425 78.3584467,87.685175 C77.301409,87.615675 76.2074103,87.432675 75.1232175,87.148425 C74.7309771,85.841425 74.5102162,84.419175 74.5102162,82.927675 Z M75.7563338,88.827925 C76.5996507,89.001675 77.4394475,89.121425 78.2613923,89.170675 C78.4778789,89.184925 78.6903424,89.194425 78.8935029,89.194425 C80.8682825,89.194425 82.3351611,88.580175 83.8802363,87.932925 C84.4992722,87.675925 85.1356571,87.409175 85.8326382,87.165925 C87.3870165,86.634175 89.1774935,86.676175 91.3639824,87.304675 C90.0492226,91.473675 86.9168309,94.419175 83.267235,94.419175 C80.0840531,94.419175 77.2870772,92.176175 75.7563338,88.827925 Z" id="Fill-8"></path>
        </g>
    </g>
</svg>