<?xml version="1.0" encoding="UTF-8"?>
<svg width="150px" height="150px" viewBox="0 0 150 150" version="1.1" xmlns="http://www.w3.org/2000/svg" xmlns:xlink="http://www.w3.org/1999/xlink">
    <!-- Generator: Sketch 51.2 (57519) - http://www.bohemiancoding.com/sketch -->
    <title>Events/TechExpo</title>
    <desc>Created with Sketch.</desc>
    <defs></defs>
    <g id="Events/TechExpo" stroke="none" stroke-width="1" fill="none" fill-rule="evenodd">
        <g id="Group" transform="translate(4.000000, 24.000000)" fill="#FFFFFF">
            <g id="Group-6" opacity="0.8" transform="translate(0.000000, 22.000000)">
                <polygon id="Path" points="20.0269465 39.364486 9.50747326 39.364486 9.50747326 9.0065796 0 9.0065796 0 0.397621071 29.5077882 0.397621071 29.5077882 9.0065796 20.0269465 9.0065796"></polygon>
                <polygon id="Path" points="56.623053 39.364486 33.4953271 39.364486 33.4953271 0.397621071 56.623053 0.397621071 56.623053 8.84666086 44.0200411 8.84666086 44.0200411 14.976879 55.6904834 14.976879 55.6904834 23.4259188 44.0200411 23.4259188 44.0200411 30.7821806 56.623053 30.7821806"></polygon>
                <path d="M78.4416169,8.57147218 C75.9578001,8.57147218 74.0200998,9.58998569 72.6284578,11.6270433 C71.2368157,13.6641009 70.5410051,16.472729 70.5410051,20.0530121 C70.5410051,27.4957679 73.3682861,31.21709 79.0229329,31.21709 C80.7316579,31.21709 82.3875109,30.978996 83.9905416,30.5028007 C85.5935723,30.0266054 87.2053867,29.453416 88.8260331,28.7832152 L88.8260331,37.619239 C85.602356,39.0478248 81.9559562,39.7621071 77.8867245,39.7621071 C72.0559205,39.7621071 67.5859981,38.0689937 64.4768232,34.6827161 C61.3676483,31.2964386 59.8130841,26.4022827 59.8130841,20.0001018 C59.8130841,15.996534 60.5661449,12.4780328 62.0722892,9.44449249 C63.5784334,6.41095219 65.7451347,4.07851215 68.5724581,2.4471024 C71.3997814,0.815692642 74.7246991,0 78.5473107,0 C82.7222368,0 86.712138,0.90828478 90.517134,2.72488159 L87.3198964,10.9524367 C85.8930229,10.2822359 84.4661709,9.71786478 83.0392974,9.25930637 C81.6124239,8.80074795 80.0798791,8.57147218 78.4416169,8.57147218 Z" id="Path"></path>
                <polygon id="Path" points="128 39.364486 117.513695 39.364486 117.513695 23.479225 105.389731 23.479225 105.389731 39.364486 94.9034268 39.364486 94.9034268 0.397621071 105.389731 0.397621071 105.389731 14.8436134 117.513695 14.8436134 117.513695 0.397621071 128 0.397621071"></polygon>
            </g>
            <g id="Group-4" transform="translate(9.000000, 63.000000)">
                <polygon id="Path" points="23.0655738 38.2777778 0 38.2777778 0 0.361111111 23.0655738 0.361111111 23.0655738 8.58244034 10.4964305 8.58244034 10.4964305 14.5474426 22.1355103 14.5474426 22.1355103 22.7687718 10.4964305 22.7687718 10.4964305 29.9267746 23.0655738 29.9267746"></polygon>
                <polygon id="Path" points="62.6065574 38.2777778 50.5497283 38.2777778 43.0306992 26.4255776 35.5908177 38.2777778 23.7978142 38.2777778 36.593355 18.878553 24.5629084 0.361111111 36.1184689 0.361111111 43.0834643 12.0836373 49.7846341 0.361111111 61.6831678 0.361111111 49.4680434 19.6825315"></polygon>
                <path d="M93.3606557,12.4207896 C93.3606557,16.6568269 92.0808581,19.9289005 89.5212244,22.2371086 C86.9615908,24.5453167 83.3259027,25.6994034 78.6140511,25.6994034 L75.6647301,25.6994034 L75.6647301,38.2777778 L65.1693989,38.2777778 L65.1693989,0.361111111 L78.6140511,0.361111111 C83.5207537,0.361111111 87.2051538,1.40713728 89.667362,3.49922101 C92.1295701,5.59130473 93.3606557,8.5651312 93.3606557,12.4207896 Z M75.6647301,17.3484002 L77.5778032,17.3484002 C79.154325,17.3484002 80.4075524,16.916158 81.3375231,16.0516606 C82.2674938,15.1871632 82.7324722,13.9941747 82.7324722,12.4726592 C82.7324722,9.9137469 81.2799683,8.63430993 78.374917,8.63430993 L75.6647301,8.63430993 L75.6647301,17.3484002 Z" id="Combined-Shape"></path>
                <path d="M134,19.4870432 C134,25.8618259 132.400021,30.7076246 129.200015,34.0245847 C126.000008,37.3415448 121.314987,39 115.144809,39 C109.063029,39 104.400106,37.332907 101.155901,33.9986711 C97.9116958,30.6644352 96.2896175,25.8099987 96.2896175,19.4352159 C96.2896175,13.1295366 97.9028561,8.31397012 101.129382,4.98837209 C104.355907,1.66277407 109.045349,0 115.197847,0 C121.368025,0 126.044207,1.64981739 129.226534,4.94950166 C132.408861,8.24918593 134,13.0949847 134,19.4870432 Z M107.321628,19.4870432 C107.321628,26.8119968 109.929329,30.4744186 115.144809,30.4744186 C117.796748,30.4744186 119.763573,29.5847265 121.045343,27.8053156 C122.327114,26.0259047 122.967989,23.253175 122.967989,19.4870432 C122.967989,15.7036356 122.318274,12.9093114 121.018824,11.1039867 C119.719374,9.29866207 117.779068,8.39601329 115.197847,8.39601329 C109.947008,8.39601329 107.321628,12.0929863 107.321628,19.4870432 Z" id="Combined-Shape"></path>
            </g>
            <path d="M9,19.3989564 L12.5072261,1.54529382 L10.0942545,1.54529382 L10.4028904,0 L14.723793,0 L13.2647869,7.53330739 C13.1244979,8.16798164 12.9000354,8.77506135 12.9000354,8.77506135 L12.956151,8.77506135 C13.545365,7.64368552 15.8180475,5.18777212 19.128869,5.18777212 C21.6260139,5.18777212 23.0289044,6.45712062 23.0289044,8.77506135 C23.0289044,10.4583278 21.7101874,15.5357218 21.7101874,16.6119086 C21.7101874,17.7984735 22.3835748,17.9088516 23.0569622,17.9088516 C23.5058871,17.9088516 23.7584074,17.8536626 23.7584074,17.8536626 L23.4497715,19.3989564 C23.4497715,19.3989564 22.8886153,19.4541455 22.4116326,19.4541455 C21.4015515,19.4541455 19.7180829,19.1782001 19.7180829,17.0810157 C19.7180829,15.8392617 21.0368,10.8170568 21.0368,9.27176294 C21.0368,7.69887458 20.1108923,6.95382221 18.6518862,6.95382221 C15.4813538,6.95382221 12.7878042,9.76846453 12.1424746,13.0246194 L10.907931,19.3989564 L9,19.3989564 Z M24.1979797,16.2531797 C24.1979797,11.8104599 29.8937149,10.8998404 33.7656925,10.8998404 L34.6916002,10.8998404 C34.6916002,10.8998404 34.9160627,9.82365359 34.9160627,9.32695201 C34.9160627,7.86444178 34.1865597,6.84344408 32.0261084,6.84344408 C29.6973103,6.84344408 27.7893793,8.14038711 27.7893793,8.14038711 L27.2001653,6.62268781 C27.2001653,6.62268781 29.3886744,5.18777212 32.3347443,5.18777212 C35.0282939,5.18777212 36.8520515,6.37433702 36.8520515,9.05100668 C36.8520515,10.6790841 35.4491611,15.4529382 35.4491611,16.6119086 C35.4491611,17.770879 36.1225485,17.9088516 36.7678781,17.9088516 C37.2448608,17.9088516 37.4973811,17.8536626 37.4973811,17.8536626 L37.1887452,19.3989564 C37.1887452,19.3989564 36.627589,19.4541455 36.1225485,19.4541455 C34.4671378,19.4541455 33.4289988,18.5987149 33.5692879,16.7498813 L33.5131723,16.7498813 C33.5412301,16.7498813 31.6613569,19.7300908 28.3224776,19.7300908 C26.0497951,19.7300908 24.1979797,18.4883368 24.1979797,16.2531797 Z M26.1339686,15.9772344 C26.1339686,17.1637993 26.9195872,18.184797 28.7994604,18.184797 C31.4368944,18.184797 33.6534613,15.3149656 34.2707331,12.9142412 L34.4110221,12.3071615 L33.5973457,12.3071615 C31.2404897,12.3071615 26.1339686,12.5555123 26.1339686,15.9772344 Z M39.3679017,19.3989564 L41.6966998,7.67128005 C41.7528154,7.34014566 41.6405842,7.06420034 41.1916593,7.06420034 L39.2837283,7.06420034 L39.5923642,5.51890651 L42.2859138,5.51890651 C43.3521105,5.51890651 43.716862,5.9328245 43.716862,6.65028235 C43.716862,6.95382221 43.4923996,8.27835977 43.2398793,8.85784495 L43.2959949,8.85784495 C43.8571511,7.67128005 46.1017758,5.18777212 49.5809441,5.18777212 C52.0500313,5.18777212 53.4248639,6.45712062 53.4248639,8.74746682 C53.4248639,10.4583278 52.1061469,15.5081273 52.1061469,16.6119086 C52.1061469,17.7984735 52.7795343,17.9088516 53.4529217,17.9088516 C53.9018466,17.9088516 54.1543669,17.8536626 54.1543669,17.8536626 L53.845731,19.3989564 C53.845731,19.3989564 53.2845748,19.4541455 52.8075921,19.4541455 C51.797511,19.4541455 50.1140424,19.1782001 50.1140424,17.0810157 C50.1140424,15.8392617 51.4327595,10.8170568 51.4327595,9.27176294 C51.4327595,7.69887458 50.5629674,6.95382221 48.9917301,6.95382221 C45.9614867,6.95382221 43.1557059,9.76846453 42.5384341,13.0246194 L41.2758327,19.3989564 L39.3679017,19.3989564 Z M55.4637313,14.1559952 C55.4637313,8.85784495 59.1673621,5.18777212 63.1796287,5.18777212 C65.1436753,5.18777212 66.9113173,6.0983917 67.5285891,7.97481991 L67.5847047,7.97481991 C67.5847047,7.97481991 67.6127625,7.39533473 67.6969359,6.81584954 L68.7350749,1.54529382 L66.2098721,1.54529382 L66.5465658,0 L70.9796996,0 L67.837225,15.8116672 C67.7811094,16.115207 67.7530516,16.3911523 67.7530516,16.6119086 C67.7530516,17.770879 68.426439,17.9088516 69.0998264,17.9088516 C69.5768091,17.9088516 69.8012716,17.8536626 69.8012716,17.8536626 L69.4926357,19.3989564 C69.4926357,19.3989564 68.9034217,19.4541455 68.4825546,19.4541455 C66.7710283,19.4541455 65.6767737,18.5711204 65.929294,16.7774758 L65.8731784,16.7774758 C64.9192129,18.2951751 63.0112819,19.7300908 60.6824837,19.7300908 C57.3155467,19.7300908 55.4637313,17.5777172 55.4637313,14.1559952 Z M57.4277779,14.0456171 C57.4277779,16.529125 58.7464949,18.0468243 60.9911196,18.0468243 C64.4983457,18.0468243 66.7990861,14.2387788 66.7990861,10.8170568 C66.7990861,8.66468322 65.7048315,6.89863314 63.2638022,6.89863314 C60.5421947,6.89863314 57.4277779,9.5753028 57.4277779,14.0456171 Z M70.7178267,16.4463414 L70.970347,15.0942093 L72.7099311,15.0942093 L72.5135264,16.1428015 C72.1768327,17.8536626 74.7020355,18.1020134 75.9085213,18.1020134 C77.8164523,18.1020134 79.6121521,17.2189883 79.6121521,15.6461 C79.6121521,12.6658904 72.7099311,13.4385374 72.7099311,9.32695201 C72.7099311,6.65028235 75.515712,5.18777212 78.3776085,5.18777212 C80.6783488,5.18777212 82.9229735,6.15358076 82.5301642,8.00241444 L82.2215283,9.4925192 L80.4538863,9.4925192 L80.7064066,8.33354883 C80.9589269,7.09179487 79.1912849,6.81584954 78.0409148,6.81584954 C76.3855041,6.81584954 74.6178621,7.61609099 74.6178621,9.16138481 C74.6178621,12.1139998 81.5481409,11.2585693 81.5481409,15.3425601 C81.5481409,17.8536626 79.2193427,19.7300908 75.5998854,19.7300908 C73.1869139,19.7300908 70.2408439,18.7642821 70.7178267,16.4463414 Z M84.8215519,12.4175397 L85.1301878,10.7066786 L93.0986055,10.7066786 L92.7899696,12.4175397 L84.8215519,12.4175397 Z M95.3338776,13.6592936 C95.3338776,8.91303402 99.5986645,5.18777212 104.172087,5.18777212 C107.875718,5.18777212 110.457037,7.67128005 110.457037,11.1757857 C110.457037,15.9772344 106.136134,19.7300908 101.618827,19.7300908 C97.8871382,19.7300908 95.3338776,17.2189883 95.3338776,13.6592936 Z M97.2979242,13.6041046 C97.2979242,16.1979906 99.1216818,18.0468243 101.787174,18.0468243 C105.097995,18.0468243 108.49299,15.0666148 108.49299,11.2585693 C108.49299,8.69227776 106.641175,6.87103861 103.975683,6.87103861 C100.580688,6.87103861 97.2979242,9.85124812 97.2979242,13.6041046 Z M111.850574,19.3989564 L114.179372,7.67128005 C114.235488,7.34014566 114.123257,7.06420034 113.674332,7.06420034 L111.766401,7.06420034 L112.075037,5.51890651 L114.768586,5.51890651 C115.834783,5.51890651 116.199535,5.9328245 116.199535,6.65028235 C116.199535,6.95382221 115.975072,8.27835977 115.722552,8.85784495 L115.778668,8.85784495 C116.339824,7.67128005 118.584448,5.18777212 122.063617,5.18777212 C124.532704,5.18777212 125.907537,6.45712062 125.907537,8.74746682 C125.907537,10.4583278 124.58882,15.5081273 124.58882,16.6119086 C124.58882,17.7984735 125.262207,17.9088516 125.935594,17.9088516 C126.384519,17.9088516 126.63704,17.8536626 126.63704,17.8536626 L126.328404,19.3989564 C126.328404,19.3989564 125.767247,19.4541455 125.290265,19.4541455 C124.280184,19.4541455 122.596715,19.1782001 122.596715,17.0810157 C122.596715,15.8392617 123.915432,10.8170568 123.915432,9.27176294 C123.915432,7.69887458 123.04564,6.95382221 121.474403,6.95382221 C118.444159,6.95382221 115.638379,9.76846453 115.021107,13.0246194 L113.758505,19.3989564 L111.850574,19.3989564 Z" id="hands-on-TECH-EXPO"></path>
        </g>
    </g>
</svg>