<?xml version="1.0" encoding="UTF-8"?>
<svg width="150px" height="150px" viewBox="0 0 150 150" version="1.1" xmlns="http://www.w3.org/2000/svg" xmlns:xlink="http://www.w3.org/1999/xlink">
    <!-- Generator: Sketch 51.2 (57519) - http://www.bohemiancoding.com/sketch -->
    <title>Events/YourDigitalLife</title>
    <desc>Created with Sketch.</desc>
    <defs>
        <polygon id="path-1" points="0.300196774 0.342850746 28.9129065 0.342850746 28.9129065 30.9438299 0.300196774 30.9438299"></polygon>
        <polygon id="path-3" points="0 93 143 93 143 0 0 0"></polygon>
    </defs>
    <g id="Events/YourDigitalLife" stroke="none" stroke-width="1" fill="none" fill-rule="evenodd">
        <g id="Group-23" transform="translate(4.000000, 29.000000)">
            <polygon id="Fill-1" fill="#FFFFFF" opacity="0.7" points="12.5 13.3529137 18.4662227 1 25 1 15.5127132 19.3241502 15.5127132 31 9.48728678 31 9.48728678 19.529604 0 1 6.57294968 1"></polygon>
            <g id="Group-5" opacity="0.7" transform="translate(24.000000, 0.000000)">
                <mask id="mask-2" fill="white">
                    <use xlink:href="#path-1"></use>
                </mask>
                <g id="Clip-4"></g>
                <path d="M6.9804871,15.6330687 C6.9804871,18.9542328 7.61755161,21.4550537 8.89214839,23.135994 C10.1667452,24.8169343 12.0713903,25.6571731 14.6065516,25.6571731 C19.6904387,25.6571731 22.2321484,22.3156507 22.2321484,15.6330687 C22.2321484,8.93660597 19.7040032,5.58860597 14.6477129,5.58860597 C12.1125516,5.58860597 10.2008903,6.43254627 8.91272903,8.11996418 C7.62456774,9.80784478 6.9804871,12.3119045 6.9804871,15.6330687 M28.9129065,15.6330687 C28.9129065,20.5537403 27.679471,24.3357403 25.2126,26.978606 C22.7461968,29.6219343 19.2105355,30.9438299 14.6065516,30.9438299 C10.0021,30.9438299 6.46643871,29.6219343 4.00003548,26.978606 C1.53316452,24.3357403 0.300196774,20.5403224 0.300196774,15.5923522 C0.300196774,10.6448448 1.53643871,6.86654627 4.01032581,4.25699403 C6.48374516,1.64744179 10.0296968,0.342665672 14.6477129,0.342665672 C19.265729,0.342665672 22.7976484,1.6576209 25.243471,4.28753134 C27.6897613,6.91744179 28.9129065,10.6989791 28.9129065,15.6330687" id="Fill-3" fill="#FFFFFF" mask="url(#mask-2)"></path>
            </g>
            <path d="M80,1 L80,20.1496614 C80,22.3358515 79.5166686,24.2525681 78.5500057,25.8988899 C77.5828877,27.5452117 76.1865969,28.8069004 74.3597679,29.6844166 C72.533394,30.5614722 70.3734213,31 67.8798498,31 C64.1196951,31 61.1996814,30.0252891 59.1198089,28.0749459 C57.0399363,26.1246027 56,23.4561242 56,20.0685891 L56,1 L62.1799977,1 L62.1799977,19.1173707 C62.1799977,21.3979916 62.6332916,23.0719517 63.5398794,24.1374084 C64.4464672,25.2037864 65.9465241,25.7367451 68.0400501,25.7367451 C70.0666743,25.7367451 71.5362385,25.200562 72.449653,24.127735 C73.3630675,23.0544475 73.8200023,21.3712746 73.8200023,19.0768345 L73.8200023,1 L80,1 Z" id="Fill-6" fill="#FFFFFF" opacity="0.7"></path>
            <path d="M90.1044459,14.3174057 L92.0738388,14.3174057 C94.003351,14.3174057 95.4278561,13.9821476 96.3469062,13.3120982 C97.2655081,12.6420489 97.7252572,11.5881804 97.7252572,10.1518934 C97.7252572,8.72914754 97.2556499,7.71730299 96.3173317,7.11495899 C95.3785653,6.51308192 93.9244857,6.21237685 91.9555408,6.21237685 L90.1044459,6.21237685 L90.1044459,14.3174057 Z M90.1044459,19.4882255 L90.1044459,31 L84,31 L84,1 L92.3888521,1 C96.300752,1 99.1954684,1.74242401 101.073001,3.22680509 C102.950086,4.71118617 103.888852,6.96460645 103.888852,9.98799981 C103.888852,11.7525409 103.42283,13.3223708 102.490785,14.6970225 C101.55874,16.0716743 100.23909,17.1488895 98.5327307,17.9286682 C102.864947,24.6730533 105.687071,29.0300082 107,31 L100.226095,31 L93.3536082,19.4882255 L90.1044459,19.4882255 Z" id="Fill-8" fill="#FFFFFF" opacity="0.7"></path>
            <path d="M20.6291155,47.8767277 C20.6291155,41.4334143 17.8853578,38.211991 12.3982928,38.211991 L9.13360848,38.211991 L9.13360848,57.7469182 L11.7652565,57.7469182 C17.6746459,57.7469182 20.6291155,54.4568547 20.6291155,47.8767277 M27,47.7123646 C27,52.6511954 25.64478,56.4334143 22.9343401,59.0599552 C20.22345,61.6864961 16.3090704,63 11.1912016,63 L3,63 L3,33 L12.0817747,33 C16.8038833,33 20.4706313,34.2924916 23.0824688,36.8779417 C25.6943064,39.4633919 27,43.0751774 27,47.7123646" id="Fill-10" fill="#FFFFFF"></path>
            <mask id="mask-4" fill="white">
                <use xlink:href="#path-3"></use>
            </mask>
            <g id="Clip-13"></g>
            <polygon id="Fill-12" fill="#FFFFFF" mask="url(#mask-4)" points="31 63 37 63 37 33 31 33"></polygon>
            <path d="M52.4000455,46.213626 L64,46.213626 L64,61.3435276 C62.1199226,61.9557911 60.3499829,62.3845572 58.6901809,62.6307343 C57.0299238,62.8769114 55.3332575,63 53.600182,63 C49.1864831,63 45.8163614,61.7059803 43.4902719,59.117941 C41.1632723,56.5299016 40,52.813626 40,47.9700227 C40,43.2595004 41.3498692,39.5868282 44.0500626,36.9520061 C46.7498009,34.3176382 50.4935715,33 55.2800091,33 C58.2801229,33 61.1732848,33.5990916 63.9599499,34.7963664 L61.9001024,39.746707 C59.7669815,38.682059 57.5469337,38.149735 55.239959,38.149735 C52.5602458,38.149735 50.4134714,39.0481453 48.800091,40.8445117 C47.1867107,42.6408781 46.3797929,45.0558668 46.3797929,48.0899319 C46.3797929,51.257078 47.0296962,53.6757002 48.330413,55.3453444 C49.6297645,57.0154428 51.5198544,57.850265 54.0002276,57.850265 C55.2932074,57.850265 56.6066674,57.7176382 57.9401525,57.451022 L57.9401525,51.3633611 L52.4000455,51.3633611 L52.4000455,46.213626 Z" id="Fill-14" fill="#FFFFFF" mask="url(#mask-4)"></path>
            <polygon id="Fill-15" fill="#FFFFFF" mask="url(#mask-4)" points="68 63 74 63 74 33 68 33"></polygon>
            <polygon id="Fill-16" fill="#FFFFFF" mask="url(#mask-4)" points="90.0887973 63 83.9112027 63 83.9112027 38.2940902 76 38.2940902 76 33 98 33 98 38.2940902 90.0887973 38.2940902"></polygon>
            <path d="M113.450809,50.5748698 C111.439327,44.1309524 110.307255,40.4865141 110.054594,39.6415551 C109.800998,38.797061 109.619792,38.1292783 109.510041,37.6391369 C109.058894,39.3829985 107.765698,43.6952195 105.631387,50.5748698 L113.450809,50.5748698 Z M117.144988,63 L114.969579,55.8882999 L104.030421,55.8882999 L101.855012,63 L95,63 L105.590289,33 L113.368613,33 L124,63 L117.144988,63 Z" id="Fill-17" fill="#FFFFFF" mask="url(#mask-4)"></path>
            <polygon id="Fill-18" fill="#FFFFFF" mask="url(#mask-4)" points="124 63 124 33 130.179321 33 130.179321 57.747 142 57.747 142 63"></polygon>
            <polygon id="Fill-19" fill="#FFFFFF" opacity="0.7" mask="url(#mask-4)" points="3 94 3 64 9.17932112 64 9.17932112 88.7469182 21 88.7469182 21 94"></polygon>
            <polygon id="Fill-20" fill="#FFFFFF" opacity="0.7" mask="url(#mask-4)" points="24 94 30 94 30 64 24 64"></polygon>
            <polygon id="Fill-21" fill="#FFFFFF" opacity="0.7" mask="url(#mask-4)" points="40.1872318 94 34 94 34 64 51 64 51 69.211991 40.1872318 69.211991 40.1872318 76.947796 50.249389 76.947796 50.249389 82.1397086 40.1872318 82.1397086"></polygon>
            <polygon id="Fill-22" fill="#FFFFFF" opacity="0.7" mask="url(#mask-4)" points="71 94 54 94 54 64 71 64 71 69.211991 60.2588779 69.211991 60.2588779 75.7991222 70.2529593 75.7991222 70.2529593 81.0111132 60.2588779 81.0111132 60.2588779 88.7469182 71 88.7469182"></polygon>
        </g>
    </g>
</svg>