<?xml version="1.0" encoding="UTF-8"?>
<svg width="150px" height="150px" viewBox="0 0 150 150" version="1.1" xmlns="http://www.w3.org/2000/svg" xmlns:xlink="http://www.w3.org/1999/xlink">
    <!-- Generator: Sketch 50.2 (55047) - http://www.bohemiancoding.com/sketch -->
    <title>Icons/Events-Rev</title>
    <desc>Created with Sketch.</desc>
    <defs></defs>
    <g id="Icons/Events-Rev" stroke="none" stroke-width="1" fill="none" fill-rule="evenodd">
        <rect id="Rectangle-5" stroke="#FFFFFF" stroke-width="0.9" x="27.45" y="34.45" width="96.1" height="96.1" rx="10"></rect>
        <path d="M27.45,59.55 L123.55,59.55 L123.55,44 C123.55,38.7256806 119.274319,34.45 114,34.45 L37,34.45 C31.7256806,34.45 27.45,38.7256806 27.45,44 L27.45,59.55 Z" id="Rectangle-5-Copy" stroke="#FFFFFF" stroke-width="0.9"></path>
        <path d="M104.258929,111.875 L95.5982143,111.875 C94.1691964,111.875 93,110.704297 93,109.273438 L93,100.601562 C93,99.1707031 94.1691964,98 95.5982143,98 L104.258929,98 C105.687946,98 106.857143,99.1707031 106.857143,100.601562 L106.857143,109.273438 C106.857143,110.704297 105.687946,111.875 104.258929,111.875 Z" id="Path-Copy-6" stroke="#FFFFFF" stroke-width="0.9"></path>
        <path d="M56.2589286,111.875 L47.5982143,111.875 C46.1691964,111.875 45,110.704297 45,109.273438 L45,100.601562 C45,99.1707031 46.1691964,98 47.5982143,98 L56.2589286,98 C57.6879464,98 58.8571429,99.1707031 58.8571429,100.601562 L58.8571429,109.273438 C58.8571429,110.704297 57.6879464,111.875 56.2589286,111.875 Z" id="Path-Copy-4" stroke="#FFFFFF" stroke-width="0.9"></path>
        <path d="M104.258929,89.875 L95.5982143,89.875 C94.1691964,89.875 93,88.7042969 93,87.2734375 L93,78.6015625 C93,77.1707031 94.1691964,76 95.5982143,76 L104.258929,76 C105.687946,76 106.857143,77.1707031 106.857143,78.6015625 L106.857143,87.2734375 C106.857143,88.7042969 105.687946,89.875 104.258929,89.875 Z" id="Path-Copy-3" stroke="#FFFFFF" stroke-width="0.9"></path>
        <path d="M80.2589286,89.875 L71.5982143,89.875 C70.1691964,89.875 69,88.7042969 69,87.2734375 L69,78.6015625 C69,77.1707031 70.1691964,76 71.5982143,76 L80.2589286,76 C81.6879464,76 82.8571429,77.1707031 82.8571429,78.6015625 L82.8571429,87.2734375 C82.8571429,88.7042969 81.6879464,89.875 80.2589286,89.875 Z" id="Path-Copy-2" stroke="#FFFFFF" stroke-width="0.9"></path>
        <path d="M56.2589286,89.875 L47.5982143,89.875 C46.1691964,89.875 45,88.7042969 45,87.2734375 L45,78.6015625 C45,77.1707031 46.1691964,76 47.5982143,76 L56.2589286,76 C57.6879464,76 58.8571429,77.1707031 58.8571429,78.6015625 L58.8571429,87.2734375 C58.8571429,88.7042969 57.6879464,89.875 56.2589286,89.875 Z" id="Path-Copy" stroke="#FFFFFF" stroke-width="0.9"></path>
        <path d="M80.2589286,111.875 L71.5982143,111.875 C70.1691964,111.875 69,110.704297 69,109.273438 L69,100.601562 C69,99.1707031 70.1691964,98 71.5982143,98 L80.2589286,98 C81.6879464,98 82.8571429,99.1707031 82.8571429,100.601562 L82.8571429,109.273438 C82.8571429,110.704297 81.6879464,111.875 80.2589286,111.875 Z" id="Path-Copy-5" stroke="#FFFFFF" stroke-width="0.9"></path>
        <path d="M45.45,33.55 L51.55,33.55 L51.55,22.5 C51.55,20.8155315 50.1844685,19.45 48.5,19.45 C46.8155315,19.45 45.45,20.8155315 45.45,22.5 L45.45,33.55 Z" id="Rectangle-8" stroke="#FFFFFF" stroke-width="0.9"></path>
        <path d="M100.45,33.55 L106.55,33.55 L106.55,22.5 C106.55,20.8155315 105.184468,19.45 103.5,19.45 C101.815532,19.45 100.45,20.8155315 100.45,22.5 L100.45,33.55 Z" id="Rectangle-8-Copy" stroke="#FFFFFF" stroke-width="0.9"></path>
    </g>
</svg>