<?xml version="1.0" encoding="UTF-8"?>
<svg width="150px" height="150px" viewBox="0 0 150 150" version="1.1" xmlns="http://www.w3.org/2000/svg" xmlns:xlink="http://www.w3.org/1999/xlink">
    <!-- Generator: Sketch 50.2 (55047) - http://www.bohemiancoding.com/sketch -->
    <title>Tasks/Guest-Speaker Copy</title>
    <desc>Created with Sketch.</desc>
    <defs></defs>
    <g id="Tasks/Guest-Speaker-Copy" stroke="none" stroke-width="1" fill="none" fill-rule="evenodd">
        <polygon id="Stroke-57" stroke="#FFFFFF" stroke-width="0.9" points="39 80.9355 111.0165 80.9355 111.0165 69 39 69"></polygon>
        <polyline id="Stroke-59" stroke="#FFFFFF" stroke-width="0.9" points="93.3855 81 93.3855 127.173 55.5 127.173 55.5 81"></polyline>
        <polyline id="Stroke-60" stroke="#FFFFFF" stroke-width="0.9" points="45 68.4765 45 52.5 53.37 45"></polyline>
        <path d="M56.031,43.767 C56.031,44.7405 55.242,45.5325 54.2655,45.5325 C53.2905,45.5325 52.5,44.7405 52.5,43.767 C52.5,42.792 53.2905,42 54.2655,42 C55.242,42 56.031,42.792 56.031,43.767 Z" id="Stroke-61" stroke="#FFFFFF" stroke-width="0.9"></path>
        <path d="M83.6295,33.564 C83.6295,38.8455 79.3485,43.1295 74.0655,43.1295 C68.7825,43.1295 64.5,38.8455 64.5,33.564 C64.5,28.2825 68.7825,24 74.0655,24 C79.3485,24 83.6295,28.2825 83.6295,33.564 Z" id="Stroke-62" stroke="#FFFFFF" stroke-width="0.9"></path>
        <path d="M58.5,69.5295 L58.5,57.7905 C58.5,57.7905 61.056,49.5 74.0175,49.5 C86.976,49.5 89.5845,57.7905 89.5845,57.7905 L89.5845,69.5295" id="Stroke-63" stroke="#FFFFFF" stroke-width="0.9"></path>
    </g>
</svg>