<?xml version="1.0" encoding="UTF-8"?>
<svg width="150px" height="150px" viewBox="0 0 150 150" version="1.1" xmlns="http://www.w3.org/2000/svg" xmlns:xlink="http://www.w3.org/1999/xlink">
    <!-- Generator: Sketch 50.2 (55047) - http://www.bohemiancoding.com/sketch -->
    <title>Events/ICDE</title>
    <desc>Created with Sketch.</desc>
    <defs></defs>
    <g id="Events/ICDE" stroke="none" stroke-width="1" fill="none" fill-rule="evenodd">
        <g id="Group-2" transform="translate(22.000000, 18.000000)" fill="#FFFFFF">
            <path d="M12.0187749,76.3350278 L15.5005545,76.3350278 C16.0782282,76.3350278 16.6007525,76.4032973 17.0681431,76.5398384 C17.5355336,76.6763794 17.9346476,76.8759364 18.2654971,77.1385154 C18.5963466,77.4010944 18.8510444,77.7188101 19.0295981,78.0916723 C19.2081518,78.4645344 19.2974273,78.8925317 19.2974273,79.375677 C19.2974273,79.9428475 19.1923973,80.4312371 18.9823341,80.8408603 C18.772271,81.2504834 18.4860642,81.5892052 18.1237052,81.8570358 C17.7613462,82.1248663 17.3386005,82.3244233 16.8554552,82.4557128 C16.3723099,82.5870023 15.8576628,82.652646 15.3114986,82.652646 L14.1771631,82.652646 L14.1771631,86.2604629 L12.0187749,86.2604629 L12.0187749,76.3350278 Z M14.1771631,80.9984069 L15.059424,80.9984069 C15.3325062,80.9984069 15.5924554,80.9747751 15.8392797,80.9275109 C16.0861039,80.8802467 16.3014154,80.7962227 16.4852207,80.6754363 C16.669026,80.55465 16.8134422,80.397105 16.9184738,80.2027966 C17.0235054,80.0084881 17.0760204,79.7642934 17.0760204,79.4702049 C17.0760204,78.9555502 16.9027209,78.5774421 16.5561166,78.3358695 C16.2095124,78.0942968 15.7683864,77.9735123 15.2327253,77.9735123 L14.1771631,77.9735123 L14.1771631,80.9984069 Z M20.6550485,76.3350278 L24.420412,76.3350278 C24.9770794,76.3350278 25.4680947,76.4164261 25.8934726,76.579225 C26.3188505,76.742024 26.6733268,76.962587 26.9569121,77.2409207 C27.2404973,77.5192544 27.4531831,77.8448474 27.5949757,78.2177095 C27.7367684,78.5905717 27.8076636,78.9923115 27.8076636,79.422941 C27.8076636,79.822061 27.7472714,80.1765373 27.6264851,80.4863804 C27.5056987,80.7962236 27.3534052,81.0640501 27.1696,81.289868 C26.9857947,81.5156859 26.7809862,81.70474 26.5551683,81.8570358 C26.3293503,82.0093316 26.1114131,82.1327418 25.9013499,82.2272702 L28.3275674,86.2604629 L25.8540859,86.2604629 L23.9477722,82.6053821 L22.7976821,82.6053821 L22.7976821,86.2604629 L20.6550485,86.2604629 L20.6550485,76.3350278 Z M22.7976821,80.9511429 L23.6484337,80.9511429 C24.2156042,80.9511429 24.680362,80.8356099 25.042721,80.6045404 C25.40508,80.3734709 25.5862567,79.9901114 25.5862567,79.4544503 C25.5862567,78.9818081 25.4418405,78.6168289 25.1530036,78.3595015 C24.8641667,78.1021741 24.441421,77.9735123 23.8847536,77.9735123 L22.7976821,77.9735123 L22.7976821,80.9511429 Z M29.4646233,76.3350278 L35.9240335,76.3350278 L35.9240335,78.0050216 L31.6230116,78.0050216 L31.6230116,80.2736925 L35.5144124,80.2736925 L35.5144124,81.9279317 L31.6230116,81.9279317 L31.6230116,84.5904691 L35.9712975,84.5904691 L35.9712975,86.2604629 L29.4646233,86.2604629 L29.4646233,76.3350278 Z M40.637397,76.1617266 C41.2780897,76.1617266 41.8452518,76.2247446 42.3389002,76.3507825 C42.8325487,76.4768204 43.2736747,76.6396169 43.6622916,76.8391769 L43.1738971,78.4461521 C42.7432676,78.2360889 42.3283991,78.0759182 41.9292791,77.965635 C41.530159,77.8553518 41.141548,77.8002111 40.7634343,77.8002111 C40.2592827,77.8002111 39.8680459,77.8999896 39.5897122,78.0995496 C39.3113785,78.2991096 39.1722138,78.5669361 39.1722138,78.9030372 C39.1722138,79.2496414 39.2929983,79.5122165 39.5345709,79.6907702 C39.7761436,79.8693239 40.1647546,80.0426234 40.7004157,80.2106739 L41.6456952,80.5100124 C42.4334321,80.7725914 43.0504834,81.1454479 43.4968676,81.6285932 C43.9432519,82.1117385 44.1664406,82.7051581 44.1664406,83.4088697 C44.1664406,83.828996 44.0876681,84.2228585 43.9301208,84.5904691 C43.7725734,84.9580796 43.5362559,85.2784212 43.2211611,85.5515033 C42.9060663,85.8245854 42.5122038,86.0398969 42.0395617,86.1974443 C41.5669195,86.3549917 41.015512,86.4337642 40.3853225,86.4337642 C39.1984656,86.4337642 38.111405,86.1921952 37.1241081,85.7090499 L37.6125025,84.1020747 C38.0641383,84.322641 38.5052644,84.4933148 38.9358939,84.6141011 C39.3665234,84.7348874 39.8181524,84.7952797 40.2907945,84.7952797 C40.8474619,84.7952797 41.267582,84.6928754 41.5511673,84.4880638 C41.8347525,84.2832522 41.976543,83.9970454 41.976543,83.6294349 C41.976543,83.503397 41.9529113,83.3799867 41.9056471,83.2592004 C41.8583829,83.1384141 41.7717331,83.0228811 41.6456952,82.9125979 C41.5196573,82.8023147 41.3489835,82.6920332 41.1336688,82.5817501 C40.918354,82.4714669 40.6373988,82.3638112 40.2907945,82.2587796 L39.4557976,81.9751957 C39.0881871,81.8491578 38.752091,81.7021158 38.4474994,81.5340653 C38.1429078,81.3660147 37.8829586,81.1717092 37.6676438,80.9511429 C37.4523291,80.7305765 37.2842811,80.4706273 37.1634947,80.1712873 C37.0427084,79.8719472 36.9823162,79.5227225 36.9823162,79.1236024 C36.9823162,78.6929729 37.0610887,78.2964847 37.218636,77.9341257 C37.3761834,77.5717667 37.6098752,77.2593024 37.9197184,76.9967235 C38.2295615,76.7341445 38.6129211,76.529336 39.0698085,76.3822918 C39.5266959,76.2352476 40.0492202,76.1617266 40.637397,76.1617266 Z M47.8399967,76.3350278 L47.8399967,86.2604629 L45.6816084,86.2604629 L45.6816084,76.3350278 L47.8399967,76.3350278 Z M53.3095838,76.3350278 C54.0763144,76.3350278 54.774764,76.4348063 55.4049535,76.6343663 C56.035143,76.8339263 56.5760475,77.1332619 57.0276834,77.5323819 C57.4793192,77.9315019 57.8285439,78.4277687 58.0753682,79.0211972 C58.3221924,79.6146256 58.4456027,80.3051979 58.4456027,81.0929348 C58.4456027,81.9962064 58.2985606,82.7708028 58.0044722,83.416747 C57.7103838,84.0626912 57.3112697,84.5983443 56.8071181,85.0237222 C56.3029665,85.4491001 55.7121727,85.7615644 55.034719,85.9611244 C54.3572653,86.1606844 53.6404355,86.2604629 52.884208,86.2604629 L49.8435589,86.2604629 L49.8435589,76.3350278 L53.3095838,76.3350278 Z M52.0019471,84.5904691 L52.7424161,84.5904691 C53.1835488,84.5904691 53.6115461,84.5353283 54.0264208,84.4250452 C54.4412956,84.314762 54.8062749,84.125708 55.1213696,83.8578775 C55.4364644,83.5900469 55.6885364,83.2329449 55.8775933,82.7865606 C56.0666501,82.3401764 56.1611771,81.7756401 56.1611771,81.0929348 C56.1611771,80.0951347 55.8775961,79.3310414 55.3104255,78.8006319 C54.743255,78.2702224 53.9817874,78.0050216 53.026,78.0050216 L52.0019471,78.0050216 L52.0019471,84.5904691 Z M59.9607704,76.3350278 L66.4201806,76.3350278 L66.4201806,78.0050216 L62.1191587,78.0050216 L62.1191587,80.2736925 L66.0105595,80.2736925 L66.0105595,81.9279317 L62.1191587,81.9279317 L62.1191587,84.5904691 L66.4674446,84.5904691 L66.4674446,86.2604629 L59.9607704,86.2604629 L59.9607704,76.3350278 Z M67.9195937,76.3350278 L69.8889261,76.3350278 L73.3076871,81.5655746 C73.5387565,81.922682 73.7514423,82.2719067 73.9457507,82.6132594 C74.1400592,82.954612 74.2792239,83.2198128 74.3632492,83.4088697 L74.3947585,83.4088697 C74.3317396,82.7261644 74.3002306,82.0460951 74.3002306,81.3686413 L74.3002306,76.3350278 L76.3010723,76.3350278 L76.3010723,86.2604629 L74.3317399,86.2604629 L71.1492988,81.4395373 C71.0127577,81.2294741 70.8788445,81.0115369 70.747555,80.785719 C70.6162655,80.559901 70.4928552,80.3419638 70.3773205,80.1319006 C70.2617858,79.9218374 70.1593815,79.7301577 70.0701046,79.5568556 C69.9808278,79.3835534 69.915184,79.2391372 69.8731714,79.1236024 L69.8416621,79.1236024 C69.8941779,79.8483204 69.9230611,80.5441442 69.9283127,81.2110947 C69.9335643,81.8780453 69.93619,82.5581146 69.93619,83.2513231 L69.93619,86.2604629 L67.9195937,86.2604629 L67.9195937,76.3350278 Z M85.0633831,76.3350278 L85.0633831,78.036531 L82.2590538,78.036531 L82.2590538,86.2604629 L80.1006656,86.2604629 L80.1006656,78.036531 L77.3593549,78.036531 L77.3593549,76.3350278 L85.0633831,76.3350278 Z M89.3198616,76.1617266 C89.9605542,76.1617266 90.5277163,76.2247446 91.0213647,76.3507825 C91.5150132,76.4768204 91.9561392,76.6396169 92.3447561,76.8391769 L91.8563617,78.4461521 C91.4257322,78.2360889 91.0108636,78.0759182 90.6117436,77.965635 C90.2126236,77.8553518 89.8240125,77.8002111 89.4458988,77.8002111 C88.9417472,77.8002111 88.5505104,77.8999896 88.2721767,78.0995496 C87.993843,78.2991096 87.8546783,78.5669361 87.8546783,78.9030372 C87.8546783,79.2496414 87.9754628,79.5122165 88.2170354,79.6907702 C88.4586081,79.8693239 88.8472191,80.0426234 89.3828802,80.2106739 L90.3281597,80.5100124 C91.1158966,80.7725914 91.7329479,81.1454479 92.1793322,81.6285932 C92.6257164,82.1117385 92.8489052,82.7051581 92.8489052,83.4088697 C92.8489052,83.828996 92.7701327,84.2228585 92.6125853,84.5904691 C92.4550379,84.9580796 92.2187204,85.2784212 91.9036256,85.5515033 C91.5885309,85.8245854 91.1946683,86.0398969 90.7220262,86.1974443 C90.2493841,86.3549917 89.6979765,86.4337642 89.067787,86.4337642 C87.8809301,86.4337642 86.7938695,86.1921952 85.8065726,85.7090499 L86.294967,84.1020747 C86.7466029,84.322641 87.1877289,84.4933148 87.6183584,84.6141011 C88.0489879,84.7348874 88.5006169,84.7952797 88.9732591,84.7952797 C89.5299265,84.7952797 89.9500465,84.6928754 90.2336318,84.4880638 C90.5172171,84.2832522 90.6590076,83.9970454 90.6590076,83.6294349 C90.6590076,83.503397 90.6353758,83.3799867 90.5881116,83.2592004 C90.5408474,83.1384141 90.4541976,83.0228811 90.3281597,82.9125979 C90.2021218,82.8023147 90.0314481,82.6920332 89.8161333,82.5817501 C89.6008186,82.4714669 89.3198633,82.3638112 88.9732591,82.2587796 L88.1382621,81.9751957 C87.7706516,81.8491578 87.4345556,81.7021158 87.129964,81.5340653 C86.8253724,81.3660147 86.5654231,81.1717092 86.3501084,80.9511429 C86.1347936,80.7305765 85.9667456,80.4706273 85.8459593,80.1712873 C85.7251729,79.8719472 85.6647807,79.5227225 85.6647807,79.1236024 C85.6647807,78.6929729 85.7435532,78.2964847 85.9011006,77.9341257 C86.0586479,77.5717667 86.2923397,77.2593024 86.6021829,76.9967235 C86.9120261,76.7341445 87.2953856,76.529336 87.752273,76.3822918 C88.2091604,76.2352476 88.7316847,76.1617266 89.3198616,76.1617266 Z M94.9469953,76.8864409 C94.6003911,76.8129188 94.3325646,76.6579995 94.1435077,76.4216784 C93.9544509,76.1853574 93.8599238,75.8991506 93.8599238,75.5630495 C93.8599238,75.2269484 93.9702054,74.9354902 94.1907717,74.6886659 C94.411338,74.4418417 94.726428,74.3184315 95.1360512,74.3184315 C95.2935986,74.3184315 95.4537694,74.3499405 95.6165683,74.4129594 C95.7793673,74.4759784 95.929035,74.5836341 96.0655761,74.7359299 C96.2021172,74.8882257 96.3123987,75.0825312 96.3964239,75.3188523 C96.4804492,75.5551734 96.5224612,75.8466316 96.5224612,76.1932359 C96.5224612,76.5608464 96.4646947,76.9100712 96.34916,77.2409207 C96.2336252,77.5717702 96.0760802,77.8763572 95.8765202,78.1546909 C95.6769602,78.4330246 95.4511457,78.6850966 95.1990699,78.9109145 C94.9469941,79.1367324 94.6896705,79.3179092 94.4270916,79.4544503 L93.8284145,78.635208 C94.1435093,78.4566543 94.4297161,78.2203368 94.6870434,77.9262484 C94.9443708,77.6321599 95.1097931,77.3013154 95.1833152,76.9337048 L94.9469953,76.8864409 Z M29.6314075,89.0188694 C30.2721002,89.0188694 30.8392622,89.0818874 31.3329107,89.2079253 C31.8265591,89.3339632 32.2676852,89.4967597 32.656302,89.6963197 L32.1679076,91.303295 C31.7372781,91.0932318 31.3224096,90.933061 30.9232895,90.8227779 C30.5241695,90.7124947 30.1355585,90.6573539 29.7574448,90.6573539 C29.2532932,90.6573539 28.8620564,90.7571324 28.5837227,90.9566925 C28.305389,91.1562525 28.1662242,91.424079 28.1662242,91.7601801 C28.1662242,92.1067843 28.2870087,92.3693593 28.5285814,92.547913 C28.770154,92.7264667 29.1587651,92.8997662 29.6944261,93.0678168 L30.6397057,93.3671553 C31.4274426,93.6297342 32.0444939,94.0025908 32.4908781,94.4857361 C32.9372623,94.9688814 33.1604511,95.5623009 33.1604511,96.2660125 C33.1604511,96.6861389 33.0816786,97.0800014 32.9241312,97.4476119 C32.7665838,97.8152225 32.5302663,98.135564 32.2151716,98.4086461 C31.9000768,98.6817283 31.5062143,98.8970398 31.0335722,99.0545872 C30.56093,99.2121345 30.0095225,99.290907 29.379333,99.290907 C28.1924761,99.290907 27.1054155,99.049338 26.1181186,98.5661927 L26.606513,96.9592175 C27.0581488,97.1797838 27.4992748,97.3504576 27.9299043,97.4712439 C28.3605338,97.5920303 28.8121629,97.6524225 29.284805,97.6524225 C29.8414724,97.6524225 30.2615924,97.5500183 30.5451777,97.3452067 C30.828763,97.1403951 30.9705535,96.8541883 30.9705535,96.4865778 C30.9705535,96.3605399 30.9469218,96.2371296 30.8996575,96.1163433 C30.8523933,95.9955569 30.7657436,95.8800239 30.6397057,95.7697408 C30.5136678,95.6594576 30.342994,95.5491761 30.1276793,95.4388929 C29.9123645,95.3286098 29.6314092,95.220954 29.284805,95.1159224 L28.4498081,94.8323386 C28.0821975,94.7063007 27.7461015,94.5592586 27.4415099,94.3912081 C27.1369183,94.2231576 26.876969,94.0288521 26.6616543,93.8082857 C26.4463395,93.5877194 26.2782915,93.3277701 26.1575052,93.0284301 C26.0367189,92.7290901 25.9763266,92.3798653 25.9763266,91.9807453 C25.9763266,91.5501158 26.0550991,91.1536275 26.2126465,90.7912685 C26.3701939,90.4289096 26.6038857,90.1164453 26.9137288,89.8538663 C27.223572,89.5912874 27.6069315,89.3864789 28.0638189,89.2394346 C28.5207063,89.0923904 29.0432306,89.0188694 29.6314075,89.0188694 Z M34.6441096,89.1921707 L36.8024978,89.1921707 L36.8024978,95.1316771 C36.8024978,95.9509234 36.9679201,96.5732263 37.2987696,96.9986042 C37.6296191,97.4239821 38.1416404,97.6366679 38.8348488,97.6366679 C39.5175541,97.6366679 40.0111952,97.4213563 40.3157868,96.9907268 C40.6203784,96.5600973 40.7726719,96.0034383 40.7726719,95.320733 L40.7726719,89.1921707 L42.9310602,89.1921707 L42.9310602,95.1631864 C42.9310602,96.5496033 42.5870869,97.5841489 41.89913,98.2668542 C41.2111731,98.9495595 40.1897563,99.290907 38.8348488,99.290907 C37.5324572,99.290907 36.5084146,98.9495595 35.7626903,98.2668542 C35.0169661,97.5841489 34.6441096,96.5233458 34.6441096,95.0844131 L34.6441096,89.1921707 Z M45.5332994,89.1921707 L48.2588554,89.1921707 L49.6767747,93.7137578 C49.7397937,93.9133178 49.8054374,94.1286293 49.8737079,94.3596988 C49.9419785,94.5907683 50.0076222,94.8218343 50.0706412,95.0529038 C50.1336601,95.2839733 50.1914266,95.5097878 50.2439424,95.7303541 C50.2964582,95.9509205 50.3384702,96.155729 50.3699797,96.3447858 L50.4329983,96.3447858 C50.4645078,96.1767353 50.5065198,95.979804 50.5590356,95.7539861 C50.6115514,95.5281682 50.6693179,95.2944764 50.7323368,95.0529038 C50.7953558,94.8113311 50.8583738,94.5750136 50.9213928,94.3439441 C50.9844117,94.1128746 51.0421782,93.9028146 51.094694,93.7137578 L52.4653493,89.1921707 L55.1909053,89.1921707 L55.9313743,99.1176058 L53.8990233,99.1176058 L53.7099674,95.8406367 C53.6469484,94.7483083 53.6049364,93.6454932 53.5839301,92.5321584 L53.5681755,91.2402763 L53.5209115,91.2402763 C53.3843704,91.81795 53.2347027,92.4218726 53.0719037,93.0520621 C52.9091047,93.6822516 52.7541855,94.2336592 52.6071413,94.7063013 L51.2049766,99.1176058 L49.5349828,99.1176058 L48.1013088,94.6905466 C47.9227551,94.1233761 47.7547071,93.524705 47.5971597,92.8945155 C47.4396123,92.264326 47.3135763,91.7129185 47.2190479,91.2402763 L47.1717839,91.2402763 C47.1717839,91.61839 47.1665324,92.0148783 47.1560293,92.4297531 C47.1455261,92.8446278 47.1323974,93.2568706 47.1166426,93.6664938 C47.1008879,94.076117 47.0851334,94.4778568 47.0693786,94.8717252 C47.0536239,95.2655937 47.0352437,95.6253214 47.0142373,95.9509193 L46.8251814,99.1176058 L44.8243397,99.1176058 L45.5332994,89.1921707 Z M58.4705949,89.1921707 L61.1961509,89.1921707 L62.6140702,93.7137578 C62.6770892,93.9133178 62.7427329,94.1286293 62.8110034,94.3596988 C62.879274,94.5907683 62.9449177,94.8218343 63.0079367,95.0529038 C63.0709556,95.2839733 63.1287221,95.5097878 63.1812379,95.7303541 C63.2337537,95.9509205 63.2757657,96.155729 63.3072752,96.3447858 L63.3702938,96.3447858 C63.4018033,96.1767353 63.4438153,95.979804 63.4963311,95.7539861 C63.5488469,95.5281682 63.6066134,95.2944764 63.6696324,95.0529038 C63.7326513,94.8113311 63.7956693,94.5750136 63.8586883,94.3439441 C63.9217072,94.1128746 63.9794737,93.9028146 64.0319895,93.7137578 L65.4026448,89.1921707 L68.1282008,89.1921707 L68.8686698,99.1176058 L66.8363188,99.1176058 L66.6472629,95.8406367 C66.5842439,94.7483083 66.5422319,93.6454932 66.5212256,92.5321584 L66.505471,91.2402763 L66.458207,91.2402763 C66.3216659,91.81795 66.1719982,92.4218726 66.0091992,93.0520621 C65.8464003,93.6822516 65.691481,94.2336592 65.5444368,94.7063013 L64.1422721,99.1176058 L62.4722783,99.1176058 L61.0386043,94.6905466 C60.8600506,94.1233761 60.6920026,93.524705 60.5344552,92.8945155 C60.3769078,92.264326 60.2508718,91.7129185 60.1563434,91.2402763 L60.1090794,91.2402763 C60.1090794,91.61839 60.1038279,92.0148783 60.0933248,92.4297531 C60.0828216,92.8446278 60.0696929,93.2568706 60.0539381,93.6664938 C60.0381834,94.076117 60.0224289,94.4778568 60.0066741,94.8717252 C59.9909194,95.2655937 59.9725392,95.6253214 59.9515328,95.9509193 L59.7624769,99.1176058 L57.7616352,99.1176058 L58.4705949,89.1921707 Z M72.9360923,89.1921707 L72.9360923,99.1176058 L70.777704,99.1176058 L70.777704,89.1921707 L72.9360923,89.1921707 Z M81.7141579,89.1921707 L81.7141579,90.8936738 L78.9098286,90.8936738 L78.9098286,99.1176058 L76.7514403,99.1176058 L76.7514403,90.8936738 L74.0101296,90.8936738 L74.0101296,89.1921707 L81.7141579,89.1921707 Z M41.2466719,103.482987 C40.9105708,103.482987 40.5928551,103.54338 40.293515,103.664166 C39.994175,103.784952 39.6764592,103.981884 39.3403582,104.254966 L38.4738519,102.931574 C38.8834751,102.595473 39.3272269,102.335524 39.8051206,102.151719 C40.2830143,101.967914 40.8475506,101.876012 41.4987465,101.876012 C42.0028981,101.876012 42.4519013,101.949533 42.8457698,102.096577 C43.2396382,102.243622 43.5731085,102.44843 43.8461906,102.711009 C44.1192728,102.973588 44.326707,103.280801 44.4684997,103.632657 C44.6102923,103.984513 44.6811876,104.370498 44.6811876,104.790624 C44.6811876,105.483833 44.434367,106.211165 43.9407186,106.972644 C43.4470701,107.734123 42.7381176,108.550732 41.8138396,109.422494 L40.8212961,110.352019 L44.7914702,110.352019 L44.7914702,111.974749 L38.7101718,111.974749 L38.33206,110.588339 L39.7499793,109.170419 C40.2751372,108.645261 40.7162633,108.180504 41.0733707,107.776132 C41.430478,107.37176 41.7193106,107.006781 41.9398769,106.681183 C42.1604432,106.355585 42.3179882,106.05625 42.4125167,105.783168 C42.5070451,105.510086 42.5543086,105.237008 42.5543086,104.963925 C42.5543086,104.48078 42.4308983,104.113175 42.1840741,103.861099 C41.9372499,103.609023 41.6247856,103.482987 41.2466719,103.482987 Z M49.9459642,101.876012 C50.534141,101.876012 51.0776713,101.973165 51.5765714,102.167473 C52.0754714,102.361782 52.5060944,102.666369 52.8684534,103.081244 C53.2308124,103.496118 53.5143934,104.02652 53.719205,104.672464 C53.9240166,105.318408 54.0264208,106.093005 54.0264208,106.996276 C54.0264208,107.889045 53.9161393,108.65839 53.695573,109.304334 C53.4750067,109.950278 53.1756711,110.483306 52.7975574,110.903432 C52.4194437,111.323558 51.9835692,111.636022 51.4899207,111.840834 C50.9962723,112.045646 50.4763737,112.14805 49.9302095,112.14805 C49.3420326,112.14805 48.7985023,112.050897 48.2996023,111.856589 C47.8007023,111.66228 47.3674535,111.355068 46.9998429,110.934941 C46.6322324,110.514815 46.3460256,109.979162 46.141214,109.327966 C45.9364024,108.67677 45.8339982,107.899548 45.8339982,106.996276 C45.8339982,106.135017 45.9469054,105.381427 46.1727233,104.735483 C46.3985412,104.089539 46.7005025,103.556511 47.0786162,103.136385 C47.4567299,102.716259 47.8952302,102.401169 48.3941302,102.191105 C48.8930303,101.981042 49.4103031,101.876012 49.9459642,101.876012 Z M47.9923864,106.996276 C47.9923864,107.699988 48.0449014,108.282905 48.149933,108.745044 C48.2549646,109.207183 48.3993809,109.574788 48.5831862,109.84787 C48.7669914,110.120952 48.9770514,110.312632 49.2133725,110.422915 C49.4496936,110.533198 49.6938884,110.588339 49.9459642,110.588339 C50.19804,110.588339 50.4422347,110.530572 50.6785558,110.415037 C50.9148769,110.299503 51.1196854,110.105197 51.2929875,109.832115 C51.4662896,109.559033 51.6054544,109.191428 51.710486,108.729289 C51.8155175,108.26715 51.8680325,107.689485 51.8680325,106.996276 C51.8680325,106.292565 51.8155175,105.712274 51.710486,105.255387 C51.6054544,104.798499 51.4662896,104.436146 51.2929875,104.168315 C51.1196854,103.900485 50.9148769,103.711431 50.6785558,103.601147 C50.4422347,103.490864 50.19804,103.435724 49.9459642,103.435724 C49.6938884,103.435724 49.4496936,103.490864 49.2133725,103.601147 C48.9770514,103.711431 48.7669914,103.90311 48.5831862,104.176192 C48.3993809,104.449275 48.2549646,104.814254 48.149933,105.271141 C48.0449014,105.728029 47.9923864,106.303068 47.9923864,106.996276 Z M57.8102595,102.049314 L59.5275173,102.049314 L59.5275173,111.974749 L57.463657,111.974749 L57.463657,103.971382 L55.6203619,104.853643 L55.1319675,103.293932 L57.8102595,102.049314 Z M65.8163467,101.876012 C66.1839573,101.876012 66.5331821,101.904896 66.8640315,101.962663 C67.194881,102.02043 67.5125968,102.122835 67.8171884,102.269879 L67.3445486,103.845345 C67.1344855,103.72981 66.908671,103.637909 66.6670983,103.569638 C66.4255257,103.501368 66.1576991,103.467233 65.8636107,103.467233 C65.4749938,103.467233 65.1336463,103.532877 64.8395579,103.664166 C64.5454694,103.795456 64.2960232,103.979258 64.0912116,104.215579 C63.8864,104.4519 63.7262292,104.73023 63.6106945,105.050576 C63.4951597,105.370922 63.4216387,105.720147 63.3901292,106.098261 C63.6632114,105.846185 63.9861786,105.657131 64.3590408,105.531093 C64.7319029,105.405055 65.1178882,105.342037 65.5170082,105.342037 C65.9791472,105.342037 66.4045187,105.415558 66.7931356,105.562602 C67.1817524,105.709647 67.5178485,105.924958 67.8014338,106.208543 C68.085019,106.492129 68.3055821,106.836102 68.4631294,107.240474 C68.6206768,107.644845 68.6994493,108.0991 68.6994493,108.603252 C68.6994493,109.12841 68.6154253,109.606296 68.4473748,110.036926 C68.2793242,110.467555 68.0377552,110.840412 67.7226605,111.155506 C67.4075657,111.470601 67.0294577,111.714796 66.588325,111.888098 C66.1471924,112.0614 65.6588028,112.14805 65.1231417,112.14805 C64.6610028,112.14805 64.1988707,112.066652 63.7367317,111.903853 C63.2745928,111.741054 62.8597242,111.470601 62.4921137,111.092488 C62.1245031,110.714374 61.8225419,110.220733 61.5862208,109.61155 C61.3498997,109.002367 61.231741,108.251402 61.231741,107.358634 C61.231741,106.38184 61.3630285,105.546851 61.6256074,104.853643 C61.8881864,104.160434 62.2347854,103.593272 62.6654149,103.15214 C63.0960444,102.711007 63.5870597,102.38804 64.1384755,102.183228 C64.6898914,101.978417 65.2491762,101.876012 65.8163467,101.876012 Z M63.3901292,108.414196 C63.3901292,108.718787 63.4295155,109.004994 63.5082892,109.272825 C63.5870629,109.540655 63.6999701,109.774347 63.8470144,109.973907 C63.9940586,110.173467 64.1726096,110.328386 64.3826728,110.438669 C64.5927359,110.548953 64.834305,110.604093 65.1073871,110.604093 C65.3384566,110.604093 65.5458908,110.551578 65.7296961,110.446547 C65.9135014,110.341515 66.0710464,110.199725 66.2023359,110.021171 C66.3336254,109.842617 66.4334039,109.637809 66.5016744,109.406739 C66.5699449,109.17567 66.6040797,108.928849 66.6040797,108.66627 C66.6040797,108.06759 66.4649149,107.626464 66.1865812,107.342879 C65.9082475,107.059294 65.5275137,106.917503 65.0443684,106.917503 C64.7082674,106.917503 64.4220606,106.983147 64.1857395,107.114436 C63.9494185,107.245726 63.7682417,107.400645 63.6422038,107.579199 C63.5581785,107.68423 63.4951605,107.799763 63.4531479,107.925801 C63.4111353,108.051839 63.3901292,108.214636 63.3901292,108.414196 Z" id="PRESIDENTS’-SUMMIT-2"></path>
            <g id="Group" transform="translate(17.306087, 0.000000)">
                <path d="M0.000773729977,36.8916295 C0.000773729977,46.5376458 3.74717428,55.6072596 10.5513557,62.4278946 C17.3532159,69.2485296 26.3973456,73.0071712 36.0194516,73.0071712 C48.3782405,73.0071712 59.7335017,66.7637146 66.3953168,56.3093381 L66.6514214,55.9074854 L66.6390417,55.8981761 C67.8151113,53.9703692 68.2770281,52.7097309 68.2986925,52.6530992 L68.5308115,52.0146344 L67.8530241,52.0146344 L64.8826747,52.0146344 L61.7560319,52.0146344 L23.7589264,52.0146344 C22.0621366,47.7292399 21.1220546,43.4011777 20.9580239,39.134402 C20.9874256,39.0544969 20.9796883,38.6650566 20.9796883,38.6650566 L20.9363595,36.8799928 C20.9371332,36.879217 20.9796883,35.1150992 20.9796883,35.1150992 L20.9889731,34.627911 L20.9595714,34.627911 C21.1243758,30.3665656 22.0644578,26.0454854 23.7589264,21.7655214 L65.3561974,21.7655214 L65.8328151,21.7655214 L65.8328151,21.7515574 L67.8220749,21.7515574 L68.4905776,21.7515574 L68.2700645,21.1192989 C68.2290568,20.996726 67.2023172,18.0875607 64.1228719,14.2971123 C57.2738141,5.70460164 47.0288555,0.775311948 36.0194516,0.775311948 C16.1593506,0.775311948 0.000773729977,16.9774232 0.000773729977,36.8916295 Z M38.2756482,5.96215974 C40.2355063,8.06684386 44.2612233,12.6509126 46.7325169,17.2411876 L38.2756482,17.2411876 L38.2756482,5.96215974 Z M33.7640287,6.04516792 L33.7640287,17.2411876 L25.8418075,17.2411876 C28.6806228,11.8417768 32.0393846,7.89306972 33.7640287,6.04516792 Z M13.7422181,14.5546704 C17.5567069,10.7269846 22.2509267,7.96832013 27.3861725,6.50830704 C25.3783432,9.05906318 22.8536623,12.7300419 20.7460219,17.2411876 L11.35294,17.2411876 C12.1019106,16.2993938 12.9011736,15.3963889 13.7422181,14.5546704 Z M44.8028343,6.54476858 C51.0507039,8.35232995 56.6145962,12.0993349 60.6836421,17.2411876 L51.7594405,17.2411876 C50.0587821,13.370834 47.2099083,9.46479476 44.8028343,6.54476858 Z M8.36169986,21.7655214 L18.8968072,21.7655214 C17.4081508,26.0113512 16.5833546,30.3324314 16.4409883,34.627911 L4.60678828,34.627911 C4.92556503,30.0740975 6.18519744,25.75069 8.36169986,21.7655214 Z M4.60678828,39.1545722 L16.4409883,39.1545722 C16.5833546,43.4492759 17.4081508,47.7664773 18.8968072,52.0146344 L8.36169986,52.0146344 C6.18519744,48.0302416 4.92556503,43.706834 4.60678828,39.1545722 Z M51.7594405,56.5405198 L60.6813209,56.5405198 C56.6161436,61.6746147 51.0545725,65.4200681 44.8090242,67.2330599 C47.2130032,64.315361 50.0587821,60.4077702 51.7594405,56.5405198 Z M38.2756482,56.5405198 L46.7325169,56.5405198 C44.2612233,61.1307948 40.2355063,65.7133119 38.2756482,67.8195476 L38.2756482,56.5405198 Z M25.8418075,56.5405198 L33.7640287,56.5405198 L33.7640287,67.7357637 C32.0393846,65.8886376 28.6806228,61.9368275 25.8418075,56.5405198 Z M13.7422181,59.2278128 C12.9011736,58.3860943 12.1019106,57.4823136 11.35294,56.5405198 L20.7460219,56.5405198 C22.8536623,61.0493381 25.3783432,64.7226442 27.3861725,67.2741761 C22.2509267,65.8133872 17.5567069,63.0516196 13.7422181,59.2278128 Z" id="Fill-1"></path>
                <path d="M59.4411865,22.1230773 L56.2704411,22.1230773 L55.8735176,22.1230773 L55.8031082,22.5171722 L54.2626118,31.2500985 C53.4045452,30.3633849 51.7255512,29.1655846 49.0677887,29.4805502 C46.4951365,29.7869823 44.0075947,31.283457 42.4995949,33.8024062 L43.1905358,31.0538268 L43.307369,30.5984455 L42.8539633,30.4774242 C38.8994293,29.4138334 35.7441585,29.7869823 33.4763559,31.5813555 C31.118027,33.4494275 29.8297666,36.9047401 29.9450523,41.062907 C30.0239728,43.9022524 30.9509013,45.956511 32.6979836,47.165948 C35.3116434,48.9742851 38.9675176,48.2947041 40.1536456,47.880439 L40.3942757,47.7958792 L40.4577215,47.5515093 L41.3482847,44.1551558 L41.5525494,43.3778268 C42.1312995,45.5205241 43.1580391,46.9727794 44.6281261,47.6942524 C47.0081195,48.8641247 49.849256,47.7997581 51.3201167,47.0697516 C51.2999997,47.1768088 51.2744666,47.3110183 51.2342326,47.5111689 L51.1135308,48.0852442 L51.6984706,48.0852442 L54.6076953,48.0852442 L55.0278307,48.0852442 L55.0796706,47.6686517 C55.3102422,45.8114406 59.8620956,22.9244553 59.9085194,22.6924979 L60.021484,22.1230773 L59.4411865,22.1230773 Z M48.2368027,44.6322589 C46.4239534,44.5508023 45.3430526,43.0139872 45.3430526,40.5245175 C45.3430526,36.2344684 46.6591673,33.8551591 49.3672222,33.2469496 C50.2632015,33.0452475 50.9626534,33.4145175 51.3920736,33.7597385 C52.3352504,34.5161214 52.9457234,35.9094177 52.9457234,37.3081444 C52.9457234,39.5780691 51.8802972,42.3150118 50.4674662,43.6679676 C49.7974161,44.3103113 49.0832633,44.6345863 48.3489936,44.6345863 C48.3103071,44.6345863 48.273168,44.6345863 48.2368027,44.6322589 Z M35.5762591,43.7044291 C34.7305722,43.1388874 34.2903199,42.0853817 34.2678817,40.567961 C34.2361588,38.4531918 34.8505004,35.7309889 36.671087,34.4369921 C37.9794644,33.5060592 39.7249992,33.4292573 41.8550779,34.2120167 L42.198614,34.3392442 C41.3250728,36.0374209 40.8770832,38.1444324 41.0883115,40.6230412 C41.1734217,41.5981935 41.3196567,42.4771493 41.5239214,43.2676664 L40.7122787,43.593493 C39.9679504,43.8921673 38.7663478,44.2234242 37.6173588,44.2234242 C36.8683882,44.2234242 36.1434032,44.0830085 35.5762591,43.7044291 Z M32.4392483,22.5863715 L33.0226407,22.5863715 L32.90426,23.1604468 L32.1622529,26.7445385 L32.0825588,27.1262209 L27.5368951,27.1262209 L27.6560496,26.5513699 L28.3972829,22.9672782 L28.4769771,22.5863715 L28.8638421,22.5863715 L32.4392483,22.5863715 Z M30.6507714,30.0290249 L31.2372588,30.0290249 L31.1157831,30.6038759 L27.4738361,47.8517352 L27.3918208,48.2295388 L23.2523654,48.2295388 L23.3722935,47.6554635 L27.0173355,30.4052769 L27.0962559,30.0290249 L27.480026,30.0290249 L30.6507714,30.0290249 Z M61.1760439,30.7726075 C58.3766888,33.092182 57.1216988,37.0734717 57.1216988,39.9865159 C57.1216988,43.3518383 57.9534585,45.6109021 59.6634018,46.8979169 C61.6874794,48.4184406 64.8628672,48.5138612 69.3698443,47.1934881 L69.651482,47.1104799 L69.7040957,46.8226664 L70.2596338,43.8048923 L70.4174747,42.9453309 L69.6089269,43.2789152 C68.2626367,43.8351476 64.3653588,44.9685584 62.5246552,43.5287155 C61.6573039,42.8506861 61.3168627,41.6334913 61.4971418,39.9182475 L71.3010743,39.8282573 L71.683297,39.8251542 L71.7614437,39.4489021 C72.4647642,36.0587548 72.2249079,33.4451607 71.0534808,31.6833702 C70.201604,30.4017859 68.8684673,29.5786861 67.0981731,29.237344 C66.6192343,29.1450265 66.1488064,29.1000314 65.683021,29.1000314 C64.0489033,29.1000314 62.5107281,29.6663489 61.1760439,30.7726075 M66.0420317,32.9998645 C66.8018345,33.0440838 67.3504091,33.2869021 67.7140622,33.7376288 C68.1775264,34.308601 68.3407835,35.2116059 68.2053807,36.4156124 L62.0751181,36.4156124 C62.8527167,34.0068236 64.1549043,32.886601 66.0420317,32.9998645" id="Fill-22"></path>
            </g>
        </g>
    </g>
</svg>