<?xml version="1.0" encoding="UTF-8"?>
<svg width="150px" height="150px" viewBox="0 0 150 150" version="1.1" xmlns="http://www.w3.org/2000/svg" xmlns:xlink="http://www.w3.org/1999/xlink">
    <!-- Generator: Sketch 50.2 (55047) - http://www.bohemiancoding.com/sketch -->
    <title>Events/ICDE</title>
    <desc>Created with Sketch.</desc>
    <defs></defs>
    <g id="Events/ICDE" stroke="none" stroke-width="1" fill="none" fill-rule="evenodd">
        <g id="Group-2" transform="translate(22.000000, 18.000000)" fill="#FFFFFF">
            <text id="PRESIDENTS’-SUMMIT-2" font-family="EkMukta-Bold, Ek Mukta" font-size="15.754659" font-weight="bold" line-spacing="12.8571429" letter-spacing="-0.186335404">
                <tspan x="0.0452340585" y="86.4576214">PRESIDENTS’ </tspan>
                <tspan x="14.4439163" y="99.3147643">SUMMIT </tspan>
                <tspan x="26.8626683" y="112.171907">201</tspan>
                <tspan x="49.7623493" y="112.171907">6</tspan>
            </text>
            <g id="Group" transform="translate(17.306087, 0.000000)">
                <path d="M0.000773729977,36.8916295 C0.000773729977,46.5376458 3.74717428,55.6072596 10.5513557,62.4278946 C17.3532159,69.2485296 26.3973456,73.0071712 36.0194516,73.0071712 C48.3782405,73.0071712 59.7335017,66.7637146 66.3953168,56.3093381 L66.6514214,55.9074854 L66.6390417,55.8981761 C67.8151113,53.9703692 68.2770281,52.7097309 68.2986925,52.6530992 L68.5308115,52.0146344 L67.8530241,52.0146344 L64.8826747,52.0146344 L61.7560319,52.0146344 L23.7589264,52.0146344 C22.0621366,47.7292399 21.1220546,43.4011777 20.9580239,39.134402 C20.9874256,39.0544969 20.9796883,38.6650566 20.9796883,38.6650566 L20.9363595,36.8799928 C20.9371332,36.879217 20.9796883,35.1150992 20.9796883,35.1150992 L20.9889731,34.627911 L20.9595714,34.627911 C21.1243758,30.3665656 22.0644578,26.0454854 23.7589264,21.7655214 L65.3561974,21.7655214 L65.8328151,21.7655214 L65.8328151,21.7515574 L67.8220749,21.7515574 L68.4905776,21.7515574 L68.2700645,21.1192989 C68.2290568,20.996726 67.2023172,18.0875607 64.1228719,14.2971123 C57.2738141,5.70460164 47.0288555,0.775311948 36.0194516,0.775311948 C16.1593506,0.775311948 0.000773729977,16.9774232 0.000773729977,36.8916295 Z M38.2756482,5.96215974 C40.2355063,8.06684386 44.2612233,12.6509126 46.7325169,17.2411876 L38.2756482,17.2411876 L38.2756482,5.96215974 Z M33.7640287,6.04516792 L33.7640287,17.2411876 L25.8418075,17.2411876 C28.6806228,11.8417768 32.0393846,7.89306972 33.7640287,6.04516792 Z M13.7422181,14.5546704 C17.5567069,10.7269846 22.2509267,7.96832013 27.3861725,6.50830704 C25.3783432,9.05906318 22.8536623,12.7300419 20.7460219,17.2411876 L11.35294,17.2411876 C12.1019106,16.2993938 12.9011736,15.3963889 13.7422181,14.5546704 Z M44.8028343,6.54476858 C51.0507039,8.35232995 56.6145962,12.0993349 60.6836421,17.2411876 L51.7594405,17.2411876 C50.0587821,13.370834 47.2099083,9.46479476 44.8028343,6.54476858 Z M8.36169986,21.7655214 L18.8968072,21.7655214 C17.4081508,26.0113512 16.5833546,30.3324314 16.4409883,34.627911 L4.60678828,34.627911 C4.92556503,30.0740975 6.18519744,25.75069 8.36169986,21.7655214 Z M4.60678828,39.1545722 L16.4409883,39.1545722 C16.5833546,43.4492759 17.4081508,47.7664773 18.8968072,52.0146344 L8.36169986,52.0146344 C6.18519744,48.0302416 4.92556503,43.706834 4.60678828,39.1545722 Z M51.7594405,56.5405198 L60.6813209,56.5405198 C56.6161436,61.6746147 51.0545725,65.4200681 44.8090242,67.2330599 C47.2130032,64.315361 50.0587821,60.4077702 51.7594405,56.5405198 Z M38.2756482,56.5405198 L46.7325169,56.5405198 C44.2612233,61.1307948 40.2355063,65.7133119 38.2756482,67.8195476 L38.2756482,56.5405198 Z M25.8418075,56.5405198 L33.7640287,56.5405198 L33.7640287,67.7357637 C32.0393846,65.8886376 28.6806228,61.9368275 25.8418075,56.5405198 Z M13.7422181,59.2278128 C12.9011736,58.3860943 12.1019106,57.4823136 11.35294,56.5405198 L20.7460219,56.5405198 C22.8536623,61.0493381 25.3783432,64.7226442 27.3861725,67.2741761 C22.2509267,65.8133872 17.5567069,63.0516196 13.7422181,59.2278128 Z" id="Fill-1"></path>
                <path d="M59.4411865,22.1230773 L56.2704411,22.1230773 L55.8735176,22.1230773 L55.8031082,22.5171722 L54.2626118,31.2500985 C53.4045452,30.3633849 51.7255512,29.1655846 49.0677887,29.4805502 C46.4951365,29.7869823 44.0075947,31.283457 42.4995949,33.8024062 L43.1905358,31.0538268 L43.307369,30.5984455 L42.8539633,30.4774242 C38.8994293,29.4138334 35.7441585,29.7869823 33.4763559,31.5813555 C31.118027,33.4494275 29.8297666,36.9047401 29.9450523,41.062907 C30.0239728,43.9022524 30.9509013,45.956511 32.6979836,47.165948 C35.3116434,48.9742851 38.9675176,48.2947041 40.1536456,47.880439 L40.3942757,47.7958792 L40.4577215,47.5515093 L41.3482847,44.1551558 L41.5525494,43.3778268 C42.1312995,45.5205241 43.1580391,46.9727794 44.6281261,47.6942524 C47.0081195,48.8641247 49.849256,47.7997581 51.3201167,47.0697516 C51.2999997,47.1768088 51.2744666,47.3110183 51.2342326,47.5111689 L51.1135308,48.0852442 L51.6984706,48.0852442 L54.6076953,48.0852442 L55.0278307,48.0852442 L55.0796706,47.6686517 C55.3102422,45.8114406 59.8620956,22.9244553 59.9085194,22.6924979 L60.021484,22.1230773 L59.4411865,22.1230773 Z M48.2368027,44.6322589 C46.4239534,44.5508023 45.3430526,43.0139872 45.3430526,40.5245175 C45.3430526,36.2344684 46.6591673,33.8551591 49.3672222,33.2469496 C50.2632015,33.0452475 50.9626534,33.4145175 51.3920736,33.7597385 C52.3352504,34.5161214 52.9457234,35.9094177 52.9457234,37.3081444 C52.9457234,39.5780691 51.8802972,42.3150118 50.4674662,43.6679676 C49.7974161,44.3103113 49.0832633,44.6345863 48.3489936,44.6345863 C48.3103071,44.6345863 48.273168,44.6345863 48.2368027,44.6322589 Z M35.5762591,43.7044291 C34.7305722,43.1388874 34.2903199,42.0853817 34.2678817,40.567961 C34.2361588,38.4531918 34.8505004,35.7309889 36.671087,34.4369921 C37.9794644,33.5060592 39.7249992,33.4292573 41.8550779,34.2120167 L42.198614,34.3392442 C41.3250728,36.0374209 40.8770832,38.1444324 41.0883115,40.6230412 C41.1734217,41.5981935 41.3196567,42.4771493 41.5239214,43.2676664 L40.7122787,43.593493 C39.9679504,43.8921673 38.7663478,44.2234242 37.6173588,44.2234242 C36.8683882,44.2234242 36.1434032,44.0830085 35.5762591,43.7044291 Z M32.4392483,22.5863715 L33.0226407,22.5863715 L32.90426,23.1604468 L32.1622529,26.7445385 L32.0825588,27.1262209 L27.5368951,27.1262209 L27.6560496,26.5513699 L28.3972829,22.9672782 L28.4769771,22.5863715 L28.8638421,22.5863715 L32.4392483,22.5863715 Z M30.6507714,30.0290249 L31.2372588,30.0290249 L31.1157831,30.6038759 L27.4738361,47.8517352 L27.3918208,48.2295388 L23.2523654,48.2295388 L23.3722935,47.6554635 L27.0173355,30.4052769 L27.0962559,30.0290249 L27.480026,30.0290249 L30.6507714,30.0290249 Z M61.1760439,30.7726075 C58.3766888,33.092182 57.1216988,37.0734717 57.1216988,39.9865159 C57.1216988,43.3518383 57.9534585,45.6109021 59.6634018,46.8979169 C61.6874794,48.4184406 64.8628672,48.5138612 69.3698443,47.1934881 L69.651482,47.1104799 L69.7040957,46.8226664 L70.2596338,43.8048923 L70.4174747,42.9453309 L69.6089269,43.2789152 C68.2626367,43.8351476 64.3653588,44.9685584 62.5246552,43.5287155 C61.6573039,42.8506861 61.3168627,41.6334913 61.4971418,39.9182475 L71.3010743,39.8282573 L71.683297,39.8251542 L71.7614437,39.4489021 C72.4647642,36.0587548 72.2249079,33.4451607 71.0534808,31.6833702 C70.201604,30.4017859 68.8684673,29.5786861 67.0981731,29.237344 C66.6192343,29.1450265 66.1488064,29.1000314 65.683021,29.1000314 C64.0489033,29.1000314 62.5107281,29.6663489 61.1760439,30.7726075 M66.0420317,32.9998645 C66.8018345,33.0440838 67.3504091,33.2869021 67.7140622,33.7376288 C68.1775264,34.308601 68.3407835,35.2116059 68.2053807,36.4156124 L62.0751181,36.4156124 C62.8527167,34.0068236 64.1549043,32.886601 66.0420317,32.9998645" id="Fill-22"></path>
            </g>
        </g>
    </g>
</svg>