<?xml version="1.0" encoding="UTF-8"?>
<svg width="150px" height="150px" viewBox="0 0 150 150" version="1.1" xmlns="http://www.w3.org/2000/svg" xmlns:xlink="http://www.w3.org/1999/xlink">
    <!-- Generator: Sketch 50.2 (55047) - http://www.bohemiancoding.com/sketch -->
    <title>Logo/Program/Incubate</title>
    <desc>Created with Sketch.</desc>
    <defs></defs>
    <g id="Logo/Program/Incubate" stroke="none" stroke-width="1" fill="none" fill-rule="evenodd">
        <path d="M31.4555,110.8841 C31.7195,111.2511 31.9905,111.6131 32.2675,111.9701 C32.3385,112.0611 32.4045,112.1571 32.4765,112.2481 C32.7815,112.6321 33.0965,113.0051 33.4175,113.3751 C33.7815,113.7951 34.1545,114.2061 34.5385,114.6091 C34.6015,114.6741 34.6595,114.7451 34.7225,114.8111 C35.0375,115.1351 35.3615,115.4461 35.6885,115.7591 C36.0925,116.1441 36.5055,116.5201 36.9285,116.8851 C37.0015,116.9491 37.0695,117.0191 37.1445,117.0821 C37.2775,117.1961 37.3965,117.3221 37.5305,117.4341 C37.7835,117.6431 38.0595,117.8211 38.3185,118.0241 C38.6825,118.3071 39.0515,118.5831 39.4255,118.8521 C39.5335,118.9291 39.6365,119.0141 39.7445,119.0901 C40.2565,119.4471 40.7855,119.7771 41.3155,120.1071 C41.5565,120.2561 41.7965,120.4041 42.0405,120.5471 C42.2185,120.6521 42.3885,120.7671 42.5675,120.8671 C43.1915,121.2201 43.8365,121.5351 44.4835,121.8491 C44.5865,121.8991 44.6895,121.9481 44.7935,121.9981 C45.0675,122.1271 45.3335,122.2711 45.6115,122.3931 C46.2825,122.6881 46.9735,122.9411 47.6655,123.1941 C47.6815,123.1991 47.6965,123.2041 47.7125,123.2101 C48.0715,123.3411 48.4235,123.4871 48.7875,123.6051 C49.4725,123.8271 50.1745,124.0061 50.8775,124.1871 C51.2735,124.2881 51.6645,124.4051 52.0655,124.4921 C52.7435,124.6411 53.4345,124.7441 54.1255,124.8511 C54.1465,124.8551 54.1685,124.8581 54.1895,124.8611 C54.5995,124.9231 55.0035,125.0001 55.4175,125.0491 C56.0925,125.1271 56.7775,125.1621 57.4635,125.2001 C57.5625,125.2061 57.6635,125.2111 57.7635,125.2161 C58.1095,125.2321 58.4515,125.2621 58.8005,125.2691 C59.0025,125.2721 59.1975,125.2991 59.4005,125.2991 C59.9345,125.2991 60.4545,125.2421 60.9825,125.2181 C61.1025,125.2131 61.2225,125.2071 61.3415,125.2001 C61.6015,125.1861 61.8645,125.1811 62.1235,125.1601 C62.9335,125.0971 63.7295,124.9931 64.5225,124.8741 C64.6035,124.8631 64.6845,124.8501 64.7645,124.8371 C64.9655,124.8061 65.1695,124.7801 65.3695,124.7451 C66.2115,124.5971 67.0385,124.4111 67.8585,124.2031 C67.9435,124.1821 68.0275,124.1601 68.1115,124.1381 C68.2725,124.0961 68.4365,124.0581 68.5975,124.0131 C69.3995,123.7891 70.1865,123.5351 70.9655,123.2561 C71.1085,123.2041 71.2525,123.1521 71.3945,123.0981 C71.5375,123.0451 71.6825,122.9961 71.8235,122.9411 C72.5185,122.6701 73.2005,122.3761 73.8745,122.0621 C74.1175,121.9481 74.3585,121.8311 74.5995,121.7121 C74.7335,121.6461 74.8725,121.5841 75.0065,121.5161 C75.5525,121.2371 76.0875,120.9431 76.6155,120.6351 C77.1045,120.3511 77.5915,120.0611 78.0645,119.7531 C78.4565,119.4991 78.8395,119.2371 79.2195,118.9681 C79.7905,118.5641 80.3535,118.1491 80.8975,117.7111 C81.1715,117.4911 81.4375,117.2661 81.7035,117.0381 C82.3015,116.5281 82.8865,116.0031 83.4475,115.4531 C83.6615,115.2431 83.8675,115.0281 84.0755,114.8131 C84.6375,114.2341 85.1845,113.6391 85.7035,113.0221 C85.9165,112.7701 86.1165,112.5081 86.3225,112.2501 C86.7975,111.6531 87.2605,111.0441 87.6945,110.4151 C87.9365,110.0661 88.1585,109.7031 88.3885,109.3441 C88.8115,108.6801 89.2385,108.0171 89.6165,107.3231 C89.6325,107.2951 89.6465,107.2681 89.6615,107.2401 C92.2995,102.3761 93.8005,96.8101 93.8005,90.8981 C93.8005,83.4431 91.5345,72.7291 87.9685,62.3331 C87.5985,61.2541 87.2065,60.1931 86.8095,59.1241 C85.7665,56.3241 84.6595,53.5601 83.4555,50.9351 C83.3095,50.6151 83.1575,50.3161 83.0105,50.0021 C82.5975,49.1251 82.1805,48.2661 81.7585,47.4331 C79.3665,42.7061 76.8425,38.6941 74.2545,35.4581 C73.6405,34.6911 73.0215,33.9691 72.4025,33.2911 C68.0785,28.5601 63.6355,26.0001 59.4005,26.0001 C51.3885,26.0001 42.6205,35.0891 35.3475,50.9371 C32.4855,57.1711 30.0545,64.0941 28.2535,70.7551 C26.4065,77.5901 25.2705,84.0871 25.0755,89.3081 C25.0675,89.5231 25.0495,89.7511 25.0445,89.9621 C25.0425,90.0421 25.0345,90.1311 25.0325,90.2101 C25.0285,90.4301 24.9995,90.6841 24.9995,90.8981 C24.9995,91.4821 25.0585,92.0511 25.0875,92.6271 C25.1025,92.9331 25.1105,93.2401 25.1345,93.5431 C25.2025,94.4331 25.3135,95.3081 25.4485,96.1761 C25.4785,96.3731 25.5045,96.5711 25.5385,96.7671 C25.6995,97.6971 25.9015,98.6111 26.1365,99.5151 C26.1755,99.6671 26.2125,99.8211 26.2535,99.9721 C26.5005,100.8711 26.7845,101.7531 27.1015,102.6221 C27.1435,102.7391 27.1855,102.8571 27.2295,102.9731 C27.2555,103.0411 27.2795,103.1111 27.3055,103.1791 C27.6125,103.9791 27.9495,104.7611 28.3125,105.5301 C28.3795,105.6701 28.4465,105.8091 28.5145,105.9481 C28.5805,106.0821 28.6415,106.2181 28.7085,106.3521 C29.0395,107.0061 29.3915,107.6461 29.7625,108.2771 C29.8975,108.5061 30.0375,108.7331 30.1775,108.9581 C30.2695,109.1071 30.3555,109.2591 30.4495,109.4061 C30.7725,109.9091 31.1085,110.4001 31.4555,110.8841" id="Fill-3" stroke="#FFFFFF" stroke-width="0.9"></path>
        <path d="M102.9047,68.5628 C101.5887,82.6228 97.3417,98.3918 92.4057,107.8368 C97.2837,102.9418 102.0697,97.3488 106.0457,91.7448 C110.0347,86.1208 112.9737,80.8308 114.8427,76.0498 C115.1987,75.1418 115.5117,74.2528 115.7887,73.3838 C117.7347,67.2588 117.7337,62.1188 115.6127,58.4458 C113.4967,54.7788 109.0567,52.2118 102.7967,50.8338 C103.4687,55.9748 103.4197,61.2628 103.1287,65.6918 C103.0617,66.6918 102.9887,67.6648 102.9047,68.5628" id="Fill-1" stroke="#FFFFFF" stroke-width="0.9"></path>
        <path d="M99.478,47.5315 C98.101,41.2595 95.531,36.8105 91.858,34.6905 C88.184,32.5665 83.043,32.5665 76.918,34.5125 C79.732,38.1835 82.32,42.5215 84.624,47.2045 C85.045,48.0595 85.458,48.9265 85.861,49.8025 C87.415,53.1855 88.819,56.7045 90.067,60.2335 C90.451,61.3205 90.824,62.4075 91.176,63.4935 C94.279,73.0295 96.154,82.3685 96.451,89.0875 C98.23,82.4035 99.581,75.1595 100.221,68.3115 C100.254,67.9665 100.273,67.6355 100.301,67.2935 C100.382,66.3275 100.452,65.3755 100.503,64.4425 C100.796,59.1515 100.617,54.4125 99.994,50.3155 C99.847,49.3495 99.674,48.4235 99.478,47.5315" id="Fill-6" stroke="#FFFFFF" stroke-width="0.9" fill="#FFFFFF"></path>
        <path d="M116.9926,77.886 C109.8796,95.023 91.4726,114.419 79.5546,122.043 C86.2126,120.244 93.1326,117.815 99.3636,114.954 C115.2096,107.683 124.2996,98.914 124.2996,90.9 C124.2996,86.661 121.7326,82.213 116.9926,77.886" id="Fill-8" stroke="#FFFFFF" stroke-width="0.9"></path>
    </g>
</svg>