<?xml version="1.0" encoding="UTF-8"?>
<svg width="150px" height="150px" viewBox="0 0 150 150" version="1.1" xmlns="http://www.w3.org/2000/svg" xmlns:xlink="http://www.w3.org/1999/xlink">
    <!-- Generator: Sketch 50.2 (55047) - http://www.bohemiancoding.com/sketch -->
    <title>Events/Learning-Analytics</title>
    <desc>Created with Sketch.</desc>
    <defs>
        <polygon id="path-1" points="0 150 150 150 150 0 0 0"></polygon>
    </defs>
    <g id="Events/Learning-Analytics" stroke="none" stroke-width="1" fill="none" fill-rule="evenodd">
        <mask id="mask-2" fill="white">
            <use xlink:href="#path-1"></use>
        </mask>
        <g id="Fill-1"></g>
        <path d="M66.3348522,39.3050592 L31.5923053,71.7684872 C32.010071,72.2014053 32.266282,72.7857076 32.266282,73.4285501 C32.266282,74.7634741 31.1628178,75.8454387 29.8019279,75.8454387 C28.4408536,75.8454387 27.3373895,74.7634741 27.3373895,73.4285501 C27.3373895,72.5686774 27.7958024,71.8135449 28.4861413,71.3853519 L18.5998366,58.0247826 C18.241993,58.2233544 17.828499,58.3366937 17.3880389,58.3366937 C16.462745,58.3366937 15.6565091,57.836649 15.2350909,57.0970255 L-7.59285347,72.8379347 L-8,72.2702433 L14.9776575,56.4261001 C14.9421735,56.2628323 14.9235005,56.093459 14.9235005,55.919805 C14.9235005,54.5857159 16.0269646,53.5037513 17.3880389,53.5037513 C18.7489289,53.5037513 19.852393,54.5857159 19.852393,55.919805 C19.852393,56.5725683 19.5885433,57.1648464 19.1597647,57.5997101 L29.1482822,71.098412 C29.3564509,71.0424063 29.5756287,71.0124963 29.8019279,71.0124963 C30.2495617,71.0124963 30.6693438,71.1295575 31.0311656,71.3341477 L65.8507272,38.7987571 C65.5716104,38.4070247 65.4078792,37.9303951 65.4078792,37.4162625 C65.4078792,36.0819646 66.5113434,35 67.8724177,35 C69.2336764,35 70.3367718,36.0819646 70.3367718,37.4162625 C70.3367718,37.918882 70.1803438,38.3856594 69.9126083,38.7723135 L105.841489,78.0467056 L140.918185,50.3453179 C140.779235,50.042763 140.701917,49.7071009 140.701917,49.3537115 C140.701917,48.0196224 141.805197,46.9376577 143.166271,46.9376577 C144.52753,46.9376577 145.63081,48.0196224 145.63081,49.3537115 C145.63081,49.7571333 145.530049,50.1374528 145.351858,50.4717894 L155.184277,60.1231896 C155.515055,59.9614109 155.888137,59.8703989 156.282889,59.8703989 C157.541451,59.8703989 158.579333,60.7952691 158.728771,61.9891722 L182,66.9424345 L181.849854,67.6206497 L158.712057,62.6957884 C158.513836,63.8357276 157.501872,64.7033413 156.282889,64.7033413 C154.921815,64.7033413 153.818351,63.6213767 153.818351,62.2864527 C153.818351,61.5926871 154.116761,60.9671037 154.594628,60.5264044 L144.931115,51.0408005 C144.483505,51.49104 143.858217,51.7706001 143.166271,51.7706001 C142.421143,51.7706001 141.753277,51.4463262 141.3014,50.9337994 L105.762761,79 L69.4326836,39.2870534 C69.0077978,39.6282318 68.4645304,39.8329424 67.8724177,39.8329424 C67.2908747,39.8329424 66.7563604,39.6354215 66.3348522,39.3050592 Z" id="Combined-Shape" fill="#FFFFFF" mask="url(#mask-2)"></path>
        <path d="M27.726922,58.3136453 L-7.51530041,91.4571219 L-8,90.942086 L27.2668228,57.775474 C27.0265262,57.3952844 26.8874431,56.9447586 26.8874431,56.4617275 C26.8874431,55.1024184 27.9902617,54 29.3503554,54 C30.7106335,54 31.813452,55.1024184 31.813452,56.4617275 C31.813452,56.9897348 31.6472624,57.4789016 31.3643359,57.8798151 L67.5326285,113.169643 C67.7474953,113.108454 67.9743494,113.075694 68.2088612,113.075694 C68.6154878,113.075694 68.9990549,113.174132 69.337029,113.348459 L91.9123794,88.0211461 C91.6133923,87.6135641 91.4368192,87.1106471 91.4368192,86.5665651 C91.4368192,85.2068306 92.5396377,84.1046249 93.8999158,84.1046249 C95.2603781,84.1046249 96.362828,85.2068306 96.362828,86.5665651 C96.362828,86.6454459 96.3591179,86.7234615 96.3518624,86.8004467 L116.774383,96.2752126 C117.221775,95.6566277 117.949722,95.2541394 118.771755,95.2541394 C119.165592,95.2541394 119.537808,95.346501 119.867918,95.5107345 L141.407162,69.5293805 C141.081695,69.1119594 140.887801,68.5869526 140.887801,68.0166306 C140.887801,66.6573215 141.990619,65.5549031 143.350897,65.5549031 C144.71136,65.5549031 145.81381,66.6573215 145.81381,68.0166306 C145.81381,68.9096101 145.338625,69.6914964 144.627215,70.1232635 L155.92019,95.1159161 C156.196406,95.008783 156.496752,94.9500143 156.810822,94.9500143 C157.484255,94.9500143 158.094468,95.2201374 158.539038,95.6578559 L181.705414,85.0499457 L182,85.6928396 L158.975125,96.2359564 C159.165545,96.5853998 159.273735,96.9860616 159.273735,97.4119545 C159.273735,98.7719016 158.171285,99.87432 156.810822,99.87432 C155.450544,99.87432 154.347726,98.7719016 154.347726,97.4119545 C154.347726,96.6205383 154.721442,95.9162476 155.302111,95.4658359 L143.975748,70.3992884 C143.776213,70.4514433 143.566804,70.4792088 143.350897,70.4792088 C142.816773,70.4792088 142.322343,70.3092372 141.918787,70.0204309 L120.451308,95.91522 C120.933376,96.3646221 121.234759,97.0051511 121.234759,97.7160796 C121.234759,99.0758141 120.132268,100.178445 118.771755,100.178445 C117.411426,100.178445 116.30875,99.0758141 116.30875,97.7160796 C116.30875,97.4310076 116.357218,97.1572551 116.446365,96.9026058 L96.1796528,87.5001251 C95.8118079,88.3970648 94.9297892,89.0289306 93.8999158,89.0289306 C93.3396108,89.0289306 92.8229879,88.8418522 92.4091258,88.5267859 L69.9155571,113.762347 C70.3818322,114.210281 70.6719578,114.839993 70.6719578,115.537422 C70.6719578,116.897369 69.5695078,118 68.2088612,118 C66.8485832,118 65.7459489,116.897369 65.7459489,115.537422 C65.7459489,114.666979 66.19795,113.902018 66.8801765,113.464286 L30.8629623,58.405409 C30.4455058,58.7306028 29.9205494,58.9243057 29.3503554,58.9243057 C28.7284857,58.9243057 28.1604007,58.6938393 27.726922,58.3136453 Z" id="Combined-Shape" fill-opacity="0.5" fill="#FFFFFF" mask="url(#mask-2)"></path>
        <path d="M28.1374991,89.2958948 L-8,49.4669181 L-7.47350087,49 L28.7186787,88.8892427 C29.0537108,88.7205966 29.432982,88.6255091 29.8347116,88.6255091 C30.6391998,88.6255091 31.3536645,89.0069376 31.80308,89.5968299 L65.8236753,73.5819364 C65.780254,73.4008836 65.7572719,73.212004 65.7572719,73.0178115 C65.7572719,71.6736424 66.8597625,70.5835028 68.2198633,70.5835028 C69.5799641,70.5835028 70.682639,71.6736424 70.682639,73.0178115 C70.682639,73.4938855 70.5444908,73.9380282 70.3056771,74.3131993 L78.5499011,82.7865691 C78.9302218,82.5488438 79.3809429,82.4112424 79.8641404,82.4112424 C80.5950761,82.4112424 81.2516639,82.7260277 81.7027114,83.2259223 L102.825483,68.5002908 C102.657363,68.1709141 102.562668,67.7986206 102.562668,67.404436 C102.562668,66.0602669 103.665159,64.9701273 105.02526,64.9701273 C106.385545,64.9701273 107.488036,66.0602669 107.488036,67.404436 C107.488036,68.1238399 107.17263,68.7703293 106.671072,69.2160932 L130.459302,112.254124 C130.703496,112.173949 130.964665,112.130541 131.236093,112.130541 C131.559074,112.130541 131.867521,112.191987 132.150128,112.303695 L168.844311,55.0499977 L182,61.1963728 L181.697806,61.8285884 L169.107222,55.9462322 L132.762644,112.654445 C133.332957,113.100296 133.698869,113.790348 133.698869,114.56485 C133.698869,115.90965 132.596378,117 131.236093,117 C129.875992,117 128.773502,115.90965 128.773502,114.56485 C128.773502,113.738498 129.190046,113.008283 129.826923,112.568233 L106.080307,69.6054908 C105.760527,69.7556005 105.402824,69.8395859 105.02526,69.8395859 C104.318099,69.8395859 103.680578,69.5448884 103.231447,69.0728935 L82.0932484,83.8092799 C82.243125,84.123701 82.326916,84.4749583 82.326916,84.8455511 C82.326916,86.190351 81.2242412,87.280701 79.8641404,87.280701 C78.5042238,87.280701 77.401549,86.190351 77.401549,84.8455511 C77.401549,84.2313033 77.6317413,83.6701741 78.0114872,83.2418528 L69.8445751,74.8479437 C69.4109598,75.2245936 68.842375,75.4529614 68.2198633,75.4529614 C67.3073915,75.4529614 66.5108668,74.9623034 66.0854067,74.2332028 L32.1434632,90.2110717 C32.242938,90.4753444 32.297303,90.7613085 32.297303,91.0598178 C32.297303,92.4046177 31.1946281,93.4949676 29.8347116,93.4949676 C28.4746108,93.4949676 27.3719359,92.4046177 27.3719359,91.0598178 C27.3719359,90.3656719 27.6659074,89.7393621 28.1374991,89.2958948 Z" id="Combined-Shape" fill-opacity="0.75" fill="#FFFFFF" mask="url(#mask-2)"></path>
    </g>
</svg>