<?xml version="1.0" encoding="UTF-8"?>
<svg width="150px" height="150px" viewBox="0 0 150 150" version="1.1" xmlns="http://www.w3.org/2000/svg" xmlns:xlink="http://www.w3.org/1999/xlink">
    <!-- Generator: Sketch 50.2 (55047) - http://www.bohemiancoding.com/sketch -->
    <title>Events/LunchLearn</title>
    <desc>Created with Sketch.</desc>
    <defs></defs>
    <g id="Events/LunchLearn" stroke="none" stroke-width="1" fill="none" fill-rule="evenodd">
        <g id="Group" transform="translate(34.000000, 32.000000)" fill="#FFFFFF">
            <path d="M76.6532813,13.58417 C74.4148821,7.85439013 71.1825675,5.29576018 65.1241602,4.46224319 C65.0806218,4.45499723 65.0370928,4.45499723 64.9971857,4.45499723 C64.6525472,4.37889149 64.2970149,4.33902481 63.9451325,4.31365932 C63.9306166,4.3100317 63.919732,4.30278575 63.9015941,4.29915813 L30.17051,0.0444547063 C28.3493844,-0.162124649 26.5572348,0.356132909 25.1278429,1.49772832 C22.6863328,3.4439311 22.2872622,7.01003668 24.2353994,9.44907587 C24.9609614,10.3587357 25.9984801,10.9675724 27.1666232,11.1597155 L33.9978179,12.1418627 C32.1911802,19.9736195 29.0059517,28.4253185 26.3903068,35.3474804 C26.2161719,35.8041241 26.4628676,36.2716321 26.9199647,36.4456 C27.0142854,36.4818484 27.1122374,36.4963403 27.2101894,36.4963403 C27.5802283,36.4963403 27.9357514,36.2535219 28.0736105,35.8911127 C30.6964994,28.9508591 33.9325289,20.3721471 35.7608985,12.3774723 L61.3220485,15.4543598 C61.354693,15.4579874 61.3909687,15.4616058 61.4236318,15.4616058 C62.6425758,15.6138172 63.9159428,15.302139 64.949886,14.4794585 C66.6476777,13.1240656 66.9270365,10.6415136 65.5738739,8.94544012 C65.2727646,8.56490213 64.7140842,8.50329758 64.3331978,8.80772055 C63.9522743,9.11214351 63.8906074,9.66664013 64.1953387,10.047141 C64.9426699,10.9857754 64.7902949,12.3557344 63.8507003,13.1059368 C62.5845773,14.1170308 60.7271388,13.9068702 59.7150205,12.6420471 C59.0656414,11.8302402 58.7718132,10.8118168 58.8878845,9.77901277 C59.0039559,8.74620877 59.5154944,7.81833662 60.3317644,7.16963329 C62.5266067,5.41919194 65.7371892,5.78158257 67.4894039,7.97419428 C68.526969,9.27521929 69.0312636,10.9024515 68.9187957,12.4717903 C67.3878948,21.1516395 63.8289497,31.4439507 60.9702496,39.7141853 C59.0366561,45.3098083 57.5092844,49.7314192 57.1103066,52.1844679 C56.2468855,57.4829231 56.8708734,74.6107509 57.0558929,79.0937808 L45.9474816,77.4991136 C45.4649841,77.4302538 45.0187623,77.7636792 44.9498514,78.2456884 C44.8809218,78.7276976 45.214685,79.1734678 45.6971825,79.242309 L57.8541178,80.9891274 C57.8976562,80.9963761 57.937554,81 57.977461,81 C58.1008042,81 58.2132721,80.9710069 58.3184775,80.9238924 C58.3293621,80.9202685 58.3366153,80.9202685 58.3474999,80.9166446 L82.4904863,69.6923697 C82.8206181,69.5401583 83.0201441,69.199487 82.9983843,68.8370685 C82.8786631,66.9307602 80.0417136,22.2634718 76.6533742,13.583168 L76.6532813,13.58417 Z M57.1288159,9.57226642 C56.9800722,10.8842392 57.2884442,12.1816459 57.9994903,13.2761472 L35.2022182,10.5327036 L27.4314382,9.41649226 C26.7131296,9.29689222 26.0637134,8.91998185 25.6103126,8.35103043 C24.2680346,6.67304865 24.5473934,4.2195361 26.2270379,2.87861658 C27.2899571,2.03057056 28.6213691,1.64643279 29.9600251,1.79858861 L59.5740966,5.53503448 C59.4543754,5.61838618 59.3346635,5.69450119 59.2185736,5.78509885 C58.0395645,6.72373324 57.2958461,8.07188945 57.1289552,9.57229425 L57.1288159,9.57226642 Z M58.8012536,78.7530631 C58.6126121,73.9510626 58.0357846,57.4252709 58.8447827,52.4597957 C59.2220749,50.1548206 60.8038231,45.5775283 62.6321928,40.2789803 C65.5127085,31.950676 69.0932928,21.5860815 70.6605065,12.6812551 C70.7983656,10.7821835 70.2940989,8.91576973 69.2202487,7.35737872 C71.9230075,8.56785247 73.6135552,10.6698294 75.0030121,14.2286983 C78.0866388,22.125678 80.8364837,62.8860875 81.1920903,68.3405024 L58.8012536,78.7530631 Z" id="Fill-1"></path>
            <path d="M43.9924541,50.2243819 C40.0476472,45.8742912 35.8185484,44.961423 32.967976,44.961423 C29.3841807,44.961423 26.2378364,46.3508374 24.3675392,47.8929553 L24.3675392,47.5801554 C24.4258722,44.8704155 25.4393738,40.254863 31.5497831,39.7675158 C32.0383247,39.7275056 32.4029015,39.3019567 32.3627964,38.8146095 C32.3226913,38.327225 31.8961321,37.959871 31.4076279,38.0035218 C23.6274935,38.6218401 22.6503918,44.881412 22.5920587,47.543758 C22.5884187,47.6528758 22.5884187,47.7547122 22.5847694,47.8565579 C20.7071922,46.3289655 17.5863278,44.9613392 14.0316523,44.9613392 C11.1806133,44.9613392 6.95151447,45.8742726 3.00717424,50.2242981 C-3.73397863,57.6587176 2.85405234,72.847675 3.62696047,74.5534834 C4.38529,76.2302409 10.0508749,85.5993376 16.8830273,86.7781332 C17.7325057,86.9236204 18.5199925,86.9963686 19.212709,86.9963686 C21.7939227,86.9963686 22.8876906,85.9670176 23.4819409,85.2505222 C24.0689206,85.9815989 25.1517592,87 27.7475329,87 C28.4511787,87 29.245992,86.9236185 30.1099744,86.7781332 C36.9422201,85.5997101 42.6081784,76.2304271 43.3660412,74.5534834 C44.146248,72.847675 50.7342043,57.6620696 43.9931261,50.2242981 L43.9924541,50.2243819 Z M41.7539586,73.826364 C41.1633389,75.1284395 35.8732415,83.9923116 29.8138852,85.0323705 C29.0482663,85.1633043 28.3555592,85.2324119 27.7503889,85.2324119 C25.6795192,85.2324119 25.129042,84.4977039 24.6842176,83.9048237 C24.6040073,83.7993466 24.5310957,83.7011416 24.4581747,83.61749 C24.2321318,83.3519723 24.1482816,83.257408 24.1482816,83.257408 C23.9805718,83.0755513 23.7435996,82.9700742 23.4956795,82.9700742 L23.4774516,82.9700742 C23.2222422,82.9773491 22.9816208,83.0901047 22.8175603,83.2828741 L22.5295444,83.6174993 C22.4529834,83.7047916 22.3764225,83.8029966 22.2925629,83.9084737 C21.8295479,84.4976945 21.2534881,85.2287992 19.2154716,85.2287992 C18.6212026,85.2287992 17.9394247,85.1633295 17.1847352,85.0323891 C11.1217389,83.9885126 5.83172541,75.1243612 5.24092838,73.8226581 C4.95291249,73.1861551 -1.76631649,58.1212133 4.31853833,51.410645 C7.09668441,48.3481044 10.4544276,46.7296349 14.0307563,46.7296349 C18.8104257,46.7296349 22.2885682,49.4720571 22.6567664,50.5922853 C22.6604157,50.603198 22.667705,50.61047 22.6713543,50.6213827 C22.6895822,50.6795776 22.7078101,50.7159471 22.7223887,50.7450445 C22.7333273,50.7632293 22.7479153,50.7777827 22.7588539,50.7959674 C22.7770818,50.8250648 22.802599,50.8541623 22.8244762,50.8832597 C22.8572827,50.9232699 22.8937479,50.9596393 22.933853,50.9923775 C22.9593702,51.0142029 22.9848967,51.036019 23.0140633,51.0505723 C23.0614577,51.0796698 23.1125014,51.1051265 23.1635452,51.126952 C23.1927117,51.1378647 23.2182289,51.1524087 23.2473954,51.1596901 C23.3276057,51.1851468 23.4114559,51.1996909 23.4953062,51.1996909 L23.4989555,51.1996909 C23.5828058,51.1996909 23.6666653,51.1851468 23.7505156,51.1596901 C23.7760328,51.1524087 23.80155,51.1378647 23.8270765,51.1305926 C23.859883,51.1160392 23.8963482,51.1087672 23.9255147,51.0905825 C23.9437426,51.0796698 23.9546812,51.0687571 23.9692598,51.0578444 C24.005725,51.036019 24.0385315,51.0069215 24.0713473,50.9778241 C24.1078031,50.9450953 24.1442683,50.9123572 24.1734348,50.8759784 C24.1989613,50.8468809 24.2208292,50.8141521 24.2390665,50.781414 C24.2645837,50.7377725 24.2901009,50.6904903 24.3083288,50.6431988 C24.3156274,50.6250141 24.330206,50.61047 24.3374953,50.5886446 C24.7057215,49.4684164 28.183836,46.7259942 32.9598654,46.7259942 C36.5363808,46.7259942 39.8942173,48.3445569 42.6720834,51.4070043 C48.7641995,58.1248353 42.0449985,73.1867882 41.7533333,73.8264664 L41.7539586,73.826364 Z" id="Fill-2"></path>
            <path d="M11.5052985,36.7893427 L11.7391986,36.9014399 C11.9656755,37.0822451 12.63026,37.7367672 12.8641696,38.2177419 C12.9087179,38.3117594 12.9644152,38.4347155 13.0275356,38.5865915 C13.499052,39.6642391 14.4791816,41.9097933 16.4024486,43.1393539 C17.2823705,43.703478 18.2922592,44 19.3243697,44 C20.9839775,44 22.5025363,43.2189115 23.28591,41.967735 C24.7747192,39.5810988 23.8873741,36.8327782 21.0731312,35.1296118 C18.6412701,33.6578791 15.4631985,33.6180725 11.9063665,35.0464439 L11.557365,35.1874702 C11.2306425,35.3212667 11.0115887,35.6286383 11.0004493,35.9721784 C10.9893098,36.3193288 11.1860847,36.6375501 11.5053841,36.7894261 L11.5052985,36.7893427 Z M20.1225991,36.6229975 C22.0866411,37.8127515 22.7067248,39.5086972 21.7450438,41.0528223 C21.2883736,41.786902 20.3639223,42.2388734 19.32801,42.2388734 C18.6485792,42.2388734 17.9839567,42.0399886 17.3974244,41.6675193 C15.9308561,40.7309537 15.095492,38.8144055 14.6944905,37.8995021 C14.6202307,37.7295465 14.5571198,37.5849005 14.501432,37.472794 C14.3120802,37.0786348 13.9927809,36.6555463 13.6623515,36.2903533 C16.209314,35.4803356 18.4220928,35.5924328 20.1225706,36.6230438 L20.1225991,36.6229975 Z" id="Fill-3"></path>
        </g>
    </g>
</svg>