<?xml version="1.0" encoding="UTF-8"?>
<svg width="150px" height="150px" viewBox="0 0 150 150" version="1.1" xmlns="http://www.w3.org/2000/svg" xmlns:xlink="http://www.w3.org/1999/xlink">
    <!-- Generator: Sketch 51.2 (57519) - http://www.bohemiancoding.com/sketch -->
    <title>Events/MixedReality</title>
    <desc>Created with Sketch.</desc>
    <defs></defs>
    <g id="Events/MixedReality" stroke="none" stroke-width="1" fill="none" fill-rule="evenodd">
        <g id="Group-12" transform="translate(10.000000, 7.000000)" fill="#FFFFFF">
            <polygon id="Fill-15" points="107.493784 125.653832 96.5441176 125.653832 96.5441176 128.088235 109.926471 128.088235 109.926471 114.705882 107.493784 114.705882"></polygon>
            <polygon id="Fill-16" points="22.5062163 114.705882 20.0735294 114.705882 20.0735294 128.088235 33.4558824 128.088235 33.4558824 125.653832 22.5062163 125.653832"></polygon>
            <polygon id="Fill-17" points="22.5062163 22.5076208 33.4558824 22.5076208 33.4558824 20.0735294 20.0735294 20.0735294 20.0735294 33.4558824 22.5062163 33.4558824"></polygon>
            <polygon id="Fill-18" points="107.493784 33.4558824 109.926471 33.4558824 109.926471 20.0735294 96.5441176 20.0735294 96.5441176 22.5076208 107.493784 22.5076208"></polygon>
            <path d="M65.708947,14.9201398 L115.199753,43.6782048 L115.199753,101.194335 L108.969637,97.5728116 L107.781912,99.6415309 L114.013703,103.261368 L64.5228964,132.019433 L15.0320902,103.261368 L21.2638812,99.6415309 L20.0761554,97.5728116 L13.8443645,101.194335 L13.8443645,43.6782048 L63.3351707,14.9201398 L63.3351707,22.1631865 L65.708947,22.1631865 L65.708947,14.9201398 Z M11.4705882,42.2973726 L11.4705882,103.952627 L64.5228964,134.779412 L117.573529,103.952627 L117.573529,42.2973726 L64.5228964,11.4705882 L11.4705882,42.2973726 Z" id="Fill-19"></path>
            <polygon id="Fill-20" points="43.9705882 85.8726268 45.0879147 87.9411765 52.5735294 83.3168638 51.4562029 81.25"></polygon>
            <polygon id="Fill-21" points="28.6764706 94.4760891 29.7937971 96.5441176 37.2794118 91.9192843 36.1620853 89.8529412"></polygon>
            <polygon id="Fill-22" points="0 110.562634 1.08054941 112.794118 4.77941176 110.244371 3.69886236 108.014706"></polygon>
            <polygon id="Fill-23" points="126.300793 108.014706 125.220588 110.246189 128.919795 112.794118 130 110.562634"></polygon>
            <polygon id="Fill-24" points="84.1176471 85.8726268 76.6320324 81.25 75.5147059 83.3168638 83.0003206 87.9411765"></polygon>
            <polygon id="Fill-25" points="101.323529 94.4760891 93.8379147 89.8529412 92.7205882 91.9192843 100.206203 96.5441176"></polygon>
            <polygon id="Fill-26" points="64.0441176 4.77941176 65.9558824 4.77941176 65.9558824 0 64.0441176 0"></polygon>
            <polygon id="Fill-27" points="64.0441176 41.1029412 65.9558824 41.1029412 65.9558824 32.5 64.0441176 32.5"></polygon>
            <polygon id="Fill-28" points="64.0441176 59.2647059 65.9558824 59.2647059 65.9558824 50.6617647 64.0441176 50.6617647"></polygon>
            <polygon id="Fill-29" points="67.7717839 69.7794118 65.0939733 69.7794118 65.0939733 74.054986 61.1764706 76.1927731 62.5163208 78.3823529 66.4338235 76.2463518 70.3513263 78.3823529 71.6911765 76.1927731 67.7717839 74.054986"></polygon>
        </g>
    </g>
</svg>