<?xml version="1.0" encoding="UTF-8"?>
<svg width="150px" height="150px" viewBox="0 0 150 150" version="1.1" xmlns="http://www.w3.org/2000/svg" xmlns:xlink="http://www.w3.org/1999/xlink">
    <!-- Generator: Sketch 50.2 (55047) - http://www.bohemiancoding.com/sketch -->
    <title>Projects/QLT Copy</title>
    <desc>Created with Sketch.</desc>
    <defs></defs>
    <g id="Projects/QLT-Copy" stroke="none" stroke-width="1" fill="none" fill-rule="evenodd">
        <g id="Page-1" transform="translate(34.000000, 22.000000)">
            <path d="M81.837984,80.1711959 L81.837984,37.4696951 C81.837984,34.1975744 79.1738185,31.5370468 75.8950802,31.5370468 L59.6344988,31.5370468 C59.4968135,33.1870218 59.282225,34.8211254 58.9994475,36.4310957 L75.9007444,36.4310957 C76.4721817,36.4310957 76.9414443,36.8978893 76.9414443,37.4696951 L76.9414443,53.8109484 C70.9390657,53.8287765 66.0765115,58.6876039 66.0765115,64.6837379 C66.0765115,66.2819677 66.4229032,67.8049714 67.0474974,69.172957 C65.0477938,70.9442505 63.4519959,73.1660313 62.415871,75.6700189 C60.3924211,74.1291871 57.8598408,73.2177764 55.1196434,73.2177764 C53.2693893,73.2177764 51.5228348,73.6328248 49.9551404,74.3774769 L49.9551404,51.2834797 L50.794541,51.2834797 L50.111997,49.7604761 C50.4586064,49.1667112 50.7886588,48.5609884 51.1067291,47.9315672 L61.2716894,51.2834797 L61.2716894,47.9139564 L54.4431994,38.8139823 C55.3743175,35.0337589 55.8760407,30.9608927 55.8760407,26.7019178 C55.8760407,16.1130745 52.7423947,6.62022845 47.7881231,0.1631712 C42.8323264,6.62022845 39.6984626,16.1189447 39.6984626,26.7019178 C39.6984626,30.9608927 40.2062858,35.0337589 41.1313039,38.8139823 L34.3032497,47.9139564 L34.3032497,51.2834797 L44.467992,47.9315672 C44.7862802,48.5551181 45.1161147,49.1667112 45.4625064,49.7604761 L44.7801802,51.2834797 L45.6195808,51.2834797 L45.6195808,74.9668934 C43.4333922,73.0212318 40.5483203,71.8380503 37.3850458,71.8380503 C36.2467463,71.8380503 35.1424324,71.9885027 34.0958504,72.2765797 C33.7420517,67.42384 29.6833875,63.5977417 24.7275909,63.5977417 C22.5427094,63.5977417 20.5251416,64.3423937 18.9278187,65.5951485 C15.5336165,63.4485939 11.510463,62.2019268 7.19712473,62.2019268 C6.46294878,62.2019268 5.73312995,62.241714 5.01660035,62.3112873 L5.01660035,37.4579546 C5.01660035,36.8861488 5.48433798,36.4193553 6.05708236,36.4193553 L36.5648166,36.4193553 C36.2746319,34.8091675 36.0674505,33.1768033 35.9284582,31.5253063 L6.05120024,31.5253063 C2.77246192,31.5253063 0.1082964,34.1858339 0.1082964,37.4579546 L0.1082964,81.1978374 L0.1082964,81.2730635 L0.1082964,89.2076844 L0.1082964,89.3005213 L0.1082964,89.7331804 L0.1082964,89.8249303 L0.1082964,89.9342908 C0.217660297,92.7278774 2.51364855,94.9555285 5.34077063,94.9555285 L31.8636941,94.9555285 C31.8223014,95.8906375 31.4003136,99.3414747 27.4052635,101.267786 L27.4052635,101.279527 C26.3009496,101.815894 24.9184331,102.232464 23.1954071,102.451185 L23.4500812,102.451185 C22.1904356,102.451185 21.1719571,103.467391 21.1719571,104.724711 C21.1719571,105.983119 22.1904356,106.99802 23.4500812,106.99802 L58.3807354,106.99802 C59.6403809,106.99802 60.6588594,105.983119 60.6588594,104.724711 C60.6588594,103.467391 59.6403809,102.451185 58.3807354,102.451185 L58.7626376,102.451185 C50.794541,101.452373 50.1403183,96.1269694 50.0943506,94.9555285 L76.6113919,94.9555285 C79.4326319,94.9555285 81.7342844,92.7278774 81.8438661,89.9342908 L81.8499661,89.9342908 L81.8499661,80.1533677 L81.837984,80.1711959 Z" id="Stroke-1" stroke="#FFFFFF" stroke-width="1.30304348"></path>
            <path d="M81.837984,80.1711959 L81.837984,37.4696951 C81.837984,34.1975744 79.1738185,31.5370468 75.8950802,31.5370468 L59.6344988,31.5370468 C59.4968135,33.1870218 59.282225,34.8211254 58.9994475,36.4310957 L75.9007444,36.4310957 C76.4721817,36.4310957 76.9414443,36.8978893 76.9414443,37.4696951 L76.9414443,53.8109484 C70.9390657,53.8287765 66.0765115,58.6876039 66.0765115,64.6837379 C66.0765115,66.2819677 66.4229032,67.8049714 67.0474974,69.172957 C65.0477938,70.9442505 63.4519959,73.1660313 62.415871,75.6700189 C60.3924211,74.1291871 57.8598408,73.2177764 55.1196434,73.2177764 C53.2693893,73.2177764 51.5228348,73.6328248 49.9551404,74.3774769 L49.9551404,51.2834797 L50.794541,51.2834797 L50.111997,49.7604761 C50.4586064,49.1667112 50.7886588,48.5609884 51.1067291,47.9315672 L61.2716894,51.2834797 L61.2716894,47.9139564 L54.4431994,38.8139823 C55.3743175,35.0337589 55.8760407,30.9608927 55.8760407,26.7019178 C55.8760407,16.1130745 52.7423947,6.62022845 47.7881231,0.1631712 C42.8323264,6.62022845 39.6984626,16.1189447 39.6984626,26.7019178 C39.6984626,30.9608927 40.2062858,35.0337589 41.1313039,38.8139823 L34.3032497,47.9139564 L34.3032497,51.2834797 L44.467992,47.9315672 C44.7862802,48.5551181 45.1161147,49.1667112 45.4625064,49.7604761 L44.7801802,51.2834797 L45.6195808,51.2834797 L45.6195808,74.9668934 C43.4333922,73.0212318 40.5483203,71.8380503 37.3850458,71.8380503 C36.2467463,71.8380503 35.1424324,71.9885027 34.0958504,72.2765797 C33.7420517,67.42384 29.6833875,63.5977417 24.7275909,63.5977417 C22.5427094,63.5977417 20.5251416,64.3423937 18.9278187,65.5951485 C15.5336165,63.4485939 11.510463,62.2019268 7.19712473,62.2019268 C6.46294878,62.2019268 5.73312995,62.241714 5.01660035,62.3112873 L5.01660035,37.4579546 C5.01660035,36.8861488 5.48433798,36.4193553 6.05708236,36.4193553 L36.5648166,36.4193553 C36.2746319,34.8091675 36.0674505,33.1768033 35.9284582,31.5253063 L6.05120024,31.5253063 C2.77246192,31.5253063 0.1082964,34.1858339 0.1082964,37.4579546 L0.1082964,81.1978374 L0.1082964,81.2730635 L0.1082964,89.2076844 L0.1082964,89.3005213 L0.1082964,89.7331804 L0.1082964,89.8249303 L0.1082964,89.9342908 C0.217660297,92.7278774 2.51364855,94.9555285 5.34077063,94.9555285 L31.8636941,94.9555285 C31.8223014,95.8906375 31.4003136,99.3414747 27.4052635,101.267786 L27.4052635,101.279527 C26.3009496,101.815894 24.9184331,102.232464 23.1954071,102.451185 L23.4500812,102.451185 C22.1904356,102.451185 21.1719571,103.467391 21.1719571,104.724711 C21.1719571,105.983119 22.1904356,106.99802 23.4500812,106.99802 L58.3807354,106.99802 C59.6403809,106.99802 60.6588594,105.983119 60.6588594,104.724711 C60.6588594,103.467391 59.6403809,102.451185 58.3807354,102.451185 L58.7626376,102.451185 C50.794541,101.452373 50.1403183,96.1269694 50.0943506,94.9555285 L76.6113919,94.9555285 C79.4326319,94.9555285 81.7342844,92.7278774 81.8438661,89.9342908 L81.8499661,89.9342908 L81.8499661,80.1533677 L81.837984,80.1711959 Z" id="Fill-3" fill-opacity="0.6" fill="#FFFFFF"></path>
        </g>
    </g>
</svg>