<?xml version="1.0" encoding="UTF-8"?>
<svg width="150px" height="150px" viewBox="0 0 150 150" version="1.1" xmlns="http://www.w3.org/2000/svg" xmlns:xlink="http://www.w3.org/1999/xlink">
    <!-- Generator: Sketch 50.2 (55047) - http://www.bohemiancoding.com/sketch -->
    <title>Events/OLMRoadshow</title>
    <desc>Created with Sketch.</desc>
    <defs></defs>
    <g id="Events/OLMRoadshow" stroke="none" stroke-width="1" fill="none" fill-rule="evenodd">
        <g id="Page-1" transform="translate(22.000000, 37.000000)" fill="#FFFFFF">
            <path d="M47.2709921,31.2121337 L57.9022338,26.8894349 C58.3837892,27.843605 58.7431173,28.9652583 58.8871528,30.5401614 C53.2466912,30.6520719 47.6840799,36.7862408 47.6840799,36.7862408 C47.6840799,36.7862408 42.5221307,30.6826624 36.78125,30.5149243 C36.8819227,29.1475269 37.1836873,28.13447 37.5843495,27.2743659 L47.2709921,31.2121337 Z M64.4600694,23.4750163 L61.9667111,24.487002 L61.9158936,37.5769997 C62.3427602,37.8338864 62.6329279,38.2984254 62.6329279,38.8333722 L62.6329279,42.5749386 L59.7109243,42.5749386 L59.7109243,38.8333722 C59.7109243,38.2711296 60.0295497,37.7884785 60.4924967,37.5410305 L60.4924967,25.0834281 L56.4504765,26.724748 L47.2779261,30.4499879 L38.9189631,27.0573997 L30.09375,23.4750163 L30.09375,22.2890517 L47.2779261,15.3120393 L58.6864444,19.9449286 C59.5018105,19.4189104 61.0451366,19.713552 61.4750522,20.3043659 L62.1054427,21.3331883 L64.4600694,22.2890517 L64.4600694,23.4750163 Z" id="Fill-1"></path>
            <path d="M83.0861806,49.1298125 L89.1611162,46.6830467 C89.4361875,47.2230348 89.6416655,47.8581215 89.7239583,48.749418 C86.5008238,48.8129014 83.3221375,52.2850123 83.3221375,52.2850123 C83.3221375,52.2850123 80.3725502,48.8298472 77.0920139,48.7350015 C77.1496696,47.9610607 77.3221289,47.3876869 77.550974,46.9008124 L83.0861806,49.1298125 Z M92.8819444,44.7880784 L91.4666515,45.3633309 L91.4378351,52.8047544 C91.6802473,52.9506647 91.8445517,53.2147775 91.8445517,53.5190538 L91.8445517,55.6461916 L90.186341,55.6461916 L90.186341,53.5190538 C90.186341,53.1995256 90.3673287,52.9252448 90.6299629,52.7844185 L90.6299629,45.7024324 L88.3360206,46.6355972 L83.1298458,48.7533297 L78.3854928,46.8247213 L73.3767361,44.7880784 L73.3767361,44.1139424 L83.1298458,40.1474201 L89.6049562,42.7811767 C90.0677891,42.4822386 90.943658,42.6497558 91.1875868,42.9855528 L91.5455177,43.5704648 L92.8819444,44.1139424 L92.8819444,44.7880784 Z" id="Fill-5"></path>
            <path d="M99.2038706,60.7673403 L102.598622,59.3808354 C102.752492,59.6867046 102.867388,60.0467461 102.913194,60.5519286 C101.112058,60.5877028 99.3357228,62.5552826 99.3357228,62.5552826 C99.3357228,62.5552826 97.6874437,60.5976685 95.8541667,60.5437517 C95.8863072,60.1050069 95.9824758,59.7802285 96.1102788,59.5045118 L99.2038706,60.7673403 Z M104.585069,58.2740338 L103.789871,58.5999797 L103.773916,62.8136639 C103.90991,62.8965619 104.002346,63.0459324 104.002346,63.2181447 L104.002346,64.4226044 L103.070646,64.4226044 L103.070646,63.2181447 C103.070646,63.0372062 103.172199,62.8816762 103.319842,62.8021146 L103.319842,58.7919541 L102.030556,59.3201403 L99.105288,60.5194671 L96.4393457,59.4271635 L93.625,58.2740338 L93.625,57.8923948 L99.105288,55.6461916 L102.743703,57.1375864 C103.003789,56.9681972 103.49585,57.0629012 103.63311,57.253079 L103.834189,57.5844145 L104.585069,57.8923948 L104.585069,58.2740338 Z" id="Fill-9"></path>
            <path d="M98.2880287,43.8820639 L98.2880287,29.0373926 L90.28125,29.0373926 L90.28125,29.0467328 L67.7965275,29.0467328 L67.7965275,70.0713989 L67.8142476,70.2905576 L91.3958333,70.2905576 L91.3958333,46.0030374 C91.3958333,44.8333717 92.3357544,43.9811925 93.4805088,43.975339 L98.2690972,43.975339 L98.2690972,43.8820639 L98.2880287,43.8820639 Z M92.0873017,47.3119127 L92.0655807,47.3119127 L92.0655807,47.3214228 L92.0873017,47.3119127 Z M92.0655807,47.4313385 L92.0655807,72.6004277 L105.79476,72.6004277 L105.79476,47.4313385 L92.0655807,47.4313385 Z M96.9299341,75.9517863 C97.1961548,75.983386 97.4163136,76.0000256 97.5701751,76.0000256 L68.7925477,76.0000256 C67.3380165,76.0000256 66.1573181,74.8134532 66.1573181,73.3453993 L66.1573181,62.3336188 L58.4403822,62.3336188 L58.4403822,74.8713235 L64.6549753,74.8713235 L64.6549753,75.999847 L29.9823252,75.999847 L29.9823252,74.8713235 L36.0464875,74.8713235 L36.0464875,62.3336188 L4.40224023,62.3336188 C2.07348015,62.3336188 0.185611682,60.4374443 0.185611682,58.094451 L0.185611682,4.31782013 C0.185611682,1.97661208 2.07348015,0.078652349 4.40224023,0.078652349 L90.2469832,0.078652349 C92.5772653,0.078652349 94.4651338,1.97661208 94.4651338,4.31782013 L94.4651338,22.5945946 L97.5077115,22.5945946 C98.9529859,22.5945946 100.126736,23.7772459 100.126736,25.2341829 L100.126736,44 L104.360167,44 C105.53105,44 106.48005,44.9457948 106.473929,46.1158817 L106.473929,73.8153222 C106.473929,74.9854091 105.524929,75.9312039 104.354301,75.9312039 L97,75.9312039 C97.279718,75.9312039 97.2159996,75.9429654 96.9299341,75.9517863 Z M90.1724019,22.5945946 L90.1724019,3.89675973 L4.4783435,3.89675973 L4.4783435,49.2353503 L66.1319444,49.2353503 L66.1319444,25.2382637 C66.1319444,23.7792145 67.3183511,22.5945946 68.7796011,22.5945946 L89.759659,22.5945946 L90.1724019,22.5945946 Z" id="Combined-Shape"></path>
        </g>
    </g>
</svg>