<?xml version="1.0" encoding="UTF-8"?>
<svg width="150px" height="150px" viewBox="0 0 150 150" version="1.1" xmlns="http://www.w3.org/2000/svg" xmlns:xlink="http://www.w3.org/1999/xlink">
    <!-- Generator: Sketch 50.2 (55047) - http://www.bohemiancoding.com/sketch -->
    <title>Projects/OLM</title>
    <desc>Created with Sketch.</desc>
    <defs></defs>
    <g id="Projects/OLM" stroke="none" stroke-width="1" fill="none" fill-rule="evenodd" fill-opacity="0">
        <path d="M54.1816406,68.5991211 C54.1816406,75.445835 52.5024582,80.6503728 49.144043,84.2128906 C45.7856277,87.7754084 40.8686847,89.5566406 34.3930664,89.5566406 C28.010222,89.5566406 23.1164721,87.7661312 19.7116699,84.1850586 C16.3068677,80.603986 14.6044922,75.390171 14.6044922,68.543457 C14.6044922,61.7709622 16.2975905,56.5988948 19.6838379,53.0270996 C23.0700853,49.4553044 27.9916669,47.6694336 34.4487305,47.6694336 C40.9243488,47.6694336 45.8320146,49.4413885 49.171875,52.9853516 C52.5117354,56.5293146 54.1816406,61.7338524 54.1816406,68.5991211 Z M26.1826172,68.5991211 C26.1826172,76.4663479 28.9194062,80.3999023 34.3930664,80.3999023 C37.1762834,80.3999023 39.2404718,79.4443455 40.5856934,77.5332031 C41.9309149,75.6220608 42.6035156,72.6440632 42.6035156,68.5991211 C42.6035156,64.5356242 41.9216377,61.5344335 40.5578613,59.595459 C39.194085,57.6564844 37.1577284,56.6870117 34.4487305,56.6870117 C28.9379607,56.6870117 26.1826172,60.6576751 26.1826172,68.5991211 Z M59.1542969,89 L59.1542969,48.3095703 L70.1479492,48.3095703 L70.1479492,80.121582 L85.8173828,80.121582 L85.8173828,89 L59.1542969,89 Z M107.684082,89 L99.3623047,59.6928711 L99.1118164,59.6928711 C99.5014668,64.684107 99.6962891,68.5619979 99.6962891,71.3266602 L99.6962891,89 L89.9550781,89 L89.9550781,48.3095703 L104.594727,48.3095703 L113.083496,77.1992188 L113.306152,77.1992188 L121.62793,48.3095703 L136.29541,48.3095703 L136.29541,89 L126.192383,89 L126.192383,71.159668 C126.192383,70.231929 126.206299,69.2021541 126.234131,68.0703125 C126.261963,66.9384709 126.387206,64.1645729 126.609863,59.7485352 L126.359375,59.7485352 L118.148926,89 L107.684082,89 Z" id="OLM" stroke="#FFFFFF" stroke-width="0.9" fill="#FFFFFF"></path>
    </g>
</svg>