<?xml version="1.0" encoding="UTF-8"?>
<svg width="150px" height="150px" viewBox="0 0 150 150" version="1.1" xmlns="http://www.w3.org/2000/svg" xmlns:xlink="http://www.w3.org/1999/xlink">
    <!-- Generator: Sketch 50.2 (55047) - http://www.bohemiancoding.com/sketch -->
    <title>Events/RoundTable</title>
    <desc>Created with Sketch.</desc>
    <defs></defs>
    <g id="Events/RoundTable" stroke="none" stroke-width="1" fill="none" fill-rule="evenodd">
        <g id="Page-1" transform="translate(22.000000, 22.000000)" fill="#FFFFFF">
            <path d="M68.0008277,29.085967 C72.0596991,31.5066361 75.4673941,34.9101893 77.8925447,38.960451 C79.9097789,37.7952475 82.1628237,37.0475069 84.5332601,36.8003114 C81.2537454,30.7288936 76.2405858,25.730622 70.1662784,22.4565643 C69.9124865,24.8172297 69.163441,27.0719907 68.0008277,29.085967" id="Fill-1"></path>
            <path d="M59.890971,25.8240383 C61.0415111,24.3936895 61.7014213,22.5863932 61.7014213,20.6842191 C61.7014213,20.1775197 61.6485052,19.677231 61.560911,19.1828401 C58.9592877,18.5828013 56.2577403,18.2589342 53.4737363,18.2589342 C50.6951266,18.2589342 47.9879279,18.5828013 45.3924696,19.1948921 C45.2987105,19.6831288 45.2519594,20.1895718 45.2519594,20.6960147 C45.2519594,22.5984453 45.9057046,24.3995873 47.0624097,25.8360904 C49.126395,25.3596493 51.2736076,25.1006582 53.4796444,25.1006582 C55.6856812,25.1006582 57.8267288,25.3478537 59.890971,25.8240383" id="Fill-3"></path>
            <path d="M47.0562961,81.0885313 C45.9057559,82.5265729 45.2458458,84.3279713 45.2458458,86.2301455 C45.2458458,86.7353063 45.2987619,87.2355951 45.3878973,87.7312681 C47.9820712,88.3374611 50.6892698,88.6674824 53.4676227,88.6674824 C56.2457186,88.6674824 58.9531741,88.3433589 61.5488893,87.7312681 C61.6364835,87.2355951 61.6893996,86.7353063 61.6893996,86.2301455 C61.6893996,84.3279713 61.0353975,82.5265729 59.8789492,81.0885313 C57.8147071,81.5665109 55.6674945,81.8257584 53.4617146,81.8257584 C51.2556777,81.8257584 49.1202814,81.5665109 47.0562961,81.0885313" id="Fill-5"></path>
            <path d="M87.8009585,45.3906099 C87.3054479,45.295732 86.8042861,45.2490623 86.2972161,45.2490623 C84.3927498,45.2490623 82.5869232,45.9032071 81.1481701,47.0563586 C81.6267269,49.1167481 81.8848857,51.2602199 81.8848857,53.4624134 C81.8848857,55.6646069 81.6267269,57.8080787 81.1481701,59.8684682 C82.5869232,61.017004 84.3868417,61.6757645 86.2972161,61.6757645 C86.8042861,61.6757645 87.3054479,61.623197 87.8009585,61.5357554 C88.4094938,58.944306 88.7400911,56.2418237 88.7400911,53.4683112 C88.7400911,50.6950552 88.4156588,47.981803 87.8009585,45.3906099" id="Fill-7"></path>
            <path d="M38.9524502,77.8268334 C34.8935788,75.4074464 31.4856269,72.0038932 29.0604763,67.953888 C27.043499,69.1190915 24.7904542,69.8665756 22.4200178,70.1137711 C25.6992756,76.1839068 30.7062702,81.1837169 36.7869995,84.4575182 C37.0346264,82.0953143 37.7836719,79.8408097 38.9524502,77.8268334" id="Fill-9"></path>
            <path d="M77.8864825,67.9539136 C75.4628731,72.0098166 72.0536369,75.407472 67.9947655,77.8268591 C69.1635437,79.8405789 69.9125893,82.0894421 70.1602162,84.4575438 C76.2345236,81.1837426 81.2492244,76.1793168 84.5274547,70.1137967 C82.1626696,69.8666013 79.9039735,69.1191171 77.8864825,67.9539136" id="Fill-11"></path>
            <path d="M25.0561393,53.456413 C25.0561393,51.2542195 25.3160962,49.1122862 25.7931118,47.0503582 C24.3600099,45.9031046 22.5495596,45.2430619 20.6440657,45.2430619 C20.1367389,45.2430619 19.6353202,45.2956294 19.1403234,45.3846095 C18.5317881,47.9758026 18.2024752,50.6785413 18.2024752,53.4502588 C18.2024752,56.2237713 18.5271643,58.92651 19.1403234,61.5174466 C19.6294121,61.6064267 20.1367389,61.6592506 20.6440657,61.6592506 C22.5495596,61.6592506 24.3541018,61.0051058 25.7931118,59.8519544 C25.3220043,57.8020783 25.0561393,55.6583501 25.0561393,53.456413" id="Fill-13"></path>
            <path d="M29.0605277,38.9603997 C31.4854214,34.9103945 34.8936302,31.5068413 38.9525016,29.0859157 C37.7837233,27.0721958 37.0346778,24.8233326 36.7870509,22.4567695 C30.7063216,25.7305707 25.699327,30.7288423 22.4198123,36.8005166 C24.7905056,37.047712 27.0432935,37.7951962 29.0605277,38.9603997" id="Fill-15"></path>
            <path d="M78.2988685,49.1590072 C79.8917463,46.2211251 82.952404,44.3897248 86.2971648,44.3897248 C88.2370798,44.3897248 90.0431632,45.0018156 91.5168513,46.0434213 C93.3332097,44.3476708 95.7706903,43.3119628 98.4537428,43.3119628 L98.5546944,43.3119628 C95.6286388,39.796864 91.2224733,37.554155 86.2971648,37.554155 C80.4352924,37.554155 75.0612244,40.7571824 72.2772203,45.9093101 C71.3799583,47.5686481 72.0005667,49.6413461 73.6630574,50.5367885 C75.3273462,51.4365902 77.4034046,50.8186016 78.2988685,49.1590072" id="Fill-17"></path>
            <path d="M98.5548228,63.5961449 L98.4536143,63.5961449 C95.7705619,63.5961449 93.3333382,62.5591549 91.5169797,60.8634043 C90.0371267,61.9062922 88.2372082,62.518383 86.2970363,62.518383 C82.9525325,62.518383 79.8857097,60.6931369 78.298997,57.7491006 C77.4032762,56.088224 75.3272178,55.4702354 73.6631858,56.3656779 C72.5188106,56.9834101 71.8648086,58.1606656 71.8648086,59.3740773 C71.8648086,59.9212922 71.994787,60.4805591 72.2770919,60.9931563 C75.0672609,66.1447711 80.4354208,69.348055 86.2970363,69.348055 C91.2223449,69.3542092 95.6346754,67.1112438 98.5548228,63.5961449" id="Fill-19"></path>
            <path d="M106.953149,53.456413 C106.953149,58.1379975 103.14807,61.9351658 98.4598564,61.9351658 C93.765221,61.9351658 89.9601414,58.1379975 89.9601414,53.456413 C89.9601414,48.7761107 93.765221,44.9776602 98.4598564,44.9776602 C103.14807,44.9776602 106.953149,48.7761107 106.953149,53.456413" id="Fill-21"></path>
            <path d="M28.6483728,57.7551779 C27.0554951,60.6989578 23.9948373,62.5244603 20.6500766,62.5244603 C18.7099047,62.5244603 16.9038213,61.9123695 15.4301332,60.8694816 C13.6137747,62.5652322 11.176551,63.6022223 8.49349858,63.6022223 L8.39383134,63.6022223 C11.3186025,67.1173211 15.7245112,69.3602865 20.6500766,69.3602865 C26.5132333,69.3602865 31.8857601,66.1572591 34.670021,61.0051314 C35.5670262,59.345537 34.9464178,57.272839 33.2839271,56.377653 C31.6198952,55.4760563 29.5435799,56.0940449 28.6483728,57.7551779" id="Fill-23"></path>
            <path d="M8.39393409,43.3180145 L8.49360133,43.3180145 C11.1766538,43.3180145 13.6136206,44.3537224 15.4302359,46.0492166 C16.9098321,45.0078673 18.7097506,44.3957764 20.6501793,44.3957764 C23.9946832,44.3957764 27.0553409,46.221279 28.6484756,49.1650589 C29.5436826,50.8243968 31.6199979,51.4426419 33.2840299,50.548738 C34.4286619,49.9292108 35.0821502,48.7519553 35.0821502,47.5400821 C35.0821502,46.9913287 34.9526856,46.4323183 34.6701238,45.919721 C31.8796979,40.7675933 26.5133361,37.5645659 20.6501793,37.5645659 C15.7246139,37.5586681 11.3187053,39.8029156 8.39393409,43.3180145" id="Fill-25"></path>
            <path d="M16.9869458,53.456413 C16.9869458,58.1379975 13.1818662,61.9351658 8.49365271,61.9351658 C3.79901732,61.9351658 0.000102749735,58.1379975 0.000102749735,53.456413 C0.000102749735,48.7761107 3.79901732,44.9776602 8.49365271,44.9776602 C13.1818662,44.9776602 16.9869458,48.7761107 16.9869458,53.456413" id="Fill-27"></path>
            <path d="M49.1672123,28.6744019 C46.224203,27.0840428 44.3896065,24.0287172 44.3896065,20.69004 C44.3896065,18.7532482 45.0043068,16.9518498 46.0474735,15.4791906 C44.3487635,13.6659965 43.3115049,11.2345574 43.3115049,8.55464068 L43.3115049,8.45514707 C39.7902715,11.3748229 37.5421073,15.7730557 37.5421073,20.69004 C37.5421073,26.5429822 40.7504678,31.9061491 45.911587,34.6855594 C47.5758758,35.5810019 49.6519342,34.9630133 50.5489394,33.3018803 C51.4503114,31.6422859 50.8312443,29.5698444 49.1672123,28.6744019" id="Fill-29"></path>
            <path d="M63.6309586,8.45512143 L63.6309586,8.55461504 C63.6309586,11.2345317 62.5921587,13.6659709 60.8934488,15.4794213 C61.9384136,16.9579784 62.5515726,18.7532226 62.5515726,20.6900143 C62.5515726,24.0286915 60.7228842,27.0840171 57.7739668,28.6743763 C56.1099348,29.5698187 55.4911246,31.6422603 56.3878729,33.3018547 C57.00694,34.4444926 58.1862501,35.0986374 59.4015226,35.0986374 C59.9496924,35.0986374 60.5101922,34.9688854 61.0234272,34.6855338 C66.1842895,31.9017642 69.3931637,26.543213 69.3931637,20.6900143 C69.3990718,15.7732865 67.152192,11.3747972 63.6309586,8.45512143" id="Fill-31"></path>
            <path d="M61.9730659,8.55466632 C61.9730659,13.2365072 58.1679863,17.0334192 53.4736078,17.0334192 C48.7851374,17.0334192 44.9800579,13.2365072 44.9800579,8.55466632 C44.9800579,3.86846617 48.7851374,0.0700156711 53.4736078,0.0700156711 C58.1679863,0.0700156711 61.9730659,3.86846617 61.9730659,8.55466632" id="Fill-33"></path>
            <path d="M57.780029,78.2397832 C60.7286896,79.8283473 62.5576348,82.8852115 62.5576348,86.2241451 C62.5576348,88.1670911 61.9429345,89.9623353 60.8997679,91.4408924 C62.598221,93.2543428 63.6354796,95.6855255 63.6354796,98.3639037 L63.6354796,98.4651923 C67.1582542,95.5437215 69.405134,91.1454887 69.405134,86.2300429 C69.405134,80.3771007 66.1965167,75.0126516 61.0353975,72.2329849 C59.3713656,71.3393374 57.2953072,71.9573261 56.3998432,73.6169205 C55.4969299,75.2718992 56.1159971,77.3445972 57.780029,78.2397832" id="Fill-36"></path>
            <path d="M43.3160516,98.4591919 L43.3160516,98.3579033 C43.3160516,95.6795251 44.3548514,93.2483424 46.0535614,91.434892 C45.0103947,89.9563349 44.3956944,88.1610907 44.3956944,86.2181447 C44.3956944,82.8792111 46.224126,79.8238855 49.1733002,78.2337828 C50.8370753,77.3385968 51.4561425,75.2658988 50.5593942,73.6063044 C49.940327,72.4636665 48.7610169,71.8095217 47.5454876,71.8095217 C46.9973177,71.8095217 46.4370748,71.9392736 45.923583,72.2226253 C40.7629776,75.0066513 37.5541034,80.3649461 37.5541034,86.2181447 C37.5481952,91.1394883 39.7948182,95.5438753 43.3160516,98.4591919" id="Fill-38"></path>
            <path d="M61.9730659,98.3580059 C61.9730659,103.045745 58.1679863,106.842913 53.4736078,106.842913 C48.7851374,106.842913 44.9800579,103.045745 44.9800579,98.3580059 C44.9800579,93.6777035 48.7851374,89.8795094 53.4736078,89.8795094 C58.1679863,89.8795094 61.9730659,93.6777035 61.9730659,98.3580059" id="Fill-40"></path>
        </g>
    </g>
</svg>