<?xml version="1.0" encoding="UTF-8"?>
<svg width="150px" height="150px" viewBox="0 0 150 150" version="1.1" xmlns="http://www.w3.org/2000/svg" xmlns:xlink="http://www.w3.org/1999/xlink">
    <!-- Generator: Sketch 50.2 (55047) - http://www.bohemiancoding.com/sketch -->
    <title>Events/Partnerships</title>
    <desc>Created with Sketch.</desc>
    <defs></defs>
    <g id="Events/Partnerships" stroke="none" stroke-width="1" fill="none" fill-rule="evenodd">
        <path d="M121.927724,72.4718086 C119.971117,73.9615748 112.370298,79.3852705 110.437593,80.9194273 C109.135871,81.9506539 107.172678,83.4987132 105.894859,84.5643303 C105.061678,85.2499447 104.267523,85.3826286 103.493612,84.9733575 L100.89407,82.380169 C100.883826,82.380169 100.883826,82.380169 100.883826,82.369925 L94.9018065,76.3972013 C94.7832686,76.2745175 94.6659501,76.1711022 94.5369243,76.0623209 C94.4286304,75.9335396 94.3249707,75.8059777 94.1976521,75.6874403 L91.3959129,72.8757138 C90.6459043,72.0374153 89.8819932,71.2383855 89.0729596,70.4744778 C88.791493,70.2030126 88.5110019,69.9366693 88.2192913,69.7003262 C88.1851446,69.665204 88.1600223,69.6410575 88.1258756,69.6056914 C88.0073377,69.497398 87.8797752,69.3847143 87.7609934,69.2812989 C87.7356273,69.2661769 87.7168466,69.2408109 87.6917243,69.2320303 C86.9417158,68.6298311 86.0946329,68.1854378 85.1716956,67.9393385 C84.5997379,67.7917766 84.002414,67.7120199 83.3914314,67.7120199 C82.1087339,67.7120199 80.8762808,68.0578759 79.8109028,68.7334903 C79.8006588,68.7334903 79.8006588,68.7434904 79.8006588,68.7434904 C79.4408986,69.0149557 79.0811384,69.2852014 78.7262563,69.5666667 C78.7008901,69.5869108 78.6718654,69.6008133 78.6467432,69.6261793 C78.2718609,69.9076447 77.8969785,70.1878905 77.5230718,70.4795998 C76.1606173,71.5044849 74.8149922,72.5210772 73.5915636,73.4135223 C71.5993458,74.8679225 69.3205393,75.3225598 66.8597796,74.8781665 C64.951953,74.53353 62.9585156,71.8405847 63.3336418,69.9515474 C63.3929108,69.69057 63.5316929,69.4088608 63.7085241,69.1778836 C63.7677931,69.1032489 63.8270621,69.0237362 63.8965751,68.965687 C63.9797467,68.8659302 64.0834065,68.7625149 64.1919443,68.6588557 L70.4300642,62.9485727 C70.548846,62.8246694 70.6825061,62.7263761 70.8203125,62.6227168 C70.9288503,62.5041794 71.0425102,62.3817396 71.1598286,62.2729583 L77.3994119,56.5524314 L77.4096559,56.5524314 L79.0367476,55.0626651 L79.2096764,54.9099811 C79.9889536,54.2382692 80.8614026,54.13461 82.2272718,54.144854 C84.0477803,54.2092446 86.0048758,55.0424211 87.9970937,55.8365729 C89.2949133,56.3441373 90.5966355,56.7987746 91.9234799,57.1534111 C93.9500883,57.7102442 96.0218193,57.9968315 98.1618436,57.9729289 C102.151401,57.9273189 109.203921,53.094359 111.547118,51.4972749 C112.696156,50.7133671 113.712509,51.0377595 114.289588,52.3406953 C115.19594,54.3568066 116.113756,56.3843815 117.055474,58.3919562 C118.875007,62.2188116 120.73454,66.0403012 122.555292,69.8722786 C123.062859,70.9478957 122.825539,71.7710721 121.927724,72.4718086 M100.371137,91.4741336 C99.4938101,92.3768227 98.3196503,92.8638992 97.0520749,92.8638992 C96.18987,92.8638992 95.3654703,92.6180439 94.645706,92.1734067 C94.9561974,93.668295 94.5320462,95.2907451 93.3678866,96.4446554 C92.4805594,97.3322225 91.3163998,97.8210063 90.0639465,97.8210063 C88.9441776,97.8210063 87.8797752,97.4307597 87.036351,96.7109987 C87.2926954,98.1617403 86.8583002,99.7044338 85.7485314,100.814197 C84.8609603,101.702008 83.6816786,102.190548 82.4294692,102.190548 C81.6162892,102.190548 80.8323778,101.983474 80.1316382,101.582983 C80.121638,102.107133 80.0179783,102.638844 79.830903,103.137384 C79.5987053,103.729583 79.2440671,104.28105 78.765525,104.759834 C78.6669873,104.858128 78.5635715,104.956665 78.4650338,105.036421 C78.4447897,105.055202 78.4296675,105.070324 78.4106429,105.080324 C77.5913653,105.770817 76.5459875,106.135941 75.461341,106.135941 C74.6623075,106.135941 73.8832743,105.923745 73.2079007,105.54862 L78.1001516,100.656635 C78.1884453,100.568098 78.292105,100.469805 78.3664961,100.355902 C78.4106429,100.311999 78.4550337,100.257608 78.4989366,100.203218 C78.5279613,100.167852 78.5684496,100.123705 78.5874742,100.089558 C78.760403,99.8571178 78.9182097,99.6263845 79.0508941,99.3697974 C79.0811384,99.3056506 79.1152851,99.2361379 79.1504075,99.1819912 C79.1794322,99.1034541 79.2238229,99.0139413 79.2591892,98.9356481 C79.293092,98.8712574 79.3133361,98.8017447 79.3374828,98.7473541 C79.3474829,98.7236954 79.3474829,98.7134514 79.3474829,98.7134514 C79.4018737,98.5810115 79.4460206,98.4471081 79.4801673,98.3144243 C79.5443144,98.1112522 79.6038273,97.9141777 79.6240714,97.691981 C79.6240714,97.6729565 79.632852,97.6580784 79.632852,97.6390538 C79.6579742,97.5305165 79.6682182,97.4066132 79.6782184,97.2831977 C79.6869989,97.2690513 79.6869989,97.2590512 79.6782184,97.2488073 C79.702365,97.0861232 79.7123651,96.9180733 79.7123651,96.7414867 C79.7123651,95.3212331 79.164554,93.9004917 78.0901515,92.8248746 C77.1128233,91.8490142 75.86037,91.2809616 74.5042569,91.2026684 C74.390841,91.1926683 74.2820593,91.1926683 74.1683995,91.1926683 C74.0005927,91.1926683 73.8391274,91.2026684 73.6710767,91.2268149 L73.5576608,91.2268149 C73.4098542,91.246815 73.2657062,91.257059 73.1230217,91.2909616 C72.8820433,91.3353522 72.6444796,91.3997429 72.4135014,91.4792556 C72.4135014,91.3353522 72.4035013,91.1773023 72.3935012,91.0243745 C72.3644765,90.6358352 72.2849634,90.2558326 72.1610595,89.8807081 C71.9047151,89.0475317 71.4515392,88.27338 70.7949464,87.6170341 C69.7546906,86.5767831 68.3697968,85.9997059 66.8800237,85.9997059 C66.2044063,85.9997059 65.5378133,86.1221458 64.9168306,86.3645865 C64.9014646,86.2219026 64.8724399,86.0779992 64.838537,85.9304372 C64.8131709,85.7877533 64.7687801,85.6538499 64.7248772,85.511166 C64.6263395,85.1565294 64.4824354,84.8255516 64.3056041,84.5050616 C64.236335,84.3570118 64.1475535,84.2233523 64.0592599,84.0909124 C63.9797467,83.9821312 63.9104777,83.8687158 63.8121839,83.7599345 C63.7677931,83.6918853 63.7236463,83.6374947 63.6794994,83.583348 C63.5658396,83.4645667 63.467058,83.3409073 63.3436419,83.2184674 C63.2551043,83.1287107 63.1565666,83.0404174 63.0582728,82.9609047 C62.9890037,82.8977335 62.9243689,82.8433429 62.8463192,82.7840742 C62.7563182,82.7096834 62.6680245,82.6452928 62.5797308,82.5872436 C62.4902176,82.532853 62.40168,82.4684623 62.3031423,82.4091936 C62.2931422,82.3889495 62.2777761,82.3889495 62.2689955,82.3889495 C61.868991,82.1426064 61.4497179,81.9506539 61.0155666,81.8321165 C60.7099534,81.7338231 60.3843399,81.6794325 60.0633606,81.635042 C60.0194577,81.635042 59.975067,81.6250419 59.9309201,81.6250419 C59.7779915,81.6099198 59.6001846,81.5999198 59.4321339,81.5999198 C59.2896933,81.5999198 59.1570089,81.6150418 59.0131048,81.6250419 C58.9145671,81.6250419 58.8262734,81.6404078 58.7379797,81.6591885 C58.6040757,81.6591885 58.4713913,81.6982131 58.3477313,81.7184572 C58.2050468,81.7387012 58.0711428,81.7728478 57.9284583,81.8167505 C57.9184582,81.8167505 57.8843114,81.8269945 57.8643112,81.8372385 C57.8743113,81.6591885 57.8643112,81.472114 57.8401646,81.2943079 C57.8299206,81.1416239 57.8199204,80.9886961 57.7857737,80.8308901 C57.7606515,80.7072307 57.7416269,80.5986934 57.7062606,80.4762535 C57.687236,80.3323501 57.6521137,80.1999102 57.5977228,80.0572263 C57.5735762,79.9774696 57.5433319,79.8991764 57.5194292,79.8096636 C57.489185,79.7213703 57.4550382,79.6328331 57.4108914,79.5430764 C57.3767447,79.4547831 57.3225977,79.3511239 57.2772313,79.2528305 C57.2682068,79.2086839 57.2328406,79.1784398 57.2228405,79.1440493 C57.1547909,79.0306339 57.090156,78.9030721 57.0106429,78.7791688 C56.9423495,78.6808754 56.8628364,78.5823382 56.7999088,78.4789228 C56.7303958,78.38941 56.6660049,78.3006289 56.5877113,78.2123356 C56.487954,78.0786762 56.3655136,77.9611144 56.2416098,77.837455 C55.9755092,77.5711117 55.674774,77.3247686 55.3642827,77.1267184 C54.4618334,76.5408608 53.4213337,76.2152488 52.3215651,76.2152488 C50.836914,76.2152488 49.4454348,76.792082 48.4054229,77.837455 L43.2665838,82.9709047 C42.8221885,82.6262682 42.280719,82.2260216 41.6580289,81.7728478 C41.614126,81.7438232 41.5697352,81.7084571 41.5255884,81.6743105 C41.1848528,81.4079672 40.8641174,81.151624 40.5736263,80.9194273 C38.6406775,79.3903925 31.0403469,73.9664529 29.0769099,72.4666866 C28.1705581,71.7810721 27.9381165,70.9478957 28.4459271,69.8722786 C30.2661918,66.0454232 32.121091,62.2288117 33.94038,58.4009806 C34.882098,56.3946254 35.7899133,54.3619286 36.7028505,52.3445978 C37.0133418,51.6638614 37.437493,51.2448341 37.9350597,51.1223943 C38.3882356,51.008735 38.8970218,51.1323943 39.4538575,51.4972749 C40.8792396,52.4682571 44.0153729,54.6233938 47.1578477,56.1775508 C49.2093345,57.1836552 51.2661872,57.8490256 52.839132,57.9729289 C53.6332874,58.0409782 54.9096434,58.0170756 56.2860005,57.8287816 C57.2277186,57.6963417 58.1608999,57.4399984 59.0826178,57.1534111 C59.2353024,57.1092645 59.377987,57.0651178 59.5355498,57.0207273 C59.9701889,56.9124339 60.389218,56.7734085 60.8236132,56.6207246 C60.8980043,56.6017 60.9762979,56.581456 61.055811,56.5563339 C61.1984955,56.5273093 61.33118,56.4829187 61.4748402,56.4475526 C64.8029269,55.6055957 68.1524772,54.8604686 71.6247119,55.0085184 C71.7281277,55.0085184 71.8112994,55.0182746 71.9149591,55.0285185 C72.8227744,55.0729091 73.7354677,55.230715 74.5437696,55.9060855 C74.2671811,56.1724288 73.9918121,56.42365 73.7254676,56.6799933 C72.6498456,57.7102442 71.5803212,58.7114706 70.5288458,59.6987944 C67.7132039,62.3714956 64.88244,65.0441968 62.0521638,67.7068979 C61.0204447,68.6842217 60.5331221,70.2232566 60.7641003,71.6332662 C60.8082472,71.8896095 60.8777602,72.1308306 60.9662978,72.3783933 C61.0358108,72.5652238 61.1241044,72.7430299 61.2223982,72.9198604 C63.8068179,77.4574524 68.2700395,78.4433128 72.6939924,76.293542 C74.0462029,75.6179276 75.3576813,74.8288978 76.5901344,73.9615748 L76.5901344,73.9513309 C76.8564789,73.7732809 77.1230673,73.5713283 77.3794117,73.3844977 C77.8235631,73.0486418 78.2579583,72.7179078 78.69089,72.3732713 C79.1252852,72.0186347 79.5696805,71.6522908 79.9889536,71.2874102 C80.0128563,71.2532636 80.0431006,71.229361 80.0672472,71.209117 C80.2250539,71.056433 80.3774946,70.9137491 80.5557893,70.7900897 C80.703352,70.6664304 80.8560367,70.5678931 81.0240873,70.4795998 C81.7350711,70.0552067 82.5428851,69.83301 83.3863094,69.83301 C83.7272889,69.83301 84.071927,69.8671566 84.3924184,69.9566694 C84.8763264,70.0452066 85.3395024,70.2232566 85.7485314,70.4795998 C86.0946329,70.6664304 86.4151244,70.9137491 86.7056155,71.209117 L87.8695312,72.3732713 L87.9683128,72.4615646 L89.6207707,74.1281614 L90.744442,75.237925 L92.6825129,77.1911091 L92.9047106,77.4081838 L94.1571639,78.6657534 C94.236677,78.735266 94.3147266,78.8081934 94.3793615,78.88795 L100.371137,84.8509176 C102.20067,86.6804423 102.20067,89.6536334 100.371137,91.4741336 M65.7751331,105.154959 C64.4431667,103.822999 64.4431667,101.657618 65.7751331,100.325658 L71.7520305,94.3339093 C71.953984,94.1368348 72.1661815,93.9687848 72.3986232,93.8363449 C73.3844881,93.2239017 74.6281608,93.1695111 75.6584164,93.6785389 C75.9942739,93.8363449 76.3047653,94.0585415 76.5798904,94.3339093 C76.8564789,94.6102526 77.0837985,94.9207426 77.2367271,95.2565985 C77.7794162,96.3563621 77.689903,97.6729565 76.9701387,98.6932074 C76.861357,98.8612573 76.7291604,99.0290633 76.5852563,99.1717472 L70.602993,105.154959 C69.2661485,106.4857 67.1070995,106.4857 65.7751331,105.154959 M58.4904159,99.9519965 C57.1547909,98.6151581 57.1547909,96.4548994 58.4904159,95.1229391 L64.4734109,89.1409469 C65.8092798,87.8089866 67.9693044,87.8089866 69.3015147,89.1409469 C70.6334811,90.4731512 70.6334811,92.6331659 69.3015147,93.9687848 L63.3194953,99.9519965 C61.9875289,101.287859 59.8275043,101.287859 58.4904159,99.9519965 M51.0439896,95.5419663 C49.7120232,94.2061035 49.7120232,92.0460888 51.0439896,90.7141284 L57.0257651,84.7321363 C58.3577315,83.400176 60.518,83.400176 61.853625,84.7321363 C63.1858353,86.0643405 63.1858353,88.2282578 61.853625,89.5602181 L55.8718495,95.5419663 C54.5398831,96.8739267 52.3808341,96.8739267 51.0439896,95.5419663 M43.9322012,90.1521734 C42.5963323,88.820213 42.5963323,86.6599544 43.9322012,85.3243355 L49.9139767,79.3411238 C51.2510651,78.0106269 53.4113336,78.0106269 54.7430561,79.3411238 C56.073803,80.6782061 56.073803,82.8384648 54.7430561,84.1740837 L48.7600611,90.1572954 C47.4293142,91.4880362 45.2690457,91.4880362 43.9322012,90.1521734 M75.499878,22 C45.952712,22 22,45.9528467 22,75.500122 C22,105.047153 45.952712,129 75.499878,129 C105.047288,129 129,105.047153 129,75.500122 C129,45.9528467 105.047288,22 75.499878,22" id="Fill-1" fill="#FFFFFF"></path>
    </g>
</svg>