<?xml version="1.0" encoding="UTF-8"?>
<svg width="150px" height="150px" viewBox="0 0 150 150" version="1.1" xmlns="http://www.w3.org/2000/svg" xmlns:xlink="http://www.w3.org/1999/xlink">
    <!-- Generator: Sketch 50 (54983) - http://www.bohemiancoding.com/sketch -->
    <title>Projects/SkillsBox</title>
    <desc>Created with Sketch.</desc>
    <defs></defs>
    <g id="Projects/SkillsBox" stroke="none" stroke-width="1" fill="none" fill-rule="evenodd">
        <g id="Group" transform="translate(12.000000, 23.000000)" fill="#FFFFFF">
            <polygon id="Fill-1" points="19.9797508 50.3138997 19.9797508 87.6096533 69.0389408 103.815789 69.0389408 34.5394737 53.9391305 56.8455044"></polygon>
            <polygon id="Fill-2" points="72.6812902 1.17782789 60.0349659 20.2200646 46.1805952 11.5661985 1.15945002 18.4718421 0 17.6978723 17.2097197 29.1954807 2.76505356 44.9678938 53.0488883 53.8815789 69.2081567 30.3609624 23.7831397 28.5444242 60.7482624 20.6661741 109.721641 20.6661741 69.6894534 29.9573787 87.0628085 50.047671 127 35.5395092 111.924679 20.1588823 111.773673 20.1923542 122.121963 0"></polygon>
            <polygon id="Fill-3" points="71.6105919 105 111.709714 80.8338216 112.361371 43.0404124 85.6467395 52.7685452 71.6105919 34.5394737"></polygon>
        </g>
    </g>
</svg>