<?xml version="1.0" encoding="UTF-8"?>
<svg width="150px" height="150px" viewBox="0 0 150 150" version="1.1" xmlns="http://www.w3.org/2000/svg" xmlns:xlink="http://www.w3.org/1999/xlink">
    <!-- Generator: Sketch 50 (54983) - http://www.bohemiancoding.com/sketch -->
    <title>Projects/eExams</title>
    <desc>Created with Sketch.</desc>
    <defs>
        <polygon id="path-1" points="0 106.932854 99.7132196 106.932854 99.7132196 0.133494021 0 0.133494021"></polygon>
    </defs>
    <g id="Projects/eExams" stroke="none" stroke-width="1" fill="none" fill-rule="evenodd">
        <g id="Page-1" transform="translate(25.000000, 22.000000)">
            <path d="M67.0974627,100.249603 C67.0974627,101.850029 64.9606823,103.459411 62.9559915,103.459411 L6.81665245,103.459411 C4.94373134,103.459411 3.47507463,101.990754 3.47507463,100.249603 L3.47507463,17.6415004 C3.47507463,15.902268 4.94373134,14.4339311 6.81665245,14.4339311 L62.9559915,14.4339311 C64.8269936,14.4339311 66.2972495,15.902268 66.2972495,17.6415004 L66.2972495,51.9915004 L69.770597,51.9915004 L69.770597,17.6415004 C69.770597,13.8972573 66.6928785,10.9583448 62.9559915,10.9583448 L40.3648401,10.9583448 C41.1650533,9.88723602 41.7014072,8.55066886 41.7014072,6.94864327 C41.7014072,3.20408037 38.6236887,0.133398072 34.886162,0.133398072 C31.14,0.133398072 28.0696375,3.21143645 28.0696375,6.94864327 C28.0696375,8.41889914 28.6056716,9.7554663 29.4058849,10.9583448 L6.81665245,10.9583448 C3.07081023,10.9583448 0.00012793177,14.0363831 0.00012793177,17.6415004 L0.00012793177,100.249603 C0.00012793177,103.995765 3.07784648,106.932758 6.81665245,106.932758 L62.9559915,106.932758 C66.5611087,106.932758 70.5708102,104.127535 70.5708102,100.249603 L70.5708102,93.5664471 L67.0974627,93.5664471 L67.0974627,100.249603 Z M34.886162,3.60706545 C36.7578038,3.60706545 38.2277399,5.07732131 38.2277399,6.94864327 C38.2277399,8.82156438 36.7578038,10.2902211 34.886162,10.2902211 C33.0132409,10.2902211 31.5449041,8.82156438 31.5449041,6.94864327 C31.5449041,5.07732131 33.0132409,3.60706545 34.886162,3.60706545 Z" id="Fill-1" fill="#FFFFFF"></path>
            <mask id="mask-2" fill="white">
                <use xlink:href="#path-1"></use>
            </mask>
            <g id="Clip-5"></g>
            <polygon id="Fill-4" fill="#FFFFFF" mask="url(#mask-2)" points="12.1634328 30.8764578 19.1107676 30.8764578 19.1107676 27.4027904 12.1634328 27.4027904"></polygon>
            <polygon id="Fill-6" fill="#FFFFFF" mask="url(#mask-2)" points="12.1634328 44.7788032 19.1107676 44.7788032 19.1107676 41.3054556 12.1634328 41.3054556"></polygon>
            <polygon id="Fill-7" fill="#FFFFFF" mask="url(#mask-2)" points="12.1634328 58.6817883 19.1107676 58.6817883 19.1107676 55.2084407 12.1634328 55.2084407"></polygon>
            <polygon id="Fill-8" fill="#FFFFFF" mask="url(#mask-2)" points="12.1634328 72.4437286 19.1107676 72.4437286 19.1107676 68.970381 12.1634328 68.970381"></polygon>
            <polygon id="Fill-9" fill="#FFFFFF" mask="url(#mask-2)" points="12.1634328 86.3467136 19.1107676 86.3467136 19.1107676 82.8733661 12.1634328 82.8733661"></polygon>
            <polygon id="Fill-10" fill="#FFFFFF" mask="url(#mask-2)" points="26.0574627 30.8764578 57.2046908 30.8764578 57.2046908 27.4027904 26.0574627 27.4027904"></polygon>
            <polygon id="Fill-11" fill="#FFFFFF" mask="url(#mask-2)" points="80.0593817 75.3899972 83.5327292 75.3899972 83.5327292 64.292236 80.0593817 64.292236"></polygon>
            <polygon id="Fill-12" fill="#FFFFFF" mask="url(#mask-2)" points="77.7908316 53.0627051 85.8105544 53.0627051 85.8105544 49.5890377 77.7908316 49.5890377"></polygon>
            <polygon id="Fill-13" fill="#FFFFFF" mask="url(#mask-2)" points="26.0574627 44.7788032 57.2046908 44.7788032 57.2046908 41.3054556 26.0574627 41.3054556"></polygon>
            <polygon id="Fill-14" fill="#FFFFFF" mask="url(#mask-2)" points="26.0574627 58.6817883 54.1269723 58.6817883 54.1269723 55.2084407 26.0574627 55.2084407"></polygon>
            <polygon id="Fill-15" fill="#FFFFFF" mask="url(#mask-2)" points="26.0574627 72.4437286 53.5902985 72.4437286 53.5902985 68.970381 26.0574627 68.970381"></polygon>
            <polygon id="Fill-16" fill="#FFFFFF" mask="url(#mask-2)" points="26.0574627 86.3467136 53.3267591 86.3467136 53.3267591 82.8733661 26.0574627 82.8733661"></polygon>
            <path d="M81.800533,56.1406475 C71.9075693,56.1406475 63.8878465,64.1603704 63.8878465,74.0533341 C63.8878465,83.945978 71.9075693,91.9660207 81.800533,91.9660207 C91.6934968,91.9660207 99.7135394,83.945978 99.7135394,74.0533341 C99.7135394,64.1603704 91.6934968,56.1406475 81.800533,56.1406475 M81.800533,88.4837179 C73.7808102,88.4837179 67.3615139,81.9339311 67.3615139,74.045978 C67.3615139,66.0262552 73.91258,59.6069588 81.800533,59.6069588 C89.8202559,59.6069588 96.2382729,66.1580249 96.2382729,74.045978 C96.2309168,82.0730569 89.8202559,88.4837179 81.800533,88.4837179" id="Fill-17" fill="#FFFFFF" mask="url(#mask-2)"></path>
        </g>
    </g>
</svg>