<?xml version="1.0" encoding="UTF-8"?>
<svg width="150px" height="150px" viewBox="0 0 150 150" version="1.1" xmlns="http://www.w3.org/2000/svg" xmlns:xlink="http://www.w3.org/1999/xlink">
    <!-- Generator: Sketch 50.2 (55047) - http://www.bohemiancoding.com/sketch -->
    <title>Projects/EngamentLecture</title>
    <desc>Created with Sketch.</desc>
    <defs></defs>
    <g id="Projects/EngamentLecture" stroke="none" stroke-width="1" fill="none" fill-rule="evenodd">
        <g id="Group-2" transform="translate(12.000000, 36.000000)">
            <g id="Group">
                <path d="M47.0000068,8 C49.2077839,8 51,6.20778082 51,4 C51,1.79221918 49.2077839,0 47.0000068,0 C44.7922297,0 43.0000136,1.79221918 43.0000136,4 C42.9943149,6.20778082 44.7863119,8 47.0000068,8" id="Fill-25" fill="#FFFFFF"></path>
                <path d="M55.1391834,14.8770364 C53.9600729,11.7573031 51.7549135,9.77550453 48.7726882,9.12317204 C48.7617552,9.12317204 48.7510285,9.11775331 48.7400956,9.11212616 C48.7145166,9.10670742 48.6874936,9.10128869 48.6617082,9.09170169 L48.6563449,9.09170169 C48.3962227,9.03272083 48.1270241,9 47.8466863,9 L46.1438247,9 C45.8690565,9 45.5996516,9.03272083 45.3397357,9.09170169 L45.3341661,9.09170169 C45.3085871,9.09712043 45.2813578,9.10128869 45.2557788,9.11212616 C45.2448458,9.11775331 45.2341191,9.11775331 45.2231861,9.12317204 C42.2411671,9.7700858 40.0413711,11.7573031 38.856691,14.8770364 C38.0053633,17.1214353 38,19.1988954 38,19.28497 C38,20.2301226 38.756644,21 39.6974983,21 L39.7028616,21 C40.6395902,21 41.4003598,20.2355414 41.4057232,19.2905971 C41.4057232,19.1455417 41.4424415,17.0243148 42.463127,15.1654799 L42.463127,19.8991629 C42.463127,19.9633541 42.463127,20.0277537 42.4684904,20.0919448 L51.536873,20.0919448 C51.5422363,20.0277537 51.5422363,19.9633541 51.5422363,19.8991629 L51.5422363,15.1654799 C52.5631282,17.0243148 52.5955145,19.140123 52.6008778,19.2795512 C52.6008778,20.2301226 53.3616475,21 54.3025017,21 C55.2392303,21 56,20.2301226 56,19.2795512 C55.9946367,19.1988954 55.990511,17.126854 55.1391834,14.8770364" id="Fill-27" fill="#FFFFFF"></path>
                <path d="M9.00077373,40 C11.2081275,40 13,38.2081245 13,36.000767 C13,33.7918755 11.2081275,32 9.00077373,32 C6.79188601,32 5.00001351,33.7918755 5.00001351,36.000767 C4.99431598,38.2140411 6.79188601,40 9.00077373,40" id="Fill-29" fill="#FFFFFF"></path>
                <path d="M17.1324481,45.8693544 C15.9537159,42.7478321 13.7492639,40.7580155 10.7679952,40.1121905 C10.7570658,40.1121905 10.747786,40.1067686 10.7368566,40.1067686 C10.7098422,40.1011382 10.6840652,40.0902946 10.6570509,40.0902946 L10.6516893,40.0902946 C10.393094,40.0314884 10.1237756,40 9.84785821,40 L8.14678016,40 C7.86653224,40 7.60133811,40.0314884 7.33738128,40.0902946 L7.33201966,40.0902946 C7.30644884,40.0957164 7.27922829,40.1011382 7.25221396,40.1067686 C7.24272801,40.1067686 7.23200477,40.1121905 7.21571368,40.1121905 C4.23444499,40.7580155 2.03535463,42.7478321 0.851260783,45.8693544 C0.0109294626,48.1135807 0,50.1880615 0,50.2798158 C0,51.2255105 0.761969136,51.9945782 1.69695373,51.9945782 L1.70252157,51.9945782 C2.63750616,51.9945782 3.39947529,51.2309323 3.40483692,50.2839864 C3.40483692,50.1403076 3.4413372,48.0232861 4.46169533,46.1635937 L4.46169533,50.8997828 C4.46169533,50.9642193 4.46169533,51.0269876 4.46726317,51.0914241 L13.5327368,51.0914241 C13.5380985,51.0269876 13.5380985,50.9642193 13.5380985,50.8997828 L13.5380985,46.1635937 C14.5586628,48.0232861 14.5895952,50.1403076 14.5949569,50.2798158 C14.5949569,51.2309323 15.356926,52 16.2974784,52 C17.2380309,52 18,51.2309323 18,50.2798158 C17.9944322,50.1880615 17.9837089,48.1135807 17.1324481,45.8693544" id="Fill-31" fill="#FFFFFF"></path>
                <path d="M21,14 C23.2077808,14 25,12.2077808 25,10 C25,7.79221918 23.2077808,6 21,6 C18.7922192,6 17,7.79221918 17,10 C17,12.2077808 18.7865205,14 21,14" id="Fill-34" fill="#FFFFFF"></path>
                <path d="M28.1389869,20.8735373 C26.95989,17.7548873 24.7547559,15.76836 21.7713271,15.1216709 C21.7616319,15.1216709 21.7509053,15.116254 21.7399725,15.1120872 C21.7143938,15.1066704 21.6873711,15.1012535 21.6601421,15.0902115 L21.6562228,15.0902115 C21.3963099,15.0314594 21.1269081,15 20.852143,15 L19.1490947,15 C18.8743296,15 18.6049278,15.0314594 18.3396516,15.0902115 L18.3342883,15.0902115 C18.3085033,15.0958367 18.2814806,15.1012535 18.2556956,15.1120872 C18.2449691,15.1120872 18.2340362,15.116254 18.2233096,15.1216709 C15.2411185,15.76836 13.0413477,17.7548873 11.8568875,20.8735373 C11.0107266,23.1171568 11,25.195354 11,25.2801486 C11,26.2262231 11.7566353,26.9945831 12.6974788,26.9945831 L12.7028421,26.9945831 C13.6395599,26.9945831 14.4003209,26.2301816 14.4058904,25.2855655 C14.4058904,25.1420188 14.442402,23.0269454 15.4630759,21.1675058 L15.4630759,25.8939199 C15.4630759,25.9582972 15.4630759,26.0224661 15.4684391,26.086635 L24.5369241,26.086635 C24.5422874,26.0224661 24.5422874,25.9582972 24.5422874,25.8939199 L24.5422874,21.162089 C25.5629613,23.0215285 25.5953472,25.1363936 25.5953472,25.2801486 C25.5953472,26.2301816 26.3561082,27 27.2983956,27 C28.2392391,27 29,26.2301816 29,25.2801486 C29,25.195354 28.9905111,23.1171568 28.1389869,20.8735373" id="Fill-36" fill="#FFFFFF"></path>
                <path d="M47.4882923,53 C51.6389385,53 55,49.6387276 55,45.4882923 C55,41.3610615 51.6389385,38 47.4882923,38 C43.3612724,38 40,41.3610615 40,45.4882923 C40,49.6387276 43.3612724,53 47.4882923,53" id="Fill-38" fill="#FFFFFF"></path>
                <path d="M63.1348938,27.0008382 L63.1348938,50.0964892 L55.971074,53.5089945 L53.2212079,53.5052226 L42.2805652,53.5089945 L37.5621719,53.5169573 C36.1013253,53.3926948 34.6872831,54.4718721 34.1793917,55.9083304 L26,79 L33.4686811,79 L37.5621719,67.4383442 L37.5621719,79 L57.8272284,79 L57.8194276,60.3687901 C57.8938509,60.3415487 57.9678525,60.3222702 58.0422758,60.2872755 L63.1357371,57.8609078 L63.1357371,64.40638 L125.995783,64.40638 L126,27 L63.1348938,27.0008382 Z M122.277361,60.7072117 L66.857744,60.7072117 L66.857744,56.0872852 L84.223877,47.8140817 C85.8605565,47.0337213 86.5480757,45.0809343 85.7629418,43.4542055 L85.5599118,43.034898 C84.7747779,41.4081692 82.8098348,40.7248299 81.1733662,41.5051904 L66.8579549,48.3224475 L66.857744,30.7012637 L122.273566,30.7012637 L122.277361,60.7072117 Z" id="Fill-40" fill="#FFFFFF"></path>
                <path d="M47,22 L47,36" id="Path-2" stroke="#FFFFFF" stroke-linecap="round" stroke-dasharray="1,2"></path>
                <path d="M24,47 L38,47" id="Path-2-Copy-2" stroke="#FFFFFF" stroke-linecap="round" stroke-dasharray="1,2"></path>
                <path d="M29,30 L39,40" id="Path-2-Copy" stroke="#FFFFFF" stroke-linecap="round" stroke-dasharray="1,2"></path>
            </g>
        </g>
    </g>
</svg>