<?xml version="1.0" encoding="UTF-8"?>
<svg width="150px" height="150px" viewBox="0 0 150 150" version="1.1" xmlns="http://www.w3.org/2000/svg" xmlns:xlink="http://www.w3.org/1999/xlink">
    <!-- Generator: Sketch 50.2 (55047) - http://www.bohemiancoding.com/sketch -->
    <title>Projects/OnlineLearner</title>
    <desc>Created with Sketch.</desc>
    <defs></defs>
    <g id="Projects/OnlineLearner" stroke="none" stroke-width="1" fill="none" fill-rule="evenodd">
        <g id="bb-improve" transform="translate(31.000000, 33.000000)" stroke="#FFFFFF">
            <polygon id="Rectangle-11" points="88.5 49.5 0.5 49.5 0.5 66.5 88.5 66.5"></polygon>
            <polygon id="Rectangle-11-Copy" points="88.5 47 88.5 0.5 0.5 0.5 0.5 66.5 88.5 66.5 88.5 56"></polygon>
            <path d="M53,67 L60,82" id="Line-4" stroke-linecap="square"></path>
            <path d="M31,67 L38,82" id="Line-4-Copy" stroke-linecap="square" transform="translate(34.500000, 74.500000) scale(-1, 1) translate(-34.500000, -74.500000) "></path>
            <path d="M23.55,82.5 L66.45,82.5" id="Line-5" stroke-linecap="square"></path>
        </g>
        <g id="Group-11" transform="translate(51.000000, 42.000000)" stroke="#FFFFFF">
            <polyline id="Path" points="38.5263158 16 40 23 26.7368421 30 12 23 13.4893383 16"></polyline>
            <polygon id="Path" points="26.2258065 22 3 10.2666667 26.2258065 0 48 10.2666667"></polygon>
            <path d="M5,11.6875 L5,21.3125" id="Line-3" stroke-linecap="square"></path>
            <rect id="Rectangle-10" x="0.5" y="20.5" width="5" height="12" rx="2.5"></rect>
        </g>
    </g>
</svg>