<?xml version="1.0" encoding="UTF-8"?>
<svg width="150px" height="150px" viewBox="0 0 150 150" version="1.1" xmlns="http://www.w3.org/2000/svg" xmlns:xlink="http://www.w3.org/1999/xlink">
    <!-- Generator: Sketch 50.2 (55047) - http://www.bohemiancoding.com/sketch -->
    <title>Projects/EcoTourism</title>
    <desc>Created with Sketch.</desc>
    <defs></defs>
    <g id="Projects/EcoTourism" stroke="none" stroke-width="1" fill="none" fill-rule="evenodd">
        <g id="Group-7" transform="translate(24.000000, 26.000000)" stroke="#FFFFFF" stroke-width="0.9">
            <path d="M52.5407897,12.6675001 L67.5663726,22.9299243 C68.8185045,23.3575253 67.5663726,23.9989268 63.8099769,24.8541288 C58.1753833,26.1369319 50.6625919,23.5713258 46.2801302,18.4401137 C41.8976685,13.3089016 37.1120694,1.99798851 38.1412728,1.76367431 C39.1704763,1.52936011 48.1583281,-2.08473477 56.2971854,1.76367431 C61.7230904,4.32928037 66.105552,11.384697 69.4445705,22.9299243 C69.4445705,28.4175505 69.4445705,32.5332702 69.4445705,35.2770833 C69.4445705,39.6599537 69.4445705,46.2342592 69.4445705,55 L69.4445705,36.5598863 C73.6183435,25.0146591 78.2769096,18.4401137 83.7028146,15.8745076 C91.8416719,12.0260985 100.829524,15.6401934 101.858727,15.8745076 C102.887931,16.1088218 98.1023315,27.4197349 93.7198698,32.550947 C89.3374081,37.6821591 81.8246167,40.4082954 76.1900231,39.1254924 C72.4336274,38.2702904 71.8075615,38.4840909 73.0596934,35.9184848 C74.3118253,33.3528787 75.8243761,31.8020759 82.4506826,27.5" id="Path-10-Copy" stroke-linecap="round"></path>
            <path d="M17,62 C27.8649174,62 34.3420797,62 36.4314869,62 C39.5655977,62 43.9533528,62.6133333 48.3411079,66.2933333 C51.2662779,68.7466667 54.8182702,72.2222222 58.9970845,76.72 C60.6686103,79.1733333 60.2507289,81.4222222 57.7434402,83.4666667 C55.2361516,85.5111111 52.728863,85.5111111 50.2215743,83.4666667 L42.0728863,75.4933333" id="Path-8-Copy" stroke-linecap="round"></path>
            <path d="M16,86.6179775 C18.0877279,86.6179775 19.966683,87.258427 21.6368654,88.5393258 C24.1421389,90.4606742 38.5474615,98.1460674 39.8000982,98.1460674 C41.052735,98.1460674 61.7212414,100.067416 66.10547,98.1460674 C70.4896986,96.2247191 88.0266131,89.8202247 88.0266131,89.8202247 C88.0266131,89.8202247 92.4108417,88.5393258 90.5318866,83.4157303 C89.2792499,80 86.5652036,79.1460674 82.3897477,80.8539326 C73.2037449,84.6966292 67.7756523,86.6179775 66.10547,86.6179775 C64.4352877,86.6179775 61.7212414,85.7640449 57.9633311,84.0561798" id="Path-9-Copy" stroke-linecap="round"></path>
            <path d="M89,72 C89,61.5065898 77.7668092,53 63.9099662,53 C54.4956167,53 46.2923068,56.9265174 42,62.734943" id="Oval-Copy" transform="translate(65.500000, 62.500000) rotate(12.000000) translate(-65.500000, -62.500000) "></path>
            <path d="M0.45,57.45 L0.45,92.55 L9,92.55 C10.4083261,92.55 11.55,91.4083261 11.55,90 L11.55,60 C11.55,58.5916739 10.4083261,57.45 9,57.45 L0.45,57.45 Z" id="Rectangle-Copy"></path>
        </g>
    </g>
</svg>