<?xml version="1.0" encoding="UTF-8"?>
<svg width="150px" height="150px" viewBox="0 0 150 150" version="1.1" xmlns="http://www.w3.org/2000/svg" xmlns:xlink="http://www.w3.org/1999/xlink">
    <!-- Generator: Sketch 50.2 (55047) - http://www.bohemiancoding.com/sketch -->
    <title>Projects/LX</title>
    <desc>Created with Sketch.</desc>
    <defs></defs>
    <g id="Projects/LX" stroke="none" stroke-width="1" fill="none" fill-rule="evenodd">
        <g id="Page-1" transform="translate(22.000000, 63.000000)" fill="#FFFFFF">
            <g id="Group-8" transform="translate(0.000000, 0.120606)" fill-opacity="0.9">
                <path d="M6.15845081e-05,12.3350392 C6.15845081e-05,10.6241946 0.255021448,9.01798689 0.766018905,7.51565573 C1.27640052,6.01362875 2.01479877,4.7085565 2.98044386,3.60074316 C3.94624291,2.49369026 5.13374618,1.62176633 6.54387746,0.985427646 C7.95339289,0.349545222 9.54627619,0.0315279661 11.3226813,0.0315279661 C12.7214195,0.0315279661 13.9310932,0.212361308 14.9526262,0.574332168 C15.9735434,0.93615094 16.8341869,1.38602901 17.533479,1.92320593 C18.232925,2.46083912 18.8042753,3.04729275 19.2484536,3.68317518 C19.6923239,4.31936178 20.0310387,4.9166137 20.2641361,5.47584347 C20.4973874,6.03522533 20.658123,6.51765036 20.7471126,6.92342273 C20.8354863,7.32949929 20.8802891,7.55413414 20.8802891,7.59778357 L19.4151936,7.59778357 C19.2595388,6.61088067 18.9372978,5.72831054 18.4492406,4.94961692 C17.9607215,4.17137957 17.3502651,3.50781702 16.6177173,2.95938554 C15.8850157,2.41141033 15.0691749,1.99453549 14.1700411,1.70921728 C13.2707533,1.42450742 12.321736,1.28154414 11.3226813,1.28154414 C9.76828834,1.28154414 8.38063541,1.57766064 7.1598765,2.16989364 C5.93865571,2.76197455 4.90634539,3.55709373 4.06294555,4.55494701 C3.2187759,5.55310448 2.57521779,6.72084072 2.13134745,8.05845993 C1.68701522,9.39638332 1.46546496,10.8217576 1.46546496,12.3350392 C1.46546496,13.8481686 1.68701522,15.2739992 2.13134745,16.6116184 C2.57521779,17.9493897 3.2187759,19.1172781 4.06294555,20.1151314 C4.90634539,21.1132888 5.93865571,21.9079517 7.1598765,22.5000326 C8.38063541,23.0921136 9.76828834,23.3883821 11.3226813,23.3883821 C12.476775,23.3883821 13.5591227,23.152949 14.5695706,22.680866 C15.5795565,22.2096955 16.4620625,21.5846114 17.2170886,20.8059178 C17.9716528,20.0276804 18.5767205,19.1280764 19.031984,18.1083223 C19.4867856,17.0885683 19.7482119,16.03064 19.8145692,14.933777 L21.2799725,14.933777 C21.146796,16.3374027 20.796996,17.6313725 20.2308804,18.8155343 C19.6647648,19.9998482 18.9429944,21.0253816 18.0663389,21.8915262 C17.1890676,22.7579749 16.1733851,23.4326399 15.0191375,23.9147608 C13.8645819,24.3968816 12.6324299,24.6383983 11.3226813,24.6383983 C9.54627619,24.6383983 7.95339289,24.320229 6.54387746,23.6843466 C5.13374618,23.0484641 3.94624291,22.1768444 2.98044386,21.069031 C2.01479877,19.9618261 1.27640052,18.6567538 0.766018905,17.1542706 C0.255021448,15.6523957 6.15845081e-05,14.0455796 6.15845081e-05,12.3350392" id="Fill-1"></path>
                <path d="M39.8622049,7.3017127 C39.8175561,6.29321321 39.6010866,5.4158141 39.2129502,4.66997162 C38.824198,3.9247375 38.2970346,3.29980545 37.6311521,2.79487131 C36.9651157,2.29054552 36.1708295,1.91230118 35.2499871,1.65983411 C34.3285289,1.40812748 33.3236237,1.28158977 32.2361952,1.28158977 C31.5701588,1.28158977 30.8540849,1.35869869 30.0882816,1.51185191 C29.3221703,1.66546139 28.6114851,1.93420194 27.9568417,2.31776938 C27.3017365,2.701641 26.76318,3.21737343 26.341788,3.86390206 C25.9196262,4.51119112 25.7088532,5.3171086 25.7088532,6.28180657 C25.7088532,7.22506005 25.9421046,7.99249911 26.4082993,8.5847321 C26.874648,9.17681301 27.4847965,9.65376285 28.2399765,10.0157337 C28.9943867,10.3775525 29.8602649,10.6686501 30.8374571,10.8875055 C31.8141874,11.1069694 32.8023108,11.3151787 33.8013655,11.5124376 C34.8222827,11.7098486 35.8161027,11.945738 36.7817478,12.2198017 C37.7477008,12.4941695 38.613425,12.8669386 39.3793823,13.3382612 C40.1453397,13.81004 40.7614927,14.4238696 41.2276874,15.1805104 C41.6937282,15.9369991 41.9269795,16.8860319 41.9269795,18.026088 C41.9269795,19.2545076 41.6606265,20.285212 41.1277665,21.1185055 C40.5949066,21.9522551 39.9231736,22.631787 39.1130293,23.1580135 C38.3022693,23.6843922 37.4029815,24.0627886 36.4154739,24.2928987 C35.4273505,24.5233129 34.4781793,24.6382919 33.5682682,24.6382919 C32.16953,24.6382919 30.8591656,24.4904617 29.6385607,24.1941932 C28.4173399,23.8982287 27.35162,23.4159558 26.4415549,22.7469181 C25.531028,22.0778803 24.8151081,21.2170589 24.2936412,20.1643016 C23.7717125,19.1116964 23.5219873,17.828677 23.5443117,16.3155476 L25.0095611,16.3155476 C24.9430499,17.6096694 25.1313445,18.7004489 25.5758307,19.5886463 C26.019701,20.4768437 26.6357001,21.2064127 27.4239818,21.7762886 C28.2118016,22.346773 29.1391103,22.7580205 30.2046763,23.0100313 C31.2703962,23.2623463 32.3912342,23.3882757 33.5682682,23.3882757 C34.2783375,23.3882757 35.0387522,23.3009768 35.8495123,23.1250103 C36.6595025,22.9498043 37.4029815,22.6536878 38.080719,22.2368129 C38.7575328,21.8206985 39.3238023,21.2721149 39.7790658,20.5921268 C40.2337134,19.912595 40.4617301,19.0572487 40.4617301,18.026088 C40.4617301,17.0391851 40.2286327,16.2331156 39.762438,15.6081835 C39.2960893,14.9832515 38.6799363,14.4787736 37.9141329,14.0950541 C37.1481756,13.7114866 36.2822974,13.4041156 35.3166523,13.1737013 C34.3508533,12.9435913 33.3568793,12.7296026 32.3359621,12.5323437 C31.3370614,12.3350848 30.348784,12.1046706 29.3722077,11.8415573 C28.3950155,11.578444 27.5292913,11.2221005 26.7745731,10.7722224 C26.019701,10.3231048 25.4092446,9.74167006 24.9430499,9.02867872 C24.4767012,8.31644782 24.2437578,7.40026611 24.2437578,6.28180657 C24.2437578,5.16349912 24.4820898,4.20442842 24.9596777,3.40352987 C25.4368037,2.60323968 26.0586532,1.95595061 26.8244566,1.4625752 C27.5905679,0.969047704 28.4505955,0.607228932 29.4054633,0.376814708 C30.3597153,0.146704661 31.3036518,0.0315735927 32.2361952,0.0315735927 C33.4792785,0.0315735927 34.6390688,0.168757507 35.7160279,0.442821159 C36.792679,0.717188987 37.7359997,1.14486212 38.5469138,1.72568847 C39.357058,2.30712318 40.0064666,3.05798458 40.4949857,3.97918521 C40.9830429,4.90023376 41.260943,6.0080471 41.3276083,7.3017127 L39.8622049,7.3017127 Z" id="Fill-4"></path>
                <path d="M46.7886607,0.590803363 L46.7886607,14.6707094 C46.7886607,15.1312337 46.8106772,15.6690189 46.8553259,16.2826964 C46.8995128,16.8968302 47.010211,17.5273895 47.1883442,18.1740702 C47.3658615,18.8212072 47.6154327,19.4570896 47.9376737,20.0821738 C48.2592988,20.70741 48.6977805,21.2663356 49.2531188,21.7598631 C49.8076873,22.2532385 50.4903515,22.6480605 51.3011116,22.944177 C52.1112558,23.2402935 53.0936827,23.3882757 54.2483922,23.3882757 C55.7136416,23.3882757 56.9400971,23.1856937 57.9283745,22.7797692 C58.9158821,22.3741489 59.715095,21.7927142 60.3260133,21.0362255 C60.9363158,20.2795848 61.3749515,19.3641635 61.6413045,18.2892013 C61.9078114,17.2151516 62.040834,16.0086328 62.040834,14.6707094 L62.040834,0.590803363 L63.5062373,0.590803363 L63.5062373,14.6707094 C63.5062373,16.0744871 63.356433,17.3795594 63.0566704,18.5851657 C62.7570618,19.7918366 62.2517609,20.8444418 61.5413836,21.7434375 C60.8306984,22.6428895 59.8815271,23.3502535 58.6941778,23.8652255 C57.5060587,24.3803496 56.0241815,24.6382919 54.2483922,24.6382919 C52.849654,24.6382919 51.6507576,24.4626295 50.6517029,24.1120653 C49.6528022,23.7615011 48.8254144,23.3059957 48.170771,22.7469181 C47.5156658,22.1875362 46.9994337,21.5460265 46.6222286,20.8222369 C46.2444076,20.0987514 45.9561921,19.3697908 45.7563504,18.6348987 C45.5565087,17.9003107 45.4342634,17.1873194 45.3899226,16.4963809 C45.3452738,15.8055945 45.3232573,15.1969359 45.3232573,14.6707094 L45.3232573,0.590803363 L46.7886607,0.590803363 Z" id="Fill-6"></path>
            </g>
            <polygon id="Fill-9" points="84.7931843 24.1997292 67.9758408 24.1997292 67.9758408 0.711318368 73.2042116 0.711318368 73.2042116 19.8572956 84.7931843 19.8572956"></polygon>
            <polygon id="Fill-10" points="91.7862438 0.706801336 85.7252504 0.706801336 93.3481809 12.0976289 93.4282407 12.0976289 96.4872972 7.65816274"></polygon>
            <polygon id="Fill-11" points="85.4275201 24.1951361 91.1554952 24.1951361 95.9452304 17.2437747 99.0044408 12.8043086 93.2119559 12.8043086 93.0767779 13.0020237"></polygon>
            <polygon id="Fill-12" fill-opacity="0.7" points="101.238326 0.706801336 96.4681444 7.62957009 96.4873896 7.65816274 93.4283331 12.0976289 99.1818658 12.0976289 99.3170438 11.8999137 106.966148 0.706801336"></polygon>
            <polyline id="Fill-15" fill-opacity="0.7" points="99.0043792 12.8042325 95.9453227 17.2436987 95.9128369 17.2911503 100.588025 24.2043375 106.668417 24.2043375 99.021161 12.7768566 98.9407932 12.7768566"></polyline>
        </g>
    </g>
</svg>