<?xml version="1.0" encoding="UTF-8"?>
<svg width="150px" height="150px" viewBox="0 0 150 150" version="1.1" xmlns="http://www.w3.org/2000/svg" xmlns:xlink="http://www.w3.org/1999/xlink">
    <!-- Generator: Sketch 50 (54983) - http://www.bohemiancoding.com/sketch -->
    <title>Projects/ProblemBase</title>
    <desc>Created with Sketch.</desc>
    <defs></defs>
    <g id="Projects/ProblemBase" stroke="none" stroke-width="1" fill="none" fill-rule="evenodd">
        <g id="Page-1" transform="translate(36.000000, 19.000000)" fill="#FFFFFF">
            <path d="M18.5882353,86.3334378 C18.5882353,95.6666318 4.64705882,95.6666318 4.64705882,86.3334378 C4.64705882,76.9999652 18.5882353,76.9999652 18.5882353,86.3334378" id="Fill-1"></path>
            <path d="M11.6176471,95.5733333 C5.19893798,95.5733333 0,100.825149 0,107.307067 L0,112 L23.2352941,112 L23.2352941,107.307067 C23.2352941,100.825149 18.0363561,95.5733333 11.6176471,95.5733333" id="Fill-3"></path>
            <path d="M46.4705882,86.3334378 C46.4705882,95.6666318 32.5294118,95.6666318 32.5294118,86.3334378 C32.5294118,76.9999652 46.4705882,76.9999652 46.4705882,86.3334378" id="Fill-5"></path>
            <path d="M39.3141176,95.5733333 C32.8954086,95.5733333 27.6964706,100.825149 27.6964706,107.307067 L27.6964706,112 L50.9317647,112 L50.9317647,107.307067 C50.9317647,100.825149 45.7328267,95.5733333 39.3141176,95.5733333" id="Fill-7"></path>
            <path d="M67.3575686,95.6743991 C60.9576282,95.6743991 55.7733915,100.893903 55.7733915,107.33594 L55.7733915,112 L78.9420224,112 L78.9420224,107.33594 C78.9420224,100.893903 73.7577857,95.6743991 67.3575686,95.6743991" id="Fill-11"></path>
            <path d="M74.1670588,86.3334378 C74.1670588,95.6666318 60.2258824,95.6666318 60.2258824,86.3334378 C60.2258824,76.9999652 74.1670588,76.9999652 74.1670588,86.3334378" id="Fill-9"></path>
            <path d="M65.0544777,74.6666667 C65.7682078,74.6666667 66.4536439,74.339356 66.9013549,73.7510325 C67.5052377,72.9565729 67.5393569,71.8665587 66.9876239,71.037836 C66.9535046,70.9796165 63.72355,66.0618781 62.9160614,60.6664055 L67.3831851,60.6664055 C71.228673,60.6664055 74.3529412,57.5275659 74.3529412,53.6672499 L74.3529412,7.00082698 C74.3529412,3.13911823 71.228673,0 67.3831851,0 L11.6184792,0 C7.77299136,0 4.64705882,3.13911823 4.64705882,7.00082698 L4.64705882,53.6672499 C4.64705882,57.5275659 7.77299136,60.6664055 11.6184792,60.6664055 L16.0795004,60.6664055 C15.2664639,66.0457215 12.0423345,70.9854663 12.0082153,71.0436858 C11.4609205,71.8726871 11.4967041,72.9627013 12.1003095,73.7510325 C12.5480204,74.339356 13.2392818,74.6666667 13.9471866,74.6666667 C14.1912918,74.6666667 14.4409447,74.6259966 14.6789472,74.5440993 C15.2664639,74.3513342 28.0578497,69.9536716 29.9627019,60.6664055 L33.181006,60.6664055 L37.2983382,73.0746833 C37.6120688,74.0243021 38.5013881,74.6666667 39.5008322,74.6666667 C40.4999988,74.6666667 41.3879312,74.0243021 41.7077644,73.0746833 L45.826761,60.6664055 L49.0328599,60.6664055 C50.9318868,69.9598 63.7415805,74.3513342 64.3271554,74.5440993 C64.5593327,74.6259966 64.8089856,74.6666667 65.0544777,74.6666667 M53.435906,58.3323323 C53.435906,57.0437032 52.3965175,55.9999304 51.1116369,55.9999304 L44.1418808,55.9999304 C43.1427142,55.9999304 42.2533948,56.6420164 41.9410512,57.5977635 L39.5008322,64.954036 L37.0606131,57.5977635 C36.7363417,56.61806 35.8292692,56.0119085 34.8595061,56.0119085 L34.8595061,55.9999304 L27.8780996,55.9999304 C26.593219,55.9999304 25.5538305,57.0437032 25.5538305,58.3323323 C25.5538305,62.0659024 22.3640977,65.1345443 19.0714525,67.2460463 C20.0708965,64.6506817 20.9066792,61.5115634 20.9066792,58.3323323 C20.9066792,57.0437032 19.8672907,55.9999304 18.5840744,55.9999304 L11.612654,55.9999304 C10.3291604,55.9999304 9.28977184,54.9561575 9.28977184,53.6672499 L9.28977184,7.00082698 C9.28977184,5.71052654 10.3349856,4.66647516 11.612654,4.66647516 L67.3770825,4.66647516 C68.6547509,4.66647516 69.6999647,5.71052654 69.6999647,7.00082698 L69.6999647,53.6672499 C69.6999647,54.9561575 68.6547509,55.9999304 67.3770825,55.9999304 L60.4059395,55.9999304 C59.1224458,55.9999304 58.0830573,57.0437032 58.0830573,58.3323323 C58.0830573,61.507385 58.91884,64.6328537 59.9121814,67.2237614 C56.7299382,65.2108704 53.435906,62.1943196 53.435906,58.3323323" id="Fill-14"></path>
            <path d="M40.0092519,15.2590683 C40.0092519,16.2953883 39.9738468,16.641764 39.7463621,16.9137559 C39.3613666,17.3763386 38.8180239,16.7874438 37.7957368,16.6232382 C36.1233341,16.3548953 34.5827945,17.6008933 34.5741523,19.3061057 C34.5666252,20.8246569 35.7862888,22.0574623 37.2900294,22.0574623 C38.6485255,22.0574623 39.2997562,21.1934881 39.7438531,21.7268055 C39.971059,22.0016044 40.0067428,22.3468572 40.0067428,23.3814931 L40.0067428,28.7466667 L44.5424974,28.7466667 C45.2062731,28.7466667 45.2999433,28.6829493 45.3579296,28.5532689 C45.4716719,28.2891364 45.2391692,27.8546231 45.2391692,26.8584422 C45.2391692,24.7563293 47.440418,23.0789056 49.3740377,23.0789056 C51.3048696,23.0789056 53.5058396,24.6698758 53.5058396,26.8584422 C53.5058396,27.8546231 53.2711067,28.2891364 53.387358,28.5532689 C53.4431141,28.6809844 53.5387357,28.7466667 54.2022327,28.7466667 L58.7388235,28.7466667 L58.7388235,14.6878572 C58.7388235,12.0400764 56.6067123,9.89333333 53.9766995,9.89333333 L40.0092519,9.89333333 L40.0092519,15.2590683 Z" id="Fill-16"></path>
            <path d="M25.55091,28.7018609 C26.5709977,28.7018609 26.911396,28.7374195 27.1823309,28.9653304 C27.6384092,29.3528349 27.0577949,29.8976931 26.8958982,30.924412 C26.6310517,32.6040648 27.8595297,34.1510029 29.5407649,34.1599626 C31.0379637,34.1678023 32.2537113,32.9425713 32.2537113,31.4320317 C32.2537113,30.0679263 31.4018854,29.4144324 31.9285341,28.9681303 C32.1986388,28.7402194 32.5398672,28.7043808 33.5591248,28.7043808 L38.8494118,28.7043808 L38.8494118,24.1484031 C38.8494118,23.4820297 38.7838228,23.3879535 38.6587334,23.3299958 C38.3977614,23.2160404 37.9693577,23.4489911 36.9871843,23.4489911 C34.9151829,23.4489911 33.264113,21.2384795 33.264113,19.2967572 C33.264113,17.3567148 34.8324356,15.1462032 36.9871843,15.1462032 C37.9693577,15.1462032 38.3977614,15.3825137 38.6587334,15.2657584 C38.7838228,15.2097607 38.8494118,15.1131645 38.8494118,14.4465112 L38.8494118,9.89333333 L24.988561,9.89333333 C22.3777341,9.89333333 20.2611765,12.0346877 20.2611765,14.675822 L20.2611765,28.7018609 L25.55091,28.7018609 Z" id="Fill-18"></path>
            <path d="M38.9901479,43.5414931 C38.9901479,42.5068572 39.0258359,42.1613237 39.2530684,41.8868055 C39.6972172,41.3534881 40.351312,42.2174623 41.7071787,42.2174623 C43.2063551,42.2174623 44.4258824,40.9922357 44.4258824,39.480421 C44.4258824,37.9683257 43.2091433,36.743099 41.709688,36.743099 C40.351312,36.743099 39.6997265,37.6070733 39.2558565,37.0729138 C39.0283452,36.798957 38.992936,36.4528621 38.992936,35.4190683 L38.992936,30.0533333 L34.4566517,30.0533333 C33.7927984,30.0533333 33.6991173,30.1198577 33.6408454,30.2464504 C33.5273686,30.5133898 33.7598985,30.9459383 33.7598985,31.9421192 C33.7598985,34.0436707 31.5581137,35.7182875 29.6245469,35.7182875 C27.6932106,35.7182875 25.4922623,34.127598 25.4922623,31.9421192 C25.4922623,30.9459383 25.7270227,30.511425 25.610479,30.2464504 C25.5549952,30.1198577 25.4593624,30.0533333 24.7955091,30.0533333 L20.2611765,30.0533333 L20.2611765,44.1118621 C20.2611765,46.7599236 22.3938156,48.9066667 25.0238568,48.9066667 L38.9901479,48.9066667 L38.9901479,43.5414931 Z" id="Fill-20"></path>
            <path d="M53.2634057,30.098697 C52.2433027,30.098697 51.9028994,30.0631384 51.6319605,29.8346676 C51.1755986,29.447723 51.7564983,28.9023048 51.9183974,27.8753057 C52.1832478,26.1956527 50.9544749,24.6487145 49.2732146,24.6400348 C47.7759935,24.6324751 46.5605045,25.8574262 46.5605045,27.367686 C46.5605045,28.7320715 47.4123431,29.3861255 46.8856866,29.8318677 C46.6155779,30.0603386 46.2743443,30.0961771 45.2550716,30.0961771 L39.9647059,30.0961771 L39.9647059,34.6513154 C39.9647059,35.3179688 40.0302958,35.412045 40.1551103,35.4705627 C40.416363,35.5847982 40.844773,35.3510075 41.8269611,35.3510075 C43.8989934,35.3510075 45.5500878,37.5620793 45.5500878,39.5040818 C45.5500878,41.4432844 43.9817418,43.6537962 41.8269611,43.6537962 C40.844773,43.6537962 40.416363,43.4180456 40.1551103,43.534801 C40.0302958,43.5907987 39.9647059,43.6868349 39.9647059,44.3532083 L39.9647059,48.9066667 L53.825763,48.9066667 C56.4366288,48.9066667 58.5529412,46.7653121 58.5529412,44.1238975 L58.5529412,30.098697 L53.2634057,30.098697 Z" id="Fill-22"></path>
        </g>
    </g>
</svg>