<?xml version="1.0" encoding="UTF-8"?>
<svg width="150px" height="150px" viewBox="0 0 150 150" version="1.1" xmlns="http://www.w3.org/2000/svg" xmlns:xlink="http://www.w3.org/1999/xlink">
    <!-- Generator: Sketch 50 (54983) - http://www.bohemiancoding.com/sketch -->
    <title>Projects/RiverinaShore</title>
    <desc>Created with Sketch.</desc>
    <defs></defs>
    <g id="Projects/RiverinaShore" stroke="none" stroke-width="1" fill="none" fill-rule="evenodd">
        <g id="Group" transform="translate(22.000000, 22.000000)" fill="#FFFFFF">
            <path d="M58.5547715,88.9495652 L58.4934564,88.9495652 C57.3969344,88.9168637 56.4887568,88.0932809 56.3449551,87.0133075 L50.5464213,42.3057049 L44.6423045,72.3292412 C44.4429619,73.3366668 43.5787771,74.0775341 42.5553932,74.1272733 C41.5185365,74.1717913 40.6048598,73.5089679 40.3153318,72.5243509 L36.8407207,60.5121884 L2.22686358,60.5121884 C0.996438277,60.5121884 0,59.5163045 0,58.2862889 C0,57.0551742 0.996438277,56.0590155 2.22686358,56.0590155 L38.5116245,56.0590155 C39.5025637,56.0590155 40.3766468,56.716068 40.6505024,57.6679835 L42.0417766,62.4657586 L48.8142024,28.0393382 C49.0267429,26.9703569 49.9846874,26.1855213 51.0754354,26.2410313 C52.1675581,26.2751068 53.0699617,27.0986896 53.2140383,28.1786631 L58.9509822,72.4289945 L64.4146204,43.050969 C64.6026899,42.0221088 65.495195,41.2584329 66.5416752,41.2312275 C67.5667088,41.1529088 68.5191543,41.9053178 68.7685388,42.9226363 L72.2945665,57.2560547 L98.6322669,57.2560547 C99.8624172,57.2560547 100.85913,58.2522134 100.85913,59.4833282 C100.85913,60.7130689 99.8624172,61.7092276 98.6322669,61.7092276 L70.5409011,61.7092276 C69.5158675,61.7092276 68.6247371,61.0079319 68.3794769,60.012048 L66.9037914,54.0114628 L60.7431413,87.1243277 C60.5492978,88.1875382 59.6240729,88.9495652 58.5547715,88.9495652" id="Fill-4"></path>
            <path d="M53.4861643,106.999945 C52.8513159,106.999945 52.2497504,106.731757 51.8261514,106.258372 C47.8366193,101.80123 43.9257555,97.4950992 40.1474728,93.3388781 C17.7176321,68.6738653 0.000192544987,49.1905131 0.000192544987,33.5627368 C0.000192544987,15.0709913 13.5556347,0.0277264781 30.2204033,0.0277264781 C39.2845961,0.0277264781 47.7697787,4.5076982 53.4861643,12.1569604 C59.1970486,4.5076982 67.681956,0.0277264781 76.7475242,0.0277264781 C93.4109175,0.0277264781 106.972411,15.0709913 106.972411,33.5627368 C106.972411,49.1850118 89.2549715,68.6738653 66.8248558,93.3388781 C63.0468481,97.4950992 59.130208,101.80123 55.1464522,106.258372 C54.7228532,106.731757 54.1210126,106.999945 53.4861643,106.999945 M30.2204033,4.48486787 C16.0130589,4.48486787 4.45733393,17.5284154 4.45733393,33.5627368 C4.45733393,47.4691609 21.6626039,66.3889064 43.4465936,90.3409527 C46.705555,93.9236648 50.0657401,97.6235542 53.4861643,101.43457 C56.9065884,97.6235542 60.2667735,93.9291661 63.52601,90.3409527 C85.3097247,66.3834051 102.51527,47.4633846 102.51527,33.5627368 C102.51527,17.5284154 90.9551437,4.48486787 76.7475242,4.48486787 C68.1899997,4.48486787 60.2054342,9.27566221 55.3973108,17.2987368 C54.5943982,18.6421506 52.3837067,18.647927 51.5750177,17.2987368 C46.7613931,9.27566221 38.7782028,4.48486787 30.2204033,4.48486787" id="Fill-1"></path>
        </g>
    </g>
</svg>