<?xml version="1.0" encoding="UTF-8"?>
<svg width="150px" height="150px" viewBox="0 0 150 150" version="1.1" xmlns="http://www.w3.org/2000/svg" xmlns:xlink="http://www.w3.org/1999/xlink">
    <!-- Generator: Sketch 50.2 (55047) - http://www.bohemiancoding.com/sketch -->
    <title>Projects/QLT</title>
    <desc>Created with Sketch.</desc>
    <defs></defs>
    <g id="Projects/QLT" stroke="none" stroke-width="1" fill="none" fill-rule="evenodd">
        <g id="Page-1" transform="translate(22.000000, 22.000000)">
            <path d="M76.7774867,12.9067858 L55.7147747,0.719194095 C54.3761471,-0.0735274301 52.6711635,-0.0735274301 51.3325358,0.719194095 L30.2698239,12.9067858 C28.9314468,13.6995074 28.0774515,15.161025 28.0774515,16.6845053 L28.0774515,41.0596887 C28.0774515,42.6451318 28.928941,44.1066494 30.2698239,44.8374082 L51.3325358,57.0249999 C52.0031026,57.3917591 52.7330581,57.6343419 53.5249082,57.6343419 C54.3167583,57.6343419 55.0464632,57.4512132 55.7172806,57.0249999 L76.7799925,44.8374082 C78.1186201,44.0446867 78.9721143,42.5831691 78.9721143,41.0596887 L78.9721143,16.6845053 C78.9673532,15.161025 78.1163649,13.6969987 76.7774867,12.9067858 Z M50.6624703,37.5245521 L42.261592,29.114429 L45.3668473,26.0057565 L50.6622197,31.3069562 L61.681215,20.2758348 L64.7864703,23.3847582 L50.6624703,37.5245521 Z" id="Fill-1" fill-opacity="0.599999964" fill="#FFFFFF"></path>
            <path d="M76.7774867,12.9067858 L55.7147747,0.719194095 C54.3761471,-0.0735274301 52.6711635,-0.0735274301 51.3325358,0.719194095 L30.2698239,12.9067858 C28.9314468,13.6995074 28.0774515,15.161025 28.0774515,16.6845053 L28.0774515,41.0596887 C28.0774515,42.6451318 28.928941,44.1066494 30.2698239,44.8374082 L51.3325358,57.0249999 C52.0031026,57.3917591 52.7330581,57.6343419 53.5249082,57.6343419 C54.3167583,57.6343419 55.0464632,57.4512132 55.7172806,57.0249999 L76.7799925,44.8374082 C78.1186201,44.0446867 78.9721143,42.5831691 78.9721143,41.0596887 L78.9721143,16.6845053 C78.9673532,15.161025 78.1163649,13.6969987 76.7774867,12.9067858 Z" id="Stroke-3" stroke="#FFFFFF" stroke-width="1.30304348"></path>
            <path d="M104.730472,61.1629059 L83.6677604,48.9753142 C82.3291328,48.1825927 80.6243998,48.1825927 79.2857721,48.9753142 L58.2230602,61.1629059 C56.8844326,61.9553766 56.0306878,63.4168942 56.0306878,64.9406254 L56.0306878,89.3158088 C56.0306878,90.901001 56.8819267,92.3625186 58.2230602,93.0932774 L79.2857721,105.280869 C79.9563389,105.647628 80.6862944,105.890462 81.4778939,105.890462 C82.269744,105.890462 82.9996995,105.707082 83.6702663,105.280869 L104.732978,93.0932774 C106.071856,92.3008068 106.925351,90.8392892 106.925351,89.3158088 L106.925351,64.9406254 C106.920589,63.4168942 106.069351,61.9531188 104.730723,61.1629059 L104.730472,61.1629059 Z M78.615456,85.7806722 L70.2148283,77.3702982 L73.3200836,74.2616257 L78.615456,79.5628255 L89.6344513,68.5317041 L92.7397066,71.6406274 L78.615456,85.7806722 Z" id="Fill-5" fill-opacity="0.599999964" fill="#FFFFFF"></path>
            <path d="M104.730472,61.1629059 L83.6677604,48.9753142 C82.3291328,48.1825927 80.6243998,48.1825927 79.2857721,48.9753142 L58.2230602,61.1629059 C56.8844326,61.9553766 56.0306878,63.4168942 56.0306878,64.9406254 L56.0306878,89.3158088 C56.0306878,90.901001 56.8819267,92.3625186 58.2230602,93.0932774 L79.2857721,105.280869 C79.9563389,105.647628 80.6862944,105.890462 81.4778939,105.890462 C82.269744,105.890462 82.9996995,105.707082 83.6702663,105.280869 L104.732978,93.0932774 C106.071856,92.3008068 106.925351,90.8392892 106.925351,89.3158088 L106.925351,64.9406254 C106.920589,63.4168942 106.069351,61.9531188 104.730723,61.1629059 L104.730472,61.1629059 Z" id="Stroke-7" stroke="#FFFFFF" stroke-width="1.30304348"></path>
            <path d="M48.8242253,61.1629059 L27.7615133,48.9753142 C26.4228857,48.1825927 24.7181527,48.1825927 23.3792745,48.9753142 L2.31656253,61.1629059 C0.97818548,61.9553766 0.124440749,63.4168942 0.124440749,64.9406254 L0.124440749,89.3158088 C0.124440749,90.901001 0.975679625,92.3625186 2.31656253,93.0932774 L23.3792745,105.280869 C24.0500918,105.647628 24.7800473,105.890462 25.5716468,105.890462 C26.363497,105.890462 27.0934525,105.707082 27.7640192,105.280869 L48.8267311,93.0932774 C50.1653588,92.3008068 51.0191035,90.8392892 51.0191035,89.3158088 L51.0191035,64.9406254 C51.0140918,63.4168942 50.1631035,61.9531188 48.8242253,61.1629059 Z M22.7092089,85.7806722 L14.3085813,77.3702982 L17.4138365,74.2616257 L22.7092089,79.5628255 L33.7282042,68.5317041 L36.8334595,71.6406274 L22.7092089,85.7806722 Z" id="Fill-9" fill-opacity="0.599999964" fill="#FFFFFF"></path>
            <path d="M48.8242253,61.1629059 L27.7615133,48.9753142 C26.4228857,48.1825927 24.7181527,48.1825927 23.3792745,48.9753142 L2.31656253,61.1629059 C0.97818548,61.9553766 0.124440749,63.4168942 0.124440749,64.9406254 L0.124440749,89.3158088 C0.124440749,90.901001 0.975679625,92.3625186 2.31656253,93.0932774 L23.3792745,105.280869 C24.0500918,105.647628 24.7800473,105.890462 25.5716468,105.890462 C26.363497,105.890462 27.0934525,105.707082 27.7640192,105.280869 L48.8267311,93.0932774 C50.1653588,92.3008068 51.0191035,90.8392892 51.0191035,89.3158088 L51.0191035,64.9406254 C51.0140918,63.4168942 50.1631035,61.9531188 48.8242253,61.1629059 Z" id="Stroke-11" stroke="#FFFFFF" stroke-width="1.30304348"></path>
        </g>
    </g>
</svg>