<?xml version="1.0" encoding="UTF-8"?>
<svg width="150px" height="150px" viewBox="0 0 150 150" version="1.1" xmlns="http://www.w3.org/2000/svg" xmlns:xlink="http://www.w3.org/1999/xlink">
    <!-- Generator: Sketch 50.2 (55047) - http://www.bohemiancoding.com/sketch -->
    <title>Icons/Resources-Rev</title>
    <desc>Created with Sketch.</desc>
    <defs></defs>
    <g id="Icons/Resources-Rev" stroke="none" stroke-width="1" fill="none" fill-rule="evenodd">
        <rect id="Rectangle-9" stroke="#FFFFFF" stroke-width="0.9" x="20.45" y="38.45" width="35.1" height="85.1"></rect>
        <rect id="Rectangle-9-Copy" stroke="#FFFFFF" stroke-width="0.9" x="55.45" y="26.45" width="40.1" height="97.1"></rect>
        <rect id="Rectangle-9-Copy-2" stroke="#FFFFFF" stroke-width="0.9" x="95.45" y="38.45" width="35.1" height="85.1"></rect>
        <path d="M31.5,52.5 L45.8178211,52.5" id="Line-3-Copy-4" stroke="#FFFFFF" stroke-width="0.9" stroke-linecap="square"></path>
        <path d="M31.5,68.5 L45.8178211,68.5" id="Line-3-Copy-5" stroke="#FFFFFF" stroke-width="0.9" stroke-linecap="square"></path>
        <path d="M31.5,84.5 L45.8178211,84.5" id="Line-3-Copy-6" stroke="#FFFFFF" stroke-width="0.9" stroke-linecap="square"></path>
        <path d="M35.5,109.5 L42.5,109.5" id="Line-3-Copy-7" stroke="#FFFFFF" stroke-width="0.9" stroke-linecap="square"></path>
        <path d="M106.5,52.5 L120.817821,52.5" id="Line-3-Copy-4" stroke="#FFFFFF" stroke-width="0.9" stroke-linecap="square"></path>
        <path d="M106.5,68.5 L120.817821,68.5" id="Line-3-Copy-5" stroke="#FFFFFF" stroke-width="0.9" stroke-linecap="square"></path>
        <path d="M106.5,84.5 L120.817821,84.5" id="Line-3-Copy-6" stroke="#FFFFFF" stroke-width="0.9" stroke-linecap="square"></path>
        <path d="M110.5,109.5 L117.5,109.5" id="Line-3-Copy-7" stroke="#FFFFFF" stroke-width="0.9" stroke-linecap="square"></path>
        <path d="M67.5666667,45.5 L83.7935305,45.5" id="Line-3-Copy-4" stroke="#FFFFFF" stroke-width="0.9" stroke-linecap="square"></path>
        <path d="M67.5666667,63.5 L83.7935305,63.5" id="Line-3-Copy-5" stroke="#FFFFFF" stroke-width="0.9" stroke-linecap="square"></path>
        <path d="M67.5666667,81.5 L83.7935305,81.5" id="Line-3-Copy-6" stroke="#FFFFFF" stroke-width="0.9" stroke-linecap="square"></path>
        <path d="M72.5625,109.5 L80.4375,109.5" id="Line-3-Copy-7" stroke="#FFFFFF" stroke-width="0.9" stroke-linecap="square"></path>
    </g>
</svg>