<?xml version="1.0" encoding="UTF-8"?>
<svg width="150px" height="150px" viewBox="0 0 150 150" version="1.1" xmlns="http://www.w3.org/2000/svg" xmlns:xlink="http://www.w3.org/1999/xlink">
    <!-- Generator: Sketch 50.2 (55047) - http://www.bohemiancoding.com/sketch -->
    <title>Events/RoleplaySimulation</title>
    <desc>Created with Sketch.</desc>
    <defs>
        <rect id="path-1" x="21" y="21" width="107.009926" height="107.009926"></rect>
    </defs>
    <g id="Events/RoleplaySimulation" stroke="none" stroke-width="1" fill="none" fill-rule="evenodd">
        <path d="M57.8784119,78.7618859 C57.8784119,78.2261294 58.3106577,77.7915633 58.8427369,77.7915633 L78.1299678,77.7915633 C78.6624127,77.7915633 79.0942928,78.2261294 79.0942928,78.7618859 L79.0942928,99.1397642 C79.0942928,99.6751527 78.6624127,100.110087 78.1299678,100.110087 L65.5937431,100.110087 C65.1216371,100.110087 64.7197436,100.452662 64.6422173,100.921449 C64.611865,101.09292 63.8779248,104.754904 58.6302709,105.707196 C59.7002803,104.487393 60.7713868,102.829713 60.7713868,101.080041 C60.7713868,100.543181 60.3398724,100.109351 59.8074276,100.109351 L58.8441996,100.109351 C58.3124861,100.109351 57.8784119,99.6747847 57.8784119,99.1390283 L57.8784119,78.7618859 Z" id="Fill-17" fill="#FEFEFE"></path>
        <path d="M52.1530396,109.996673 C51.3478251,109.996673 50.6948787,109.339597 50.6948787,108.529747 C50.6948787,107.719526 51.3478251,107.063191 52.1530396,107.063191 C52.9586228,107.063191 53.6115692,107.719526 53.6115692,108.529747 C53.6115692,109.339597 52.9582541,109.996673 52.1530396,109.996673 M56.8641344,107.306443 C56.8810941,106.359763 56.8737203,106.785454 56.8810941,106.359763 C57.0116096,99.0399626 51.2150974,92.9990876 43.9379344,92.8681915 C36.660034,92.7365537 30.6537384,98.5653251 30.5232228,105.884755 C30.4682883,108.976203 31.4784933,111.832186 33.2013722,114.11712 L33.1880994,128.598015 L49.8885581,128.598015 L49.9718816,124.230237 C53.0898757,124.28623 55.6647925,121.78882 55.720833,118.651021 L55.7713433,115.810983 L58.5954931,115.861784 C59.1153431,115.871054 59.5441272,115.455005 59.5533444,114.931791 C59.5577687,114.685573 56.8641344,107.306443 56.8641344,107.306443" id="Fill-19" fill="#FEFEFE"></path>
        <path d="M95.8436725,99.1390283 C95.8436725,99.6747847 95.4095982,100.109351 94.8778847,100.109351 L93.9150225,100.109351 C93.3822119,100.109351 92.9506975,100.543181 92.9506975,101.080041 C92.9506975,102.829713 94.021804,104.487393 95.0918135,105.707196 C89.8441595,104.754904 89.110585,101.093288 89.0798671,100.921449 C89.0027064,100.452662 88.600813,100.110087 88.1287069,100.110087 L75.5921165,100.110087 C75.0600373,100.110087 74.6277916,99.6751527 74.6277916,99.1397642 L74.6277916,78.7618859 C74.6277916,78.2261294 75.0600373,77.7915633 75.5921165,77.7915633 L94.8793475,77.7915633 C95.4117924,77.7915633 95.8436725,78.2261294 95.8436725,78.7618859 L95.8436725,99.1390283 Z" id="Fill-21" fill="#FEFEFE"></path>
        <path d="M99.9244109,108.529747 C99.9244109,107.719526 100.577357,107.063191 101.382941,107.063191 C102.188155,107.063191 102.84147,107.719526 102.84147,108.529747 C102.84147,109.339597 102.188155,109.996673 101.382941,109.996673 C100.577726,109.996673 99.9244109,109.339597 99.9244109,108.529747 M93.9826357,114.931791 C93.9918529,115.455005 94.4210057,115.871054 94.940487,115.861784 L97.7650055,115.810983 L97.8151471,118.651021 C97.8711877,121.78882 100.446104,124.28623 103.564099,124.230237 L103.647422,128.598015 L120.348249,128.598015 L120.334608,114.11712 C122.057487,111.832186 123.067692,108.976203 123.012757,105.884755 C122.88261,98.5653251 116.876315,92.7365537 109.598046,92.8681915 C102.320883,92.9990876 96.5243705,99.0399626 96.6548861,106.359763 C96.6622598,106.785454 96.6548861,106.359763 96.6718457,107.306443 C96.6718457,107.306443 93.9782115,114.685573 93.9826357,114.931791" id="Fill-23" fill="#FEFEFE"></path>
        <mask id="mask-2" fill="white">
            <use xlink:href="#path-1"></use>
        </mask>
        <g id="Rectangle"></g>
        <g id="Page-1" mask="url(#mask-2)" stroke="#FEFEFE" stroke-width="0.930521092">
            <g transform="translate(-48.945409, -258.498759)">
                <polyline id="Stroke-1" points="123.0011 350.296208 123.0011 287.401678 44.9000175 287.401678 44.9000175 252.596898 151.649604 252.596898 151.649604 226.493405 55.4725617 226.493405 55.4725617 178.210399 56.8465404 178.204148 105.105569 178.204148 105.105569 81.9793198 131.196099 81.9793198 131.196099 188.781946 165.983594 188.781946 165.983594 110.642058 241.867717 110.642058"></polyline>
                <polyline id="Stroke-3" points="233.540979 71.7791409 143.383867 71.7791409 143.383867 148.746945 41.0615861 148.746945 41.0615861 160.467045 30.7848572 160.467045 29.3822156 160.467045 29.3822156 243.042688 80.1948086 243.042688 80.1948086 319.817841 118.025709 319.817841 118.025709 356.166079"></polyline>
                <polyline id="Stroke-5" points="128.685418 351.044684 128.685418 345.130807 128.685418 311.116517 158.055638 311.116517 158.055638 286.036943 134.693589 286.036943 134.693589 215.23324 205.024471 215.23324 205.024471 160.467009 202.942006 160.467009 148.202972 160.467009 148.202972 119.320183 77.4344306 119.320183 77.4344306 132.988119 52.3669435 132.988119 52.3669435 115.805035 0.185883735 113.943993"></polyline>
                <polyline id="Stroke-8" points="138.519269 348.234241 138.519269 319.988396 172.683616 319.988396 172.683616 284.842432 162.904361 284.842432 162.904361 249.696469 218.155283 249.696469 218.155283 202.424513 118.025709 202.424513 118.025709 143.232085 193.769825 143.232085 193.769825 84.9988689 138.519269 84.9988689 131.075101 0.0345725433"></polyline>
                <polyline id="Stroke-10" points="112.59921 350.706285 112.59921 310.092966 95.2515267 310.092966 95.2515267 276.312105 101.514777 276.312105 101.514777 244.407754 85.3147628 244.407754 85.3147628 170.53303"></polyline>
                <polyline id="Stroke-14" points="229.690789 5.51762965 229.690789 72.5679443 158.581233 72.5679443 158.581233 102.254234 245.579921 102.254234 245.579921 133.305626 181.773142 133.305626 181.83304 167.803046 181.83304 235.535728 118.025893 235.535728 118.025893 266.58712 205.024581 266.58712 205.024581 296.273409 133.915026 296.273409 133.915026 345.385958"></polyline>
            </g>
        </g>
    </g>
</svg>