<?xml version="1.0" encoding="UTF-8"?>
<svg width="150px" height="150px" viewBox="0 0 150 150" version="1.1" xmlns="http://www.w3.org/2000/svg" xmlns:xlink="http://www.w3.org/1999/xlink">
    <!-- Generator: Sketch 50.2 (55047) - http://www.bohemiancoding.com/sketch -->
    <title>Projects/Transition</title>
    <desc>Created with Sketch.</desc>
    <defs></defs>
    <g id="Projects/Transition" stroke="none" stroke-width="1" fill="none" fill-rule="evenodd">
        <g id="Page-1" transform="translate(22.000000, 37.000000)" fill="#FFFFFF">
            <path d="M52.500643,76.1046644 L106.910571,76.1046644 L106.910571,0.000247444952 L52.500643,0.000247444952 L52.500643,76.1046644 Z M57.3099831,71.2955718 L102.101726,71.2955718 L102.101726,4.80909265 L57.3099831,4.80909265 L57.3099831,71.2955718 Z" id="Fill-1"></path>
            <polygon id="Fill-2" points="63.0150739 16.8641158 96.3961403 16.8641158 96.3961403 14.3179073 63.0150739 14.3179073"></polygon>
            <polygon id="Fill-3" points="63.0150739 24.3510578 96.3961403 24.3510578 96.3961403 21.8050966 63.0150739 21.8050966"></polygon>
            <polygon id="Fill-4" points="63.0150739 31.8382471 96.3961403 31.8382471 96.3961403 29.292286 63.0150739 29.292286"></polygon>
            <polygon id="Fill-5" points="63.0150739 39.3254365 96.3961403 39.3254365 96.3961403 36.7792279 63.0150739 36.7792279"></polygon>
            <polygon id="Fill-6" points="63.0150739 46.8126258 96.3961403 46.8126258 96.3961403 44.2664173 63.0150739 44.2664173"></polygon>
            <polygon id="Fill-7" points="63.0150739 54.2995678 96.3961403 54.2995678 96.3961403 51.7536067 63.0150739 51.7536067"></polygon>
            <polygon id="Fill-8" points="63.0150739 61.7865097 96.3961403 61.7865097 96.3961403 59.2405486 63.0150739 59.2405486"></polygon>
            <g id="Group-30" transform="translate(0.000000, 25.131004)">
                <g id="Group-15" transform="translate(32.415289, 0.000000)" fill-opacity="0.9">
                    <path d="M0.0972458662,25.7694122 L18.4683015,25.7694122 L18.4683015,0.0732437059 L0.0972458662,0.0732437059 L0.0972458662,25.7694122 Z M1.7207322,24.1456784 L16.8445677,24.1456784 L16.8445677,1.69697748 L1.7207322,1.69697748 L1.7207322,24.1456784 Z" id="Fill-9"></path>
                    <polygon id="Fill-11" points="3.64709115 5.7671995 14.9182087 5.7671995 14.9182087 4.90757574 3.64709115 4.90757574"></polygon>
                    <polygon id="Fill-12" points="3.64709115 10.8232422 14.9182087 10.8232422 14.9182087 9.96361845 3.64709115 9.96361845"></polygon>
                    <polygon id="Fill-13" points="3.64709115 15.8792849 14.9182087 15.8792849 14.9182087 15.0194137 3.64709115 15.0194137"></polygon>
                    <polygon id="Fill-14" points="3.64709115 20.9350802 14.9182087 20.9350802 14.9182087 20.075209 3.64709115 20.075209"></polygon>
                </g>
                <g id="Group-22" transform="translate(13.856917, 2.474450)" fill-opacity="0.8">
                    <path d="M0.0148466971,20.8121 L14.8358096,20.8121 L14.8358096,0.0816568342 L0.0148466971,0.0816568342 L0.0148466971,20.8121 Z M1.32457283,19.5021265 L13.525836,19.5021265 L13.525836,1.39163041 L1.32457283,1.39163041 L1.32457283,19.5021265 Z" id="Fill-16"></path>
                    <polygon id="Fill-18" points="2.87902202 4.67522493 11.9718817 4.67522493 11.9718817 3.98163673 2.87902202 3.98163673"></polygon>
                    <polygon id="Fill-19" points="2.87902202 8.75435497 11.9718817 8.75435497 11.9718817 8.06076677 2.87902202 8.06076677"></polygon>
                    <polygon id="Fill-20" points="2.87902202 12.8329901 11.9718817 12.8329901 11.9718817 12.1394019 2.87902202 12.1394019"></polygon>
                    <polygon id="Fill-21" points="2.87902202 16.9118727 11.9718817 16.9118727 11.9718817 16.2182845 2.87902202 16.2182845"></polygon>
                </g>
                <g id="Group-29" transform="translate(0.000000, 5.691234)" fill-opacity="0.6">
                    <path d="M0,14.2600052 L10.0522037,14.2600052 L10.0522037,0.199935521 L0,0.199935521 L0,14.2600052 Z M0.888574824,13.3716778 L9.16362892,13.3716778 L9.16362892,1.08851035 L0.888574824,1.08851035 L0.888574824,13.3716778 Z" id="Fill-23"></path>
                    <polygon id="Fill-25" points="1.94269032 3.31576236 8.10976087 3.31576236 8.10976087 2.84536951 1.94269032 2.84536951"></polygon>
                    <polygon id="Fill-26" points="1.94269032 6.08194948 8.10976087 6.08194948 8.10976087 5.61155663 1.94269032 5.61155663"></polygon>
                    <polygon id="Fill-27" points="1.94269032 8.84838405 8.10976087 8.84838405 8.10976087 8.37799119 1.94269032 8.37799119"></polygon>
                    <polygon id="Fill-28" points="1.94269032 11.6150661 8.10976087 11.6150661 8.10976087 11.1446732 1.94269032 11.1446732"></polygon>
                </g>
            </g>
        </g>
    </g>
</svg>