<?xml version="1.0" encoding="UTF-8"?>
<svg width="150px" height="150px" viewBox="0 0 150 150" version="1.1" xmlns="http://www.w3.org/2000/svg" xmlns:xlink="http://www.w3.org/1999/xlink">
    <!-- Generator: Sketch 50.2 (55047) - http://www.bohemiancoding.com/sketch -->
    <title>Tasks/Unconference Copy</title>
    <desc>Created with Sketch.</desc>
    <defs></defs>
    <g id="Tasks/Unconference-Copy" stroke="none" stroke-width="1" fill="none" fill-rule="evenodd">
        <path d="M64.4595,74.9295 C64.5765,74.5725 67.401,65.976 67.401,54.408 L67.401,30 L21.4455,30 L21.4455,54.408 C21.4455,65.46 18.6855,73.8975 18.657,73.98 L18,75.9555 L64.113,75.9555 L64.4595,74.9295 Z" id="Stroke-64" stroke="#FFFFFF" stroke-width="0.9"></path>
        <path d="M115.4595,68.9295 C115.5765,68.5725 118.401,59.9745 118.401,48.408 L118.401,24 L72.4455,24 L72.4455,48.408 C72.4455,59.46 69.6855,67.8975 69.6555,67.9785 L69,69.954 L115.113,69.954 L115.4595,68.9295 Z" id="Stroke-65" stroke="#FFFFFF" stroke-width="0.9"></path>
        <path d="M70.4595,125.9295 C70.5765,125.5725 73.401,116.976 73.401,105.4095 L73.401,81 L27.4455,81 L27.4455,105.4095 C27.4455,116.4615 24.6855,124.899 24.6555,124.98 L24,126.9555 L70.113,126.9555 L70.4595,125.9295 Z" id="Stroke-66" stroke="#FFFFFF" stroke-width="0.9"></path>
        <path d="M128.9595,119.9295 C129.0765,119.5725 131.901,110.976 131.901,99.4095 L131.901,75 L85.9455,75 L85.9455,99.4095 C85.9455,110.4615 83.1855,118.899 83.1555,118.98 L82.5,120.9555 L128.613,120.9555 L128.9595,119.9295 Z" id="Stroke-67" stroke="#FFFFFF" stroke-width="0.9"></path>
    </g>
</svg>