<?xml version="1.0" encoding="UTF-8"?>
<svg width="150px" height="150px" viewBox="0 0 150 150" version="1.1" xmlns="http://www.w3.org/2000/svg" xmlns:xlink="http://www.w3.org/1999/xlink">
    <!-- Generator: Sketch 50.2 (55047) - http://www.bohemiancoding.com/sketch -->
    <title>Projects/Zeetings</title>
    <desc>Created with Sketch.</desc>
    <defs></defs>
    <g id="Projects/Zeetings" stroke="none" stroke-width="1" fill="none" fill-rule="evenodd">
        <g id="h5p" transform="translate(14.000000, 48.000000)" fill="#FFFFFF" fill-rule="nonzero">
            <path d="M118.050809,4.33383894 C115.050459,1.44461298 110.494372,0 104.456631,0 L88.34364,0 L84.0838837,0 L84.0838837,11.4828211 L59.6365871,11.4828211 L57.6363538,19.7060027 C59.3032149,18.9281342 61.6738619,18.1502657 63.3036816,17.7428107 C64.9335014,17.3353558 66.5633212,17.4094385 68.1560996,17.4094385 C73.5641379,17.4094385 77.9720596,19.0762996 81.3428232,22.3359392 C84.7135868,25.5955787 86.380448,29.7442109 86.380448,34.7077529 C86.380448,38.1896406 85.5284967,41.5604042 83.7875529,44.7830024 C82.046609,48.0056006 79.6018794,50.4873716 76.4163225,52.1912741 C75.2680404,52.7839358 74.0086342,53.3395562 72.638104,53.7099698 L88.34364,53.7099698 L93.3442234,53.7099698 L93.3442234,34.0780498 L102.604563,34.0780498 C109.34609,34.0780498 114.346674,32.5223127 117.643355,29.44788 C120.940035,26.3734472 122.569855,22.0766497 122.569855,16.63157 C122.569855,11.3346557 121.051159,7.2230649 118.050809,4.33383894 Z M104.345507,21.3358225 C103.049059,22.4470632 100.789536,22.9656423 97.5669382,22.9656423 L93.3442234,22.9656423 L93.3442234,11.1124075 L98.2336827,11.1124075 C101.345157,11.1124075 103.493556,11.6680279 104.604796,12.8533514 C105.753078,14.0386749 106.308699,15.4092051 106.308699,17.1131076 C106.308699,18.8540515 105.641954,20.2245817 104.345507,21.3358225 Z" id="Shape"></path>
            <path d="M62.7851026,27.1513158 C59.8588353,27.1513158 57.3400229,28.8552183 56.1176581,31.2999479 L41.4863215,29.2256318 L48.0796833,0 L39.3379227,0 L34.818877,0 L34.818877,22.9656423 L16.2981977,22.9656423 L16.2981977,0 L0,0 L0,53.7099698 L16.2981977,53.7099698 L16.2981977,34.0780498 L34.818877,34.0780498 L34.818877,53.7099698 L39.3379227,53.7099698 L54.8952933,53.7099698 C52.4135222,52.9691426 50.2651235,52.0060673 48.5241796,50.7096198 C46.7461944,49.3761308 45.3015814,47.8574351 44.1903407,46.1535327 C43.0790999,44.4496302 42.2271487,42.5605209 41.4863215,40.0417085 L56.1546994,37.9303511 C57.3770643,40.3750807 59.8958767,42.0419419 62.7851026,42.0419419 C66.8966934,42.0419419 70.2304157,38.7082196 70.2304157,34.5966288 C70.2304157,30.485038 66.859652,27.1513158 62.7851026,27.1513158 Z" id="Shape"></path>
        </g>
        <g id="z-logo-apple" transform="translate(43.000000, 29.000000)" fill-rule="nonzero">
            <g id="Group">
                <polygon id="Shape" fill="#FFFFFF" points="0 0 64 0 32 31.96875"></polygon>
                <polygon id="Shape" fill-opacity="0.11" fill="#000000" points="64 0 32 31.96875 24 23.9765625"></polygon>
                <polygon id="Shape" fill="#FFFFFF" points="0 93 64 93 32 61.03125"></polygon>
                <polygon id="Shape" fill-opacity="0.11" fill="#000000" points="0 93 32 61.03125 40 69.0234375"></polygon>
                <polygon id="Shape" fill="#FFFFFF" points="64 0 0 63.9375 0 93 64 29.0625"></polygon>
            </g>
        </g>
    </g>
</svg>